<?xml version="1.0" standalone="no"?>
<!DOCTYPE svg PUBLIC "-//W3C//DTD SVG 20010904//EN"
 "http://www.w3.org/TR/2001/REC-SVG-20010904/DTD/svg10.dtd">
<svg version="1.0" xmlns="http://www.w3.org/2000/svg"
 width="3097.000000pt" height="3097.000000pt" viewBox="0 0 3097.000000 3097.000000"
 preserveAspectRatio="xMidYMid meet">
<metadata>
Created by potrace 1.11, written by Peter Selinger 2001-2013
</metadata>
<g transform="translate(0.000000,3097.000000) scale(0.100000,-0.100000)"
fill="#000000" stroke="none">
<path d="M22855 25739 c-20 -18 -46 -55 -59 -83 -32 -72 -79 -249 -91 -346 -2
-14 -4 -25 -5 -25 -3 0 -11 -41 -14 -75 -2 -20 -6 -45 -10 -56 -3 -11 -9 -41
-11 -65 -9 -69 -14 -111 -20 -154 -11 -80 -15 -121 -20 -185 -2 -36 -5 -65 -5
-65 -2 0 -8 -79 -14 -198 -3 -59 -8 -112 -12 -119 -5 -7 -3 -8 6 -3 9 6 11 4
5 -4 -12 -20 -13 -121 -1 -121 7 0 7 -3 0 -8 -14 -8 -15 -790 -2 -798 4 -3 4
-13 0 -22 -9 -18 -10 -80 -2 -97 3 -5 5 -80 5 -165 0 -92 4 -158 10 -162 6 -5
5 -8 -3 -8 -7 0 -10 -4 -7 -10 3 -5 7 -75 10 -155 2 -106 0 -145 -8 -146 -39
-4 -112 -7 -262 -14 -93 -3 -190 -8 -215 -10 -25 -1 -101 -6 -170 -9 -69 -4
-145 -9 -170 -11 -25 -2 -90 -7 -145 -10 -107 -5 -191 -11 -321 -21 l-81 -6
-7 36 c-4 20 -10 36 -14 36 -4 0 -9 12 -10 27 -1 15 -5 29 -10 32 -4 3 -9 17
-11 31 -1 14 -6 27 -10 30 -7 4 -22 50 -21 65 0 7 -30 86 -39 105 -4 8 -14 39
-21 68 -8 28 -17 52 -20 52 -4 0 -7 6 -8 13 -3 37 -8 53 -20 65 -7 8 -10 18
-7 22 3 5 1 17 -4 27 -6 10 -22 54 -36 98 -15 44 -29 87 -33 95 -7 21 -8 21
-17 55 -4 17 -12 36 -18 43 -5 6 -6 12 -1 12 4 0 3 5 -4 12 -7 7 -12 20 -12
30 0 10 -6 18 -12 18 -9 0 -8 4 2 10 11 7 11 10 2 10 -7 0 -11 4 -7 9 3 5 1
12 -5 16 -5 3 -10 17 -10 31 0 13 -4 24 -10 24 -5 0 -10 8 -10 19 0 10 -8 36
-17 57 -9 22 -18 42 -19 47 -1 4 -2 8 -4 10 -1 1 -3 10 -5 20 -2 10 -12 36
-23 57 -10 22 -15 37 -10 34 6 -4 2 5 -7 20 -10 14 -14 26 -10 26 4 0 2 6 -4
13 -6 8 -8 17 -4 20 3 4 1 7 -5 7 -7 0 -12 7 -12 15 0 8 -11 38 -24 67 -33 75
-39 92 -38 101 1 4 -2 7 -8 7 -6 0 -9 3 -8 8 1 4 -4 20 -10 35 -7 16 -12 33
-12 38 0 5 -5 9 -10 9 -6 0 -9 3 -8 8 1 4 -7 25 -17 47 -10 22 -19 42 -20 45
-23 57 -40 90 -46 90 -4 0 -11 16 -15 35 -3 19 -10 35 -16 35 -5 0 -7 4 -4 9
4 5 3 11 -1 13 -5 1 -21 32 -38 68 -16 36 -35 70 -42 76 -7 6 -13 16 -13 22 0
6 -18 38 -41 71 -22 32 -41 65 -42 73 -6 40 -72 -3 -86 -56 -10 -40 -2 -391 9
-391 2 0 8 -47 14 -111 3 -21 5 -39 6 -39 1 0 4 -13 6 -30 14 -107 30 -210 34
-210 4 0 24 -128 22 -137 -1 -5 1 -8 5 -8 5 0 9 -10 10 -22 2 -27 12 -77 20
-98 4 -8 5 -20 4 -27 -1 -6 3 -14 8 -18 6 -3 8 -12 4 -20 -3 -8 1 -15 8 -15 7
0 10 -3 7 -6 -4 -3 5 -45 18 -92 14 -48 27 -98 30 -111 3 -13 9 -32 15 -43 5
-10 7 -18 4 -18 -3 0 1 -13 10 -30 9 -16 13 -30 11 -30 -3 0 2 -16 10 -35 8
-19 11 -35 8 -35 -4 0 -1 -6 5 -14 7 -8 14 -27 16 -43 2 -15 9 -41 16 -58 7
-16 13 -32 14 -35 21 -69 28 -96 27 -102 -1 -5 2 -8 6 -8 5 0 9 -7 10 -15 1
-8 3 -22 4 -30 1 -8 5 -15 10 -15 4 0 8 -10 8 -23 0 -13 5 -28 12 -35 7 -7 9
-12 5 -12 -4 0 -1 -13 8 -30 9 -16 13 -30 9 -30 -4 0 -1 -7 6 -15 7 -8 9 -15
4 -15 -4 0 -3 -5 4 -12 7 -7 12 -18 12 -24 0 -7 5 -25 12 -41 6 -15 12 -30 13
-33 1 -3 6 -20 10 -37 4 -18 12 -33 18 -33 6 0 8 -2 5 -5 -3 -3 9 -45 27 -94
l32 -88 -36 -19 c-20 -11 -86 -67 -147 -126 -185 -179 -197 -221 -198 -708 0
-179 3 -428 8 -555 19 -582 25 -1056 31 -2390 8 -1628 13 -2251 19 -2310 13
-129 19 -165 37 -240 64 -257 216 -412 454 -460 111 -23 113 -23 175 -30 219
-21 489 -24 1135 -12 187 4 558 9 825 12 1221 14 1704 22 1754 30 62 11 163
48 251 94 112 57 238 176 277 261 78 168 107 352 123 790 3 80 8 190 10 245 2
55 6 172 10 260 3 88 8 205 10 260 2 55 7 172 10 260 3 88 7 198 10 245 2 47
6 171 10 275 3 105 8 233 10 285 4 88 8 185 20 570 3 80 7 197 10 260 2 63 7
189 10 280 3 91 7 224 10 295 10 265 15 404 20 560 6 178 11 324 21 555 4 85
7 326 7 535 0 354 -1 386 -21 467 -27 111 -66 196 -127 276 -99 131 -231 210
-403 242 -31 5 -68 12 -82 15 -49 10 -126 18 -172 19 -53 1 -57 9 -33 55 8 16
11 31 8 35 -4 3 -2 6 4 6 6 0 14 10 18 23 9 26 6 20 32 77 11 25 38 83 58 130
21 47 40 87 44 90 3 3 7 12 9 20 2 8 13 35 25 60 11 25 21 47 22 50 1 3 13 31
28 63 15 31 26 58 25 60 -1 1 5 16 14 32 19 34 45 92 84 185 15 36 34 81 42
100 9 19 16 37 17 40 1 3 9 23 19 45 9 21 18 46 20 55 1 8 10 33 20 54 9 22
19 51 23 65 3 14 9 31 14 36 4 6 8 13 8 18 1 4 2 9 2 12 1 3 2 8 3 13 1 4 11
36 23 72 21 64 64 215 67 235 1 6 5 16 10 23 4 7 5 16 2 19 -3 3 -2 11 3 17
25 31 52 246 42 329 -2 20 -147 -110 -186 -167 -11 -16 -29 -40 -41 -55 -12
-14 -27 -37 -34 -50 -7 -14 -17 -30 -21 -35 -27 -33 -78 -116 -72 -116 5 0 3
-4 -3 -8 -6 -4 -26 -32 -45 -63 -19 -30 -40 -64 -46 -75 -7 -10 -22 -37 -34
-59 -12 -22 -33 -58 -47 -80 -14 -22 -24 -42 -23 -44 2 -2 -1 -7 -6 -10 -10
-7 -94 -178 -92 -187 0 -4 -3 -10 -8 -13 -13 -10 -62 -111 -49 -104 6 3 3 -2
-6 -13 -19 -21 -53 -94 -50 -106 1 -5 -3 -8 -9 -8 -5 0 -8 -4 -5 -9 3 -5 -1
-14 -9 -21 -8 -7 -15 -19 -15 -26 0 -8 -4 -22 -10 -32 -13 -23 -83 -178 -100
-222 -7 -19 -18 -41 -24 -49 -5 -7 -11 -18 -12 -25 -1 -6 -11 -32 -23 -59 -11
-26 -19 -49 -18 -51 1 -2 -7 -13 -17 -25 -11 -12 -16 -21 -11 -21 4 0 0 -11
-9 -25 -9 -13 -16 -29 -16 -36 0 -6 -13 -38 -28 -72 -16 -34 -35 -79 -42 -99
-8 -21 -19 -38 -25 -39 -5 0 -315 -1 -687 -2 l-678 -2 -1 50 c0 27 -2 195 -3
372 -2 176 -7 326 -10 331 -3 6 -2 13 4 17 6 4 8 11 5 16 -4 5 -8 136 -11 291
-5 291 -10 439 -14 448 -1 3 -2 8 -2 11 4 28 3 94 -3 209 -4 74 -8 170 -9 212
0 43 -3 78 -6 78 -3 0 -5 28 -6 63 0 34 -4 96 -7 137 -7 75 -10 104 -21 235
-4 39 -8 77 -11 85 -2 8 -6 50 -10 93 -4 43 -8 88 -10 100 -2 12 -7 49 -10 82
-8 66 -13 99 -20 130 -16 79 -16 87 1 106 27 30 9 22 -31 -12z m-171 -4107 c4
-7 338 -9 356 -3 7 3 151 1 250 -4 163 -8 315 -16 350 -20 19 -2 85 -6 147
-10 61 -3 119 -8 130 -10 10 -2 26 -4 36 -4 9 -1 17 -8 17 -17 0 -8 5 -12 10
-9 6 3 10 3 10 -2 0 -4 19 -9 43 -9 55 -2 103 -10 118 -20 8 -5 10 -3 4 5 -6
10 -3 11 12 3 10 -6 40 -13 66 -16 38 -5 49 -2 60 14 12 18 19 19 63 11 192
-37 287 -99 353 -230 74 -145 87 -296 56 -631 -2 -19 -6 -89 -10 -154 -4 -66
-8 -127 -10 -135 -2 -9 -6 -63 -10 -121 -3 -58 -8 -121 -10 -140 -2 -19 -6
-78 -10 -130 -3 -52 -7 -115 -10 -140 -2 -25 -6 -85 -10 -135 -3 -49 -8 -112
-10 -140 -3 -27 -7 -86 -10 -130 -3 -44 -7 -105 -10 -135 -3 -30 -7 -93 -11
-140 -3 -47 -7 -105 -9 -130 -2 -25 -6 -83 -9 -130 -4 -47 -8 -110 -11 -140
-3 -30 -7 -89 -10 -130 -3 -41 -8 -102 -10 -135 -5 -62 -11 -137 -20 -265 -3
-41 -8 -100 -10 -130 -2 -30 -7 -89 -10 -130 -3 -41 -8 -100 -10 -130 -3 -30
-7 -84 -10 -120 -12 -155 -17 -218 -21 -260 -2 -25 -6 -83 -9 -130 -6 -77 -12
-133 -30 -255 -19 -127 -77 -252 -140 -297 -55 -41 -110 -68 -178 -89 -49 -15
-87 -17 -255 -13 -108 2 -244 6 -302 8 -58 3 -195 8 -305 11 -110 3 -252 8
-315 10 -153 6 -406 14 -670 20 -118 3 -237 7 -264 10 -71 5 -174 16 -199 21
-12 2 -35 6 -52 9 -60 11 -120 28 -129 36 -6 5 -16 9 -24 9 -28 0 -101 61
-131 110 -38 61 -77 175 -86 248 -13 102 -18 316 -30 1107 -17 1117 -36 1853
-61 2380 -15 300 -9 538 15 620 45 160 240 302 458 333 72 11 860 15 867 4z"/>
<path d="M22909 20815 c-6 -5 -21 -9 -83 -20 -15 -3 -43 -12 -61 -19 -19 -8
-36 -12 -39 -8 -3 3 -6 0 -6 -6 0 -7 -6 -12 -14 -12 -18 0 -67 -27 -161 -89
-105 -69 -233 -191 -295 -281 -8 -12 -25 -34 -37 -48 -13 -15 -23 -33 -23 -39
0 -7 -3 -13 -8 -13 -4 0 -18 -21 -32 -47 -13 -27 -27 -50 -30 -53 -3 -3 -21
-39 -39 -80 -52 -117 -66 -152 -70 -173 0 -4 -7 -22 -15 -40 -15 -37 -63 -233
-70 -287 -3 -19 -5 -35 -6 -35 -2 0 -9 -58 -13 -108 -2 -24 -7 -49 -11 -55 -3
-6 -2 -14 4 -17 7 -4 7 -11 2 -18 -13 -17 -4 -266 12 -357 7 -41 16 -84 22
-110 3 -14 6 -26 5 -27 0 -2 5 -17 10 -35 6 -18 12 -41 14 -52 2 -10 9 -24 16
-32 6 -8 8 -14 5 -14 -4 0 -1 -12 7 -27 8 -16 23 -47 32 -70 10 -24 22 -43 27
-43 4 0 7 -4 6 -9 -4 -13 73 -131 85 -131 6 0 8 -3 4 -6 -3 -3 4 -16 16 -29
12 -12 32 -33 44 -46 36 -40 87 -84 121 -104 17 -11 32 -23 32 -27 0 -4 9 -8
20 -8 11 0 20 -3 20 -8 0 -7 77 -46 95 -47 6 0 15 -4 22 -8 10 -6 101 -37 111
-37 2 0 0 6 -4 13 -5 8 -3 8 9 -2 9 -7 38 -15 64 -17 27 -2 57 -5 68 -7 11 -2
26 1 33 6 8 6 12 5 12 -2 0 -7 5 -9 10 -6 6 4 31 8 56 10 24 3 61 9 81 14 20
6 40 8 45 5 4 -3 8 0 8 5 0 6 3 10 8 9 10 -3 85 23 100 35 6 5 12 6 12 1 0 -5
7 0 16 11 8 11 18 19 22 19 13 -2 57 21 69 36 7 8 13 11 13 7 0 -5 6 -2 14 5
8 7 26 22 40 32 47 34 75 64 68 72 -4 4 -2 4 4 1 11 -7 71 52 66 66 -1 4 3 7
9 7 12 0 48 40 49 53 0 5 16 28 35 51 19 24 35 48 35 54 0 6 4 12 9 14 12 4
121 222 121 242 0 8 5 18 10 21 6 4 8 11 5 16 -4 5 -1 9 5 9 7 0 10 7 6 15 -3
8 -1 15 4 15 6 0 9 3 9 8 -1 4 0 9 1 12 1 3 3 12 5 20 1 8 8 35 15 60 7 25 14
53 16 63 2 10 6 26 8 35 3 10 8 33 11 52 3 19 8 58 12 85 13 87 8 443 -6 470
-3 5 -6 26 -8 45 -1 19 -6 46 -9 60 -10 37 -14 53 -16 78 -1 12 -6 22 -11 22
-4 0 -6 4 -2 9 3 5 1 12 -4 16 -6 3 -8 12 -4 20 3 8 1 15 -4 15 -5 0 -9 8 -10
19 -1 10 -9 36 -19 57 -9 21 -16 43 -15 47 1 4 -4 18 -11 30 -7 12 -13 24 -13
27 -3 15 -51 108 -63 123 -8 9 -11 17 -6 17 5 0 4 4 -1 8 -6 4 -23 27 -37 52
-14 25 -34 55 -45 66 -10 12 -31 39 -48 59 -43 55 -132 139 -194 185 -50 37
-60 42 -77 39 -4 0 -10 4 -14 10 -3 6 -16 13 -28 16 -11 2 -29 8 -39 13 -10 5
-36 12 -59 14 -23 3 -46 8 -53 12 -6 4 -11 2 -11 -5 0 -10 -3 -10 -11 -2 -7 7
-21 8 -39 3 -18 -5 -30 -4 -32 1 -2 6 -6 8 -9 4z"/>
<path d="M10740 22757 c-3 -3 -75 -8 -160 -11 -85 -4 -168 -8 -185 -10 -16 -2
-61 -7 -100 -10 -204 -19 -245 -27 -333 -67 -67 -30 -168 -118 -208 -182 -14
-20 -33 -60 -44 -87 -18 -45 -57 -214 -65 -285 -13 -101 -21 -176 -30 -280 -5
-59 -11 -126 -20 -215 -2 -25 -7 -81 -10 -125 -11 -157 -17 -222 -30 -340 -2
-22 -7 -71 -11 -110 -11 -123 -13 -149 -19 -205 -6 -60 -12 -130 -20 -230 -3
-36 -7 -78 -10 -95 -19 -136 -28 -981 -12 -1090 19 -132 31 -176 69 -255 34
-71 56 -99 133 -175 50 -49 117 -105 149 -124 92 -55 233 -99 370 -116 22 -3
68 -10 101 -14 60 -9 659 -7 725 2 19 3 71 8 115 12 44 4 94 8 110 10 141 16
406 34 775 50 122 6 193 10 315 20 145 11 213 16 255 21 122 13 559 12 646 -1
231 -35 305 -103 319 -295 24 -305 24 -557 -1 -745 -6 -51 -82 -387 -99 -440
-7 -22 -25 -80 -40 -130 -32 -107 -67 -178 -147 -302 -66 -103 -83 -117 -165
-138 -149 -39 -560 -41 -798 -5 -95 15 -127 19 -180 25 -27 4 -72 10 -100 15
-27 5 -66 11 -85 14 -78 11 -118 17 -170 26 -30 6 -71 12 -90 14 -38 5 -65 9
-210 33 -52 8 -106 16 -120 18 -14 2 -41 6 -60 10 -19 3 -51 8 -70 11 -19 2
-89 14 -155 25 -66 11 -131 22 -145 24 -14 2 -68 11 -120 20 -52 9 -108 18
-125 21 -16 3 -41 7 -55 9 -14 2 -92 15 -175 29 -82 14 -170 28 -195 31 -25 3
-56 8 -70 10 -14 2 -43 7 -65 10 -22 4 -51 8 -65 11 -14 2 -88 6 -165 9 -161
6 -175 2 -218 -63 -38 -57 -116 -282 -156 -452 -18 -74 -36 -148 -41 -165 -5
-16 -12 -50 -15 -75 -9 -59 8 -73 100 -88 39 -7 81 -14 95 -17 30 -7 163 -32
205 -40 34 -5 49 -8 158 -31 42 -8 90 -17 105 -20 26 -4 100 -19 152 -29 14
-3 37 -7 52 -10 14 -2 61 -10 105 -19 43 -9 92 -18 108 -21 47 -8 236 -43 280
-51 48 -9 133 -24 170 -29 22 -4 47 -8 55 -10 8 -3 33 -7 55 -11 22 -3 45 -7
50 -8 6 -2 33 -6 60 -10 28 -4 73 -11 100 -16 60 -11 97 -17 150 -25 22 -3 63
-10 90 -15 28 -5 64 -12 80 -14 92 -15 295 -47 325 -51 19 -3 62 -10 95 -15
54 -9 113 -17 185 -25 110 -13 138 -17 160 -20 14 -2 48 -7 75 -10 28 -3 64
-7 80 -9 17 -2 82 -9 145 -15 63 -7 134 -14 156 -16 23 -3 77 -8 120 -10 44
-3 99 -8 124 -11 25 -2 205 -7 400 -11 l355 -6 75 44 c41 24 109 77 152 118
65 62 87 90 124 165 44 90 86 242 100 366 3 30 8 64 10 75 42 210 50 924 19
1620 -2 39 -6 138 -10 220 -3 83 -8 175 -10 205 -2 30 -6 111 -10 180 -6 119
-8 155 -21 295 -22 254 -35 300 -112 385 -77 87 -177 121 -467 161 -44 6 -91
12 -105 14 -29 5 -103 12 -210 20 -41 3 -95 8 -120 10 -25 2 -115 7 -200 10
-85 4 -191 9 -235 12 -44 2 -501 6 -1015 8 -514 1 -953 5 -975 8 -22 3 -60 9
-84 12 -84 12 -170 44 -182 68 -6 12 -19 31 -29 42 -32 37 -75 204 -88 345
-13 145 -6 514 13 640 2 14 6 48 10 75 3 28 10 76 16 107 5 32 12 70 15 85 3
16 7 35 9 43 2 8 7 29 10 46 21 125 105 305 168 359 81 70 252 146 424 189
157 39 265 50 493 50 149 0 393 -10 437 -18 10 -2 50 -7 88 -10 39 -4 84 -8
100 -10 17 -3 59 -7 95 -11 36 -3 112 -12 170 -20 58 -8 132 -17 165 -20 33
-3 71 -8 85 -10 39 -7 84 -13 230 -30 74 -8 146 -17 160 -19 14 -2 57 -7 95
-11 39 -3 81 -8 95 -10 38 -5 119 -14 175 -20 28 -2 95 -9 150 -15 55 -6 120
-13 145 -16 25 -2 65 -6 90 -9 25 -3 70 -7 100 -10 30 -3 73 -8 95 -10 159
-16 161 -16 183 2 16 14 22 34 27 93 3 41 8 93 10 115 9 85 15 146 30 300 8
88 17 180 20 205 3 25 7 74 10 110 3 36 7 83 10 105 2 22 7 72 10 110 3 39 8
82 11 96 4 27 -14 51 -41 55 -8 1 -90 5 -182 9 -92 3 -211 8 -263 10 -52 2
-160 7 -240 10 -80 3 -203 7 -275 10 -325 13 -389 15 -525 20 -80 3 -203 7
-275 10 -187 6 -469 16 -625 21 -199 7 -1235 16 -1240 11z"/>
<path d="M28528 22755 c-1 -2 -60 -6 -131 -10 -70 -3 -137 -8 -150 -11 -12 -3
-148 -7 -302 -9 -295 -4 -390 -10 -430 -25 -14 -5 -25 -8 -25 -6 0 14 -156
-47 -204 -79 -105 -69 -113 -97 -131 -455 -3 -69 -8 -152 -10 -185 -4 -69 -14
-246 -20 -355 -6 -129 -15 -292 -20 -365 -2 -38 -7 -126 -10 -195 -4 -69 -8
-150 -10 -180 -2 -30 -7 -107 -10 -170 -3 -63 -8 -144 -10 -180 -6 -80 -15
-237 -20 -348 -3 -76 -7 -137 -20 -332 -2 -36 -7 -112 -10 -170 -4 -58 -8
-130 -10 -160 -2 -30 -7 -102 -10 -160 -3 -58 -8 -130 -10 -160 -2 -30 -7
-102 -10 -160 -3 -58 -8 -134 -11 -171 -5 -66 -9 -120 -19 -289 -3 -52 -7
-120 -10 -150 -4 -52 -9 -126 -20 -305 -3 -44 -7 -109 -10 -145 -3 -36 -7
-101 -10 -145 -6 -94 -14 -210 -20 -280 -2 -27 -7 -93 -10 -145 -3 -52 -8
-120 -10 -150 -2 -30 -7 -93 -10 -140 -3 -47 -8 -110 -10 -140 -2 -30 -7 -93
-10 -140 -3 -47 -8 -116 -11 -155 -3 -38 -7 -97 -9 -130 -4 -68 -14 -195 -20
-270 -4 -53 -16 -227 -20 -285 -8 -117 -17 -250 -20 -280 -2 -19 -7 -82 -11
-140 -7 -115 -9 -135 -18 -260 -3 -47 -8 -114 -11 -150 -2 -36 -6 -92 -9 -125
-3 -33 -8 -98 -11 -145 -3 -47 -7 -110 -10 -140 -2 -30 -7 -91 -10 -135 -3
-44 -8 -107 -10 -140 -3 -33 -7 -91 -10 -130 -7 -108 -16 -236 -20 -275 -2
-19 -7 -82 -11 -140 -3 -58 -8 -121 -10 -140 -11 -107 -12 -403 -2 -432 32
-96 175 -178 493 -281 197 -64 420 -122 550 -143 17 -2 53 -8 82 -13 94 -14
381 -20 475 -8 72 8 116 27 150 63 31 33 64 103 72 154 3 19 8 46 11 60 12 55
24 128 30 185 12 120 15 151 20 195 3 25 8 65 10 90 4 43 11 104 20 180 8 71
16 136 20 179 2 24 7 60 9 80 3 20 8 65 11 101 3 36 7 76 10 90 2 14 7 52 10
85 3 33 8 71 10 85 2 14 7 57 10 95 3 39 7 86 10 105 6 45 13 110 20 180 3 30
7 71 10 90 2 19 7 58 10 85 3 28 12 111 20 185 8 74 17 158 20 185 3 28 8 66
10 85 3 19 8 62 11 95 3 33 7 71 9 85 2 14 7 56 10 93 4 37 8 78 10 89 3 12 7
58 11 102 3 45 8 84 10 87 1 3 6 37 9 75 3 38 8 80 10 94 3 14 7 57 10 95 3
39 8 81 10 95 3 14 7 52 10 85 3 33 8 71 10 85 2 14 7 54 10 90 4 36 8 79 10
95 3 17 7 59 11 95 3 36 8 73 10 83 2 10 6 53 9 95 4 42 8 84 10 92 2 8 7 47
10 85 4 39 8 77 10 85 2 8 7 44 10 80 3 36 8 81 10 100 3 19 7 60 10 90 3 30
10 89 15 130 5 41 12 100 15 130 3 30 8 71 10 90 2 19 7 60 10 90 3 30 8 71
10 90 2 19 7 60 10 90 9 86 15 139 25 220 5 41 12 102 15 135 3 33 10 96 15
140 5 44 12 109 15 145 3 36 8 76 10 90 4 23 12 96 21 199 2 24 6 60 8 80 3
20 8 61 11 91 3 30 8 71 10 90 2 19 7 69 10 110 4 41 8 82 10 90 2 8 6 49 10
90 3 41 8 86 10 100 2 14 7 57 10 95 3 39 8 81 10 95 2 14 6 52 9 85 9 88 16
155 21 195 2 19 7 67 10 105 3 39 10 104 15 145 5 41 12 104 15 140 3 36 8 81
10 100 7 59 22 210 30 295 3 33 7 76 10 95 7 61 15 133 20 195 3 33 8 76 10
95 2 19 7 64 10 100 3 36 8 81 10 100 7 63 15 134 20 200 3 36 8 76 10 90 2
14 6 59 10 100 3 41 8 82 10 90 10 42 19 190 19 310 -1 179 -16 232 -84 293
-27 24 -64 48 -82 52 -18 4 -40 9 -48 11 -54 13 -117 16 -382 19 -163 2 -298
2 -300 0z"/>
<path d="M14931 22687 l-24 -27 7 -322 c10 -486 8 -455 31 -478 22 -21 39 -24
250 -36 55 -3 129 -7 165 -9 36 -2 119 -7 185 -10 66 -3 143 -8 170 -10 28 -2
124 -7 215 -10 414 -14 518 -26 673 -77 167 -55 229 -112 268 -248 14 -51 16
-352 20 -3624 3 -2016 3 -2018 24 -2031 17 -11 85 -22 185 -30 37 -3 151 -16
180 -20 14 -2 50 -7 80 -10 30 -3 62 -8 70 -10 8 -2 35 -7 60 -10 25 -3 56 -8
70 -10 178 -32 194 -34 210 -19 16 16 15 -33 24 869 12 1115 25 1955 41 2725
3 118 7 343 10 500 3 157 8 357 10 445 2 88 7 293 10 455 9 420 12 457 42 600
32 149 86 239 167 275 94 43 176 54 340 49 83 -2 167 -6 186 -8 19 -2 71 -7
115 -10 44 -4 103 -9 130 -11 61 -6 156 -13 250 -20 39 -3 90 -7 115 -10 25
-2 83 -7 130 -10 115 -9 153 -13 230 -20 36 -3 94 -7 130 -10 36 -2 98 -7 138
-10 85 -8 118 -2 131 23 5 10 19 90 31 178 25 183 27 201 35 269 4 28 8 57 10
65 3 8 7 35 9 60 3 25 7 60 10 78 9 49 13 79 27 180 18 133 20 132 -206 147
-49 3 -117 8 -150 11 -33 2 -99 7 -148 9 -48 2 -115 7 -150 9 -34 3 -102 8
-152 11 -49 3 -128 7 -175 10 -47 3 -116 7 -155 10 -38 3 -99 7 -135 10 -36 3
-108 7 -160 10 -52 3 -122 7 -155 10 -33 2 -109 7 -168 10 -59 3 -127 8 -150
10 -23 2 -100 7 -172 10 -71 4 -148 8 -170 10 -22 2 -94 7 -160 10 -66 4 -147
8 -180 10 -132 8 -472 20 -860 30 -137 4 -297 9 -355 10 -58 2 -382 7 -720 10
l-615 8 -24 -26z"/>
<path d="M8910 22619 c-58 -10 -118 -21 -135 -24 -16 -2 -41 -7 -55 -10 -13
-2 -42 -7 -64 -11 -22 -3 -43 -7 -46 -9 -3 -1 -32 -6 -65 -10 -33 -3 -81 -11
-107 -15 -26 -5 -69 -12 -95 -15 -26 -3 -70 -10 -98 -15 -51 -9 -80 -14 -172
-26 -29 -3 -58 -13 -65 -21 -9 -11 -12 -292 -14 -1191 -2 -647 -5 -1298 -8
-1447 -4 -266 -14 -937 -22 -1575 -2 -179 -7 -833 -11 -1453 l-6 -1128 22 -23
c13 -14 40 -26 64 -30 23 -4 52 -9 64 -11 12 -1 34 -6 50 -9 15 -4 39 -8 53
-11 142 -25 261 -45 287 -49 17 -2 35 -6 40 -9 4 -2 32 -8 61 -11 30 -3 73
-10 95 -15 23 -5 60 -12 82 -15 22 -3 52 -9 66 -11 17 -4 30 0 39 10 15 18 16
27 25 360 3 138 8 302 10 365 2 63 7 201 10 305 3 105 8 242 10 305 2 63 7
194 10 290 3 96 8 234 10 305 3 72 7 200 10 285 3 85 7 214 10 285 2 72 7 209
10 305 3 96 8 229 10 295 2 66 7 199 10 295 3 96 8 222 10 280 2 58 7 204 10
325 4 121 8 261 10 310 2 50 7 207 11 350 3 143 8 325 10 405 2 80 7 574 10
1098 7 909 6 953 -11 972 -10 11 -21 20 -24 19 -3 -1 -53 -10 -111 -20z"/>
<path d="M3296 22573 c-1 -1 -89 -4 -196 -7 -604 -18 -595 -17 -623 -45 -43
-43 -52 -469 -52 -2506 0 -1684 10 -2732 30 -3090 2 -44 7 -134 10 -200 6
-135 13 -243 20 -295 2 -19 7 -64 10 -99 13 -122 54 -246 114 -337 74 -115
241 -245 349 -272 49 -12 515 -5 807 13 33 2 125 6 205 10 80 3 177 8 215 10
39 2 142 6 230 10 88 3 205 7 260 10 55 2 183 7 285 10 102 3 232 8 290 10 98
4 217 8 570 20 306 10 450 15 585 20 77 3 208 7 290 10 672 23 697 24 723 41
l22 14 0 484 c0 464 -1 484 -19 500 -15 14 -30 16 -63 12 -24 -3 -70 -8 -103
-11 -33 -3 -76 -8 -95 -11 -39 -5 -80 -9 -190 -19 -41 -3 -88 -8 -105 -9 -16
-2 -68 -6 -115 -10 -47 -4 -105 -9 -130 -11 -88 -9 -166 -15 -250 -20 -47 -3
-110 -7 -140 -10 -56 -4 -161 -11 -305 -20 -44 -3 -116 -7 -160 -10 -44 -3
-136 -7 -205 -10 -69 -3 -163 -7 -210 -10 -47 -2 -157 -7 -245 -10 -88 -3
-207 -7 -265 -10 -358 -16 -1040 -23 -1090 -12 -107 24 -193 87 -225 163 -23
56 -49 194 -60 319 -12 143 -14 173 -21 290 -3 66 -7 140 -9 165 -13 213 -19
623 -19 1275 0 673 3 904 19 1505 6 211 22 671 30 850 3 58 7 157 10 220 5
122 13 277 20 400 2 41 7 125 10 185 4 61 8 137 10 170 18 282 18 279 -5 300
-19 17 -37 20 -117 20 -52 0 -95 -1 -97 -2z"/>
<path d="M15560 14287 c-3 -3 -86 -8 -185 -11 -99 -3 -191 -8 -205 -10 -14 -3
-52 -7 -85 -11 -120 -13 -177 -37 -252 -107 -80 -76 -120 -175 -138 -343 -4
-33 -9 -71 -11 -85 -2 -14 -6 -56 -9 -95 -3 -38 -7 -88 -10 -110 -2 -22 -7
-76 -10 -120 -3 -44 -8 -105 -11 -135 -3 -30 -8 -75 -10 -100 -7 -90 -25 -276
-29 -315 -2 -22 -7 -67 -10 -100 -3 -33 -8 -85 -11 -115 -3 -30 -8 -184 -11
-341 -5 -268 -3 -329 23 -483 16 -99 142 -250 259 -313 131 -69 305 -95 605
-88 113 2 216 6 230 9 23 4 127 14 225 21 22 2 78 6 125 9 47 4 130 9 185 11
55 3 136 7 180 10 44 2 125 7 180 10 55 4 116 8 135 10 92 11 277 20 386 18
171 -2 266 -22 331 -69 54 -41 63 -87 68 -379 3 -212 -2 -293 -26 -400 -32
-140 -79 -316 -98 -365 -24 -63 -99 -194 -130 -227 -41 -43 -118 -56 -326 -57
-104 -1 -221 3 -260 7 -111 13 -271 36 -286 41 -8 3 -36 7 -64 10 -27 3 -61 8
-75 10 -62 11 -168 27 -195 31 -16 2 -46 6 -65 10 -19 4 -46 8 -60 10 -14 2
-83 13 -155 25 -71 11 -146 23 -165 26 -19 3 -73 12 -120 20 -113 20 -244 41
-300 49 -25 3 -56 8 -70 10 -14 2 -56 9 -93 15 -37 6 -106 13 -152 15 -79 4
-86 3 -115 -21 -17 -15 -37 -38 -45 -53 -25 -49 -96 -267 -110 -339 -1 -9 -9
-45 -15 -80 -12 -59 -11 -65 6 -82 17 -17 82 -35 196 -55 18 -4 80 -15 138
-27 58 -11 115 -22 128 -24 12 -2 34 -6 50 -9 15 -3 50 -10 77 -15 28 -5 86
-16 130 -24 44 -8 94 -18 110 -21 17 -3 41 -7 55 -10 107 -20 371 -66 395 -70
17 -2 111 -17 210 -34 99 -16 200 -32 225 -36 25 -3 59 -8 75 -11 36 -6 75
-12 130 -19 22 -3 56 -7 75 -10 19 -3 55 -7 80 -10 25 -3 61 -7 80 -10 19 -2
60 -7 90 -10 30 -3 73 -8 95 -11 122 -16 394 -29 590 -29 l190 0 61 37 c67 41
152 126 179 178 52 101 84 259 102 515 24 326 -7 1360 -53 1744 -7 62 -35 111
-93 163 -63 57 -129 76 -369 103 -26 3 -58 8 -72 10 -32 5 -146 14 -275 21
-123 7 -458 12 -1100 15 -486 3 -580 7 -663 30 -111 30 -152 176 -147 524 2
116 5 221 8 235 3 14 8 48 11 75 25 210 89 392 158 450 38 32 175 99 233 114
22 6 69 18 105 28 54 14 111 17 330 17 262 1 332 -3 525 -29 32 -5 77 -10 165
-20 47 -5 112 -14 230 -30 14 -2 52 -6 85 -10 112 -12 130 -14 215 -24 47 -6
112 -13 145 -16 33 -3 76 -8 95 -10 19 -2 67 -7 105 -11 39 -4 81 -8 95 -9 14
-2 54 -6 90 -10 36 -4 78 -8 93 -10 38 -4 54 24 62 110 3 39 8 86 10 105 5 49
14 145 20 210 3 30 7 73 10 95 3 22 7 63 9 90 3 28 8 85 12 128 6 72 5 80 -16
102 -16 18 -32 23 -64 23 -43 -1 -328 10 -476 17 -47 2 -166 7 -265 10 -99 4
-218 8 -265 10 -47 2 -182 6 -300 10 -118 4 -255 9 -305 10 -205 7 -831 15
-835 12z"/>
<path d="M14205 14184 c-38 -7 -88 -16 -110 -19 -22 -3 -47 -8 -55 -10 -8 -2
-35 -7 -60 -10 -97 -13 -116 -16 -130 -20 -8 -3 -33 -7 -55 -10 -22 -3 -51 -7
-64 -10 -13 -2 -49 -7 -80 -11 -31 -3 -62 -12 -70 -19 -11 -11 -14 -182 -17
-991 -2 -539 -6 -1073 -8 -1189 -3 -115 -8 -763 -12 -1440 l-7 -1230 22 -19
c11 -10 42 -23 68 -27 27 -4 59 -10 73 -13 13 -3 40 -8 60 -11 20 -3 47 -8 60
-10 32 -7 48 -10 195 -35 66 -11 127 -23 136 -25 21 -7 43 20 45 54 7 109 14
288 19 466 3 116 8 262 10 325 3 63 7 189 10 280 3 91 7 224 10 295 3 72 7
204 10 295 3 91 7 224 10 295 2 72 7 211 10 310 3 99 8 218 10 265 2 47 7 191
10 320 4 129 8 273 10 320 14 345 26 1737 16 1820 -5 33 -27 71 -40 69 -3 0
-37 -7 -76 -15z"/>
<path d="M18267 14173 c-16 -18 -18 -43 -16 -254 1 -129 4 -253 6 -277 8 -69
28 -76 258 -87 199 -10 289 -14 385 -21 52 -3 152 -7 222 -9 171 -4 314 -30
403 -75 64 -32 72 -40 100 -94 l29 -60 2 -730 c2 -402 4 -1307 6 -2010 3
-1266 3 -1279 23 -1292 20 -12 44 -17 160 -29 80 -8 134 -15 165 -20 14 -2 43
-7 65 -10 23 -3 50 -7 61 -9 11 -2 45 -7 75 -11 72 -9 83 4 85 99 2 67 7 427
20 1306 11 812 18 1183 29 1640 3 107 7 310 10 450 10 433 11 447 45 553 28
87 49 115 105 142 80 39 198 49 355 31 19 -2 76 -7 125 -11 50 -4 108 -9 130
-11 22 -2 71 -6 110 -9 38 -3 88 -7 110 -9 22 -2 85 -7 140 -11 55 -4 116 -9
135 -11 19 -2 78 -6 132 -8 115 -6 122 -1 133 89 4 32 9 68 11 79 2 11 6 42 9
70 3 28 7 62 10 76 2 14 7 45 10 70 3 25 10 72 15 105 5 33 12 85 16 115 3 30
8 58 10 61 5 9 -29 36 -46 36 -17 0 -184 11 -270 18 -30 2 -102 7 -160 10 -58
4 -127 8 -155 10 -27 2 -95 7 -150 10 -55 4 -120 8 -145 10 -25 2 -97 7 -160
10 -63 3 -135 8 -160 10 -25 2 -97 6 -160 10 -63 3 -135 8 -158 10 -24 2 -103
6 -175 10 -73 3 -161 8 -197 10 -36 2 -153 7 -260 10 -107 4 -240 9 -295 11
-55 2 -343 6 -640 10 -532 7 -540 6 -558 -13z"/>
<path d="M24118 14174 c-2 -1 -104 -5 -228 -9 -124 -3 -250 -8 -280 -10 -30
-2 -120 -7 -200 -11 -80 -4 -161 -8 -180 -9 -19 -1 -87 -5 -150 -9 -240 -15
-322 -24 -415 -48 -199 -49 -419 -222 -455 -357 -26 -99 -30 -299 -16 -796 12
-425 15 -597 21 -1540 9 -1265 14 -1786 19 -1815 3 -14 7 -43 11 -65 29 -172
138 -313 273 -355 37 -12 83 -23 102 -26 19 -3 41 -7 48 -9 28 -10 243 -19
417 -19 374 1 1576 22 1650 29 158 15 235 17 235 5 0 -13 65 -11 365 15 98 8
102 9 123 28 11 10 26 15 34 12 21 -8 125 63 184 126 103 110 132 252 149 719
3 91 8 208 10 260 3 52 7 169 10 260 3 91 7 212 10 270 6 161 15 379 20 545 3
83 7 200 10 260 2 61 7 191 10 290 3 99 7 227 10 285 3 58 7 191 11 295 6 199
7 225 20 525 8 195 8 412 0 620 -7 186 -48 285 -161 388 -64 59 -125 89 -219
109 -105 22 -121 24 -246 30 -118 6 -1187 12 -1192 7z m117 -758 c33 -2 114
-7 180 -10 66 -4 140 -8 165 -11 25 -2 81 -7 125 -11 44 -3 98 -7 120 -9 69
-5 170 -17 176 -21 3 -2 21 -6 40 -9 61 -11 141 -58 176 -103 80 -105 92 -237
58 -642 -2 -25 -6 -83 -10 -130 -3 -47 -8 -110 -10 -140 -7 -86 -14 -177 -20
-275 -3 -49 -8 -106 -10 -125 -3 -19 -7 -78 -10 -130 -3 -52 -7 -115 -10 -140
-2 -25 -7 -85 -10 -135 -3 -49 -8 -110 -10 -135 -2 -25 -7 -85 -10 -135 -3
-49 -8 -105 -10 -123 -2 -18 -7 -76 -10 -130 -3 -53 -8 -117 -10 -142 -2 -25
-7 -83 -10 -130 -4 -47 -8 -105 -10 -130 -3 -25 -7 -81 -10 -125 -5 -76 -8
-109 -21 -227 -12 -119 -55 -235 -98 -271 -73 -61 -187 -90 -322 -82 -44 2
-155 7 -249 10 -93 3 -228 8 -300 10 -71 2 -222 7 -335 10 -316 9 -472 15
-505 19 -94 13 -125 18 -174 32 -78 22 -117 52 -150 114 -61 113 -62 131 -76
1080 -9 555 -21 1080 -31 1300 -2 52 -6 221 -9 376 -4 290 -1 325 39 401 36
71 164 147 281 168 51 9 195 12 540 9 259 -2 497 -5 530 -8z"/>
<path d="M10058 14145 c-2 -2 -61 -5 -132 -7 -120 -4 -130 -6 -148 -27 -10
-13 -19 -41 -19 -65 -1 -22 -3 -52 -5 -66 -25 -171 -24 -2954 1 -3725 7 -216
21 -458 30 -525 3 -19 7 -54 10 -78 6 -52 34 -127 69 -185 35 -61 140 -155
206 -186 50 -24 66 -26 180 -26 110 0 371 10 545 20 33 2 121 6 195 9 74 3
189 8 255 11 112 4 207 8 575 20 80 3 204 7 275 10 72 3 198 7 280 10 83 3
211 7 285 10 74 3 218 7 320 10 263 8 300 12 321 31 18 16 19 38 19 349 0 316
-1 333 -19 349 -15 13 -29 16 -58 12 -21 -3 -58 -8 -83 -11 -102 -10 -158 -16
-215 -20 -33 -3 -85 -7 -115 -10 -58 -5 -128 -11 -250 -20 -757 -58 -1858 -89
-1940 -56 -103 41 -137 103 -154 271 -33 322 -41 586 -41 1300 1 773 12 1253
49 2005 4 72 9 162 11 200 2 39 7 120 10 180 3 61 7 126 9 145 2 21 -3 42 -12
53 -15 16 -35 18 -234 16 -119 -1 -218 -3 -220 -4z"/>
<path d="M3080 14097 c-3 -3 -30 -7 -60 -11 -150 -16 -309 -55 -396 -97 -41
-19 -80 -49 -116 -88 -77 -83 -90 -133 -103 -402 -3 -68 -8 -153 -10 -189 -2
-36 -6 -146 -10 -245 -3 -99 -8 -218 -10 -265 -28 -630 -27 -2510 1 -2840 24
-289 157 -550 314 -619 94 -41 147 -43 700 -36 619 9 989 12 1778 16 656 4
620 -1 608 76 -3 21 -8 67 -11 103 -3 36 -8 85 -10 110 -2 25 -7 74 -10 110
-9 107 -15 172 -21 232 -3 32 -6 61 -6 65 0 5 -7 16 -15 25 -14 16 -31 17
-142 13 -69 -3 -142 -7 -161 -9 -19 -2 -75 -7 -125 -11 -49 -3 -101 -8 -115
-10 -14 -2 -68 -6 -121 -10 -53 -3 -105 -7 -115 -9 -10 -2 -62 -7 -115 -11
-53 -3 -110 -8 -125 -10 -109 -13 -278 -20 -524 -20 -276 0 -378 5 -505 25
-33 5 -78 12 -100 16 -215 33 -395 118 -441 207 -26 49 -27 70 -26 377 2 1144
28 2335 57 2655 6 62 32 87 113 112 79 25 445 23 797 -2 114 -8 210 -16 245
-20 19 -2 73 -7 120 -10 47 -4 100 -8 119 -10 18 -3 65 -7 105 -10 103 -9 166
-15 206 -20 19 -2 69 -7 110 -10 41 -3 86 -8 100 -10 24 -3 79 -9 185 -20 50
-6 156 -18 250 -30 114 -15 163 -14 178 3 16 17 23 79 32 247 3 50 7 124 10
165 3 41 7 121 10 176 6 126 3 130 -110 138 -44 3 -98 8 -120 11 -22 2 -71 7
-110 10 -38 4 -86 8 -105 10 -19 2 -73 6 -120 10 -47 3 -101 8 -120 10 -19 3
-66 7 -105 10 -110 8 -197 15 -235 20 -19 2 -75 7 -125 10 -49 4 -101 8 -115
10 -14 2 -70 7 -125 11 -55 3 -107 8 -115 9 -14 3 -80 7 -300 22 -97 6 -835
15 -840 10z"/>
<path d="M7644 14051 c-40 -24 -99 -97 -120 -147 -9 -21 -24 -70 -34 -109 -17
-66 -163 -564 -230 -780 -17 -55 -32 -107 -34 -115 -6 -24 -159 -528 -268
-880 -55 -179 -106 -345 -113 -370 -22 -78 -227 -717 -422 -1320 -53 -162
-152 -459 -220 -658 -116 -338 -123 -365 -108 -381 14 -17 42 -18 350 -18 296
-1 336 1 348 16 11 12 60 213 92 372 2 9 13 61 25 115 27 125 29 134 35 164
10 53 14 72 19 88 3 9 7 28 10 42 2 14 21 102 41 195 20 94 38 193 39 221 5
92 49 134 157 149 24 3 55 8 69 11 111 21 285 29 670 29 333 0 369 -2 414 -19
54 -21 71 -48 81 -132 9 -71 9 -71 60 -284 58 -241 50 -208 74 -320 11 -52 36
-167 56 -255 20 -88 49 -223 66 -300 22 -102 36 -145 51 -157 18 -16 49 -17
396 -12 208 3 398 6 424 7 89 4 90 -3 -49 332 -235 569 -425 1079 -823 2205
-454 1287 -667 1862 -762 2059 -65 136 -133 220 -203 252 -50 23 -53 23 -91 0z
m88 -1570 c18 -16 53 -64 77 -106 53 -92 174 -361 225 -500 20 -55 40 -107 43
-115 4 -8 7 -17 8 -20 0 -3 31 -95 67 -205 79 -236 87 -275 63 -298 -9 -9 -24
-17 -33 -18 -9 0 -26 -2 -37 -4 -11 -3 -47 -7 -80 -10 -33 -3 -69 -8 -80 -10
-49 -10 -256 -19 -425 -20 -251 0 -296 17 -307 116 -9 75 163 715 262 973 90
236 139 285 217 217z"/>
<path d="M27696 11373 c-1 -1 -105 -4 -231 -7 -254 -6 -581 -16 -691 -21 -39
-1 -96 -10 -125 -19 -132 -39 -229 -165 -244 -318 -10 -100 -15 -169 -20 -273
-3 -60 -7 -141 -10 -180 -3 -38 -7 -119 -10 -180 -3 -60 -8 -148 -10 -195 -7
-137 -17 -272 -21 -293 -5 -28 13 -151 32 -215 19 -67 77 -132 142 -160 26
-11 81 -23 122 -27 41 -4 77 -8 80 -10 3 -1 41 -6 85 -9 44 -4 91 -9 105 -11
14 -2 50 -6 80 -10 30 -3 89 -10 130 -15 41 -5 98 -12 125 -15 28 -3 66 -7 85
-9 19 -3 62 -7 95 -11 33 -3 87 -10 120 -15 89 -14 138 -12 265 11 100 19 119
25 148 53 47 44 79 118 92 211 7 44 13 89 15 100 12 82 16 103 19 122 3 12 7
43 11 70 4 26 8 59 11 72 2 14 6 52 9 85 3 34 8 77 10 96 3 19 7 64 10 100 3
36 8 76 10 90 2 14 7 54 11 90 3 36 8 76 9 90 2 14 6 54 10 90 4 36 8 76 10
90 13 91 20 195 20 330 0 147 -2 159 -25 204 -46 89 -53 91 -277 91 -107 0
-196 -1 -197 -2z"/>
<path d="M28535 9549 c-16 -5 -43 -12 -60 -14 -38 -5 -115 -33 -95 -34 8 -1
47 5 85 13 39 8 87 17 108 20 20 4 37 11 37 16 0 12 -35 11 -75 -1z"/>
<path d="M1173 9005 c-40 -9 -44 -12 -30 -23 11 -9 61 -14 164 -17 l148 -3
-40 20 c-65 32 -158 41 -242 23z"/>
<path d="M24380 8295 c0 -6 -15 -11 -33 -12 -40 -2 -112 -11 -112 -14 0 -1 -9
-3 -20 -4 -50 -7 -102 -15 -130 -20 -39 -7 -81 -13 -130 -20 -22 -3 -47 -9
-55 -12 -8 -3 -31 -6 -50 -8 -19 -1 -51 -5 -70 -9 -19 -4 -48 -9 -65 -11 -16
-2 -30 -4 -30 -5 0 -1 -16 -4 -35 -6 -58 -6 -95 -12 -95 -14 0 -1 -16 -3 -35
-5 -19 -2 -53 -6 -75 -10 -22 -4 -49 -8 -60 -10 -11 -1 -20 -3 -20 -5 0 -1
-18 -3 -40 -6 -89 -9 -121 -13 -145 -18 -14 -3 -37 -7 -52 -8 -16 -1 -28 -5
-28 -8 0 -3 -19 -6 -43 -6 -23 -1 -55 -4 -72 -8 -16 -3 -55 -9 -85 -12 -62 -7
-95 -12 -95 -14 0 -1 -16 -3 -35 -5 -19 -1 -49 -5 -66 -9 -17 -3 -56 -8 -86
-11 -66 -7 -95 -12 -108 -20 -6 -3 -10 -1 -10 5 0 6 -5 8 -12 3 -14 -8 -16 -8
-88 -18 -25 -3 -58 -7 -75 -10 -16 -2 -52 -7 -80 -10 -27 -3 -72 -8 -100 -11
-69 -8 -90 -11 -90 -14 0 -1 -25 -3 -55 -5 -30 -2 -56 -4 -57 -5 -2 -2 -6 -3
-10 -4 -5 -1 -13 -5 -20 -9 -6 -4 -14 -3 -18 3 -4 6 -10 8 -15 5 -5 -3 -29 -8
-52 -10 -24 -3 -65 -7 -93 -11 -27 -3 -63 -8 -80 -9 -16 -2 -52 -6 -80 -9
-111 -13 -246 -28 -275 -30 -14 -1 -29 -4 -35 -6 -5 -3 -31 -5 -57 -5 -27 0
-48 -2 -48 -5 0 -3 -15 -6 -32 -6 -30 -1 -118 -9 -223 -20 -22 -2 -62 -7 -90
-9 -27 -3 -75 -8 -105 -10 -30 -3 -69 -7 -87 -10 -36 -5 -182 -17 -230 -19
-18 0 -33 -3 -33 -6 0 -3 -24 -6 -53 -7 -46 -2 -101 -6 -242 -17 -22 -2 -40
-5 -40 -5 0 -1 -25 -4 -55 -6 -59 -4 -204 -14 -285 -21 -93 -7 -210 -16 -265
-19 -30 -2 -55 -4 -55 -5 0 -1 -27 -3 -60 -5 -33 -2 -98 -6 -145 -9 -47 -4
-123 -9 -170 -12 -47 -3 -106 -7 -131 -8 -26 -2 -51 -6 -57 -10 -6 -3 -13 -2
-17 4 -4 6 -11 7 -17 4 -10 -6 -100 -13 -203 -16 -27 0 -58 -5 -69 -10 -14 -7
-16 -7 -11 2 5 9 1 10 -16 5 -13 -4 -59 -9 -104 -10 -179 -6 -194 -8 -188 -19
5 -8 3 -8 -8 0 -8 6 -36 9 -64 7 -65 -4 -246 -12 -355 -16 -47 -2 -92 -7 -99
-12 -10 -6 -12 -4 -6 5 5 9 2 10 -13 5 -22 -6 -210 -15 -404 -18 -60 -1 -108
-6 -108 -12 0 -5 -5 -4 -12 3 -7 7 -17 8 -29 2 -12 -7 -20 -6 -24 0 -4 6 -11
7 -17 4 -5 -4 -67 -8 -137 -10 -69 -2 -220 -6 -336 -9 -115 -3 -226 -6 -246
-7 -19 -1 -40 2 -47 6 -7 4 -12 4 -12 -1 0 -10 -245 -13 -1240 -13 -976 0
-1260 3 -1260 12 0 4 -11 3 -24 -2 -13 -5 -27 -6 -30 -3 -3 3 -94 8 -203 10
-109 2 -245 5 -303 6 -58 1 -108 7 -112 12 -5 7 -8 7 -8 0 0 -9 -59 -10 -105
-1 -11 2 -26 -1 -32 -7 -7 -5 -13 -6 -13 -1 0 5 -35 10 -78 10 -84 2 -313 10
-517 19 -71 3 -176 7 -233 9 -56 2 -105 6 -109 9 -3 4 -12 2 -20 -4 -7 -6 -13
-8 -13 -3 0 5 -24 9 -53 10 -71 2 -446 19 -612 29 -49 3 -128 7 -175 10 -104
5 -238 13 -345 20 -44 3 -116 7 -160 10 -44 2 -80 5 -80 6 0 0 -22 2 -50 4
-27 2 -95 6 -150 9 -97 6 -128 9 -300 21 -44 4 -105 8 -135 10 -151 10 -221
15 -280 20 -36 3 -99 8 -140 11 -41 3 -97 7 -125 9 -27 2 -81 6 -120 9 -38 3
-70 5 -70 6 0 1 -22 3 -50 5 -27 2 -81 6 -120 10 -38 3 -92 8 -120 10 -27 2
-79 6 -115 9 -36 3 -95 8 -131 11 -36 3 -86 8 -110 11 -24 3 -53 6 -64 8 -11
1 -26 -3 -34 -8 -11 -8 -13 -8 -8 0 4 8 -9 12 -41 13 -26 1 -60 4 -77 6 -16 2
-64 7 -105 10 -128 11 -137 12 -149 19 -6 4 -11 2 -11 -4 0 -6 -5 -8 -11 -4
-6 3 -30 8 -52 10 -50 4 -118 11 -207 19 -36 4 -96 8 -135 10 -38 3 -70 5 -70
5 0 3 -46 10 -105 15 -36 3 -87 7 -115 10 -27 3 -76 6 -107 8 -32 1 -58 5 -58
8 0 4 -21 7 -47 7 -53 1 -124 10 -131 17 -3 3 -11 0 -19 -6 -7 -6 -13 -8 -13
-3 0 15 -77 16 -78 2 0 -7 -14 -62 -31 -123 -17 -60 -33 -119 -36 -130 -17
-75 -97 -364 -111 -402 -24 -62 -90 -126 -156 -151 -67 -26 -136 -24 -483 13
-54 6 -123 12 -225 21 -36 3 -78 7 -95 9 -16 2 -66 6 -110 10 -44 3 -93 8
-110 10 -16 2 -66 7 -110 10 -44 4 -91 8 -105 11 -14 2 -61 6 -104 9 -44 3
-91 7 -105 9 -14 3 -57 7 -96 11 -122 10 -199 17 -230 21 -16 2 -86 6 -155 9
-69 3 -165 8 -215 11 -49 3 -112 7 -140 9 -27 1 -68 5 -90 9 -22 4 -68 8 -102
10 -34 3 -70 7 -80 10 -10 2 -47 7 -82 11 -35 3 -67 8 -71 10 -23 14 -191 36
-305 40 -55 2 -118 6 -140 10 -22 3 -58 8 -80 11 -36 3 -148 22 -245 39 -19 3
-75 10 -124 15 -49 5 -115 14 -146 20 -108 20 -160 21 -160 5 0 -20 1 -15 -37
-155 -19 -69 -36 -134 -38 -145 -3 -11 -9 -31 -14 -45 -5 -14 -16 -50 -25 -80
-29 -108 -55 -205 -60 -230 -3 -14 -18 -73 -34 -132 l-28 -107 45 -10 c25 -6
105 -23 176 -37 140 -28 392 -80 680 -139 99 -20 190 -39 202 -41 12 -2 118
-24 235 -48 117 -25 227 -47 243 -49 17 -3 37 -8 45 -11 8 -3 29 -8 45 -10 17
-2 131 -25 255 -50 124 -26 239 -49 255 -52 17 -3 46 -9 65 -14 19 -5 53 -12
75 -16 22 -3 67 -12 100 -19 33 -8 76 -17 95 -20 19 -3 42 -8 50 -10 8 -2 51
-7 95 -10 127 -9 185 -14 255 -20 36 -3 101 -7 145 -10 44 -3 107 -7 140 -10
109 -9 219 -17 266 -19 25 -2 51 -6 57 -10 7 -4 12 -4 12 -1 0 3 26 -8 57 -25
63 -34 113 -91 133 -154 11 -36 10 -127 -4 -181 -2 -11 -30 -119 -61 -240 -31
-121 -58 -227 -60 -235 -1 -8 -10 -43 -19 -76 -19 -74 -20 -90 -3 -91 31 -2
164 -16 182 -20 11 -2 43 -6 70 -8 28 -3 66 -7 85 -10 62 -10 144 -18 197 -19
29 0 53 -4 53 -8 0 -4 8 -6 18 -6 15 1 50 -3 187 -18 22 -2 63 -6 90 -9 83 -7
148 -14 195 -20 76 -10 133 -15 192 -18 32 -1 58 -4 58 -7 0 -3 17 -6 37 -7
21 -1 72 -5 113 -9 41 -4 89 -8 105 -9 17 -2 30 -4 30 -5 0 -1 23 -3 50 -5 28
-2 77 -6 110 -9 33 -4 85 -9 115 -12 30 -3 78 -7 105 -10 28 -3 73 -7 100 -9
28 -2 50 -4 50 -5 0 -1 16 -3 35 -5 19 -2 64 -6 100 -9 36 -3 90 -8 120 -11
30 -3 78 -8 105 -10 28 -3 77 -7 110 -10 33 -3 80 -7 105 -10 25 -2 45 -4 45
-5 0 -2 148 -12 202 -13 29 -1 53 -4 53 -7 0 -3 12 -5 28 -6 15 0 70 -4 122
-9 52 -4 116 -9 142 -9 27 -1 48 -3 48 -6 0 -3 29 -5 65 -5 36 0 65 -3 65 -6
0 -3 15 -6 33 -7 33 -1 143 -8 252 -17 33 -3 89 -7 125 -10 36 -3 97 -8 135
-11 39 -3 103 -7 142 -7 40 -1 73 -4 73 -7 0 -3 26 -7 58 -8 31 0 93 -4 137
-7 170 -12 213 -14 292 -19 45 -2 86 -7 92 -10 5 -4 12 -2 16 4 4 6 12 7 18 3
7 -4 32 -8 57 -10 166 -8 210 -12 219 -17 6 -4 11 -2 11 4 0 6 5 8 12 4 13 -8
124 -16 255 -18 40 0 73 -4 73 -7 0 -3 34 -5 75 -5 41 1 75 -1 75 -4 0 -3 42
-5 93 -5 50 0 96 -2 102 -4 5 -3 39 -6 75 -7 85 -4 261 -12 380 -19 52 -2 141
-7 197 -9 57 -3 107 -8 113 -11 5 -3 10 -1 10 5 0 6 4 9 9 5 17 -10 71 -13 77
-4 3 5 11 6 17 2 14 -8 35 -10 269 -17 92 -2 172 -7 177 -10 5 -4 12 -2 16 4
4 6 11 7 17 4 12 -7 226 -14 535 -17 101 -1 183 -6 183 -10 0 -4 8 -3 19 2 10
6 21 7 25 4 6 -6 105 -8 748 -17 174 -2 321 -7 327 -10 6 -4 11 -4 11 1 0 4
66 7 147 6 335 -5 573 -4 583 2 5 3 10 2 10 -4 0 -6 11 -6 29 -1 17 5 33 4 39
-2 6 -6 12 -6 16 0 4 7 17 7 36 2 18 -5 32 -5 36 1 4 6 10 6 18 0 7 -6 15 -9
18 -6 3 3 203 8 444 11 608 8 604 8 604 19 0 7 3 7 8 0 7 -10 82 -16 82 -6 0
3 48 7 108 7 118 2 417 12 417 14 0 2 259 12 342 14 35 0 63 3 63 6 0 3 37 6
83 6 45 1 134 4 197 8 63 3 156 8 205 11 50 3 124 7 165 10 41 3 114 7 161 10
47 2 117 7 155 9 104 9 267 18 287 18 10 -1 15 4 11 10 -4 7 -1 7 12 0 23 -12
34 -13 56 -1 10 6 19 5 23 -1 4 -6 12 -7 18 -3 7 4 30 8 52 10 22 1 76 4 120
7 44 3 80 5 80 6 0 1 34 3 75 6 148 10 185 12 185 14 0 1 29 3 65 5 84 5 185
12 285 21 44 4 101 7 128 8 26 0 47 3 47 6 0 3 21 6 48 7 26 0 79 4 117 7 39
3 110 8 160 11 54 3 92 10 97 18 6 9 8 9 8 0 0 -7 9 -10 23 -7 27 6 157 16
214 18 24 1 43 3 43 6 0 3 19 6 43 6 23 1 71 4 107 8 36 3 90 8 120 11 30 3
73 7 95 10 83 9 191 18 213 19 12 0 22 2 22 6 0 3 19 5 43 6 39 1 123 8 222
20 22 3 60 7 85 9 25 2 59 6 75 9 17 3 62 8 100 11 39 3 86 8 105 10 95 13
119 16 165 20 58 5 134 14 190 22 22 3 54 7 70 8 17 2 30 3 30 4 0 1 20 3 45
5 63 5 160 17 190 22 14 3 43 7 65 8 35 3 74 7 180 21 17 2 30 4 30 5 0 1 62
8 125 15 19 1 35 4 35 5 0 2 37 6 103 11 23 1 42 5 42 8 0 4 19 7 43 8 23 0
58 3 77 6 60 9 124 18 160 23 19 2 55 7 80 10 25 3 55 7 68 7 12 1 22 3 22 7
0 3 15 5 33 6 28 0 79 6 167 20 14 2 46 6 72 8 26 2 51 7 55 9 4 3 40 8 78 12
39 4 88 10 111 14 22 4 48 7 57 5 9 -1 17 1 17 5 0 4 8 7 18 8 40 2 136 15
222 29 19 3 49 7 65 9 17 3 48 7 70 10 22 3 51 7 65 10 14 3 45 8 70 11 53 7
65 16 55 41 -4 10 -9 25 -11 34 -2 9 -31 126 -64 260 -34 134 -63 253 -65 264
-3 11 -9 38 -14 60 -49 197 -51 214 -36 275 15 57 29 84 68 126 27 30 97 72
129 78 7 1 22 5 33 9 11 3 31 8 45 11 24 4 140 32 345 81 55 13 168 41 250 60
83 20 160 39 173 41 20 4 203 48 433 103 112 27 629 150 654 156 11 2 67 16
125 30 58 14 143 34 190 45 89 21 184 43 440 105 207 49 260 62 570 134 280
65 315 76 305 90 -3 5 -7 49 -10 98 -3 48 -7 106 -9 128 -2 22 -7 81 -11 130
-3 50 -8 110 -10 135 -2 25 -5 66 -6 92 -1 31 -6 45 -13 41 -8 -5 -7 -2 0 8 6
8 10 23 7 34 -2 11 -6 49 -8 85 -5 64 -12 149 -14 161 -1 4 -21 3 -46 -2 -25
-5 -67 -11 -93 -15 -26 -3 -65 -9 -87 -14 -22 -5 -64 -11 -94 -15 -30 -4 -63
-9 -75 -11 -33 -6 -256 -42 -306 -49 -25 -3 -52 -8 -60 -10 -8 -3 -31 -7 -50
-9 -19 -2 -93 -14 -165 -26 -71 -11 -146 -23 -165 -26 -19 -3 -57 -9 -85 -14
-27 -5 -99 -16 -159 -25 -59 -9 -116 -18 -125 -19 -37 -7 -88 -16 -116 -20
-130 -21 -236 -38 -265 -42 -19 -3 -57 -9 -85 -14 -27 -5 -70 -12 -95 -15 -25
-3 -52 -8 -60 -10 -8 -2 -35 -7 -60 -10 -25 -3 -56 -8 -70 -10 -14 -2 -41 -6
-60 -9 -19 -3 -102 -16 -185 -30 -136 -23 -203 -33 -260 -41 -27 -4 -153 -25
-185 -30 -14 -3 -113 -18 -220 -35 -107 -17 -202 -33 -210 -35 -8 -2 -37 -6
-65 -10 -62 -7 -105 -14 -125 -20 -8 -2 -37 -7 -65 -11 -27 -3 -59 -8 -70 -10
-11 -2 -49 -9 -85 -14 -36 -5 -89 -14 -119 -19 -119 -19 -216 6 -280 72 -61
61 -73 104 -106 362 -3 28 -8 65 -11 83 -2 17 -6 47 -8 65 -3 17 -8 55 -11 82
-12 100 -16 120 -25 129 -6 6 -10 6 -10 1z"/>
<path d="M25760 5309 c0 -5 9 -9 20 -9 11 0 20 2 20 4 0 2 -9 6 -20 9 -11 3
-20 1 -20 -4z"/>
<path d="M4820 5186 c0 -2 13 -6 29 -8 17 -2 28 -1 25 4 -5 8 -54 12 -54 4z"/>
</g>
</svg>
