<?xml version="1.0" standalone="no"?>
<!DOCTYPE svg PUBLIC "-//W3C//DTD SVG 20010904//EN"
 "http://www.w3.org/TR/2001/REC-SVG-20010904/DTD/svg10.dtd">
<svg version="1.0" xmlns="http://www.w3.org/2000/svg"
 width="3131.000000pt" height="3131.000000pt" viewBox="0 0 3131.000000 3131.000000"
 preserveAspectRatio="xMidYMid meet">
<metadata>
Created by potrace 1.11, written by Peter Selinger 2001-2013
</metadata>
<g transform="translate(0.000000,3131.000000) scale(0.100000,-0.100000)"
fill="#000000" stroke="none">
<path d="M24135 25796 c-25 -24 -45 -48 -45 -54 0 -5 -8 -27 -17 -48 -9 -22
-17 -41 -18 -44 -1 -3 -6 -23 -13 -44 -6 -22 -9 -43 -6 -48 3 -4 1 -8 -4 -8
-5 0 -9 -6 -9 -12 0 -7 -10 -62 -22 -123 -12 -60 -24 -126 -27 -145 -3 -19 -8
-48 -11 -65 -8 -39 -14 -90 -16 -137 -1 -21 -4 -38 -7 -38 -3 0 -7 -17 -9 -37
-7 -87 -10 -118 -12 -118 0 0 -3 -25 -4 -55 -2 -30 -4 -55 -5 -55 -1 0 -3 -25
-5 -55 -13 -207 -16 -284 -19 -432 -2 -91 -7 -171 -10 -177 -4 -6 -2 -11 5
-11 8 0 8 -4 -1 -15 -7 -8 -9 -15 -4 -15 7 0 10 -83 4 -100 -1 -3 -1 -9 0 -15
1 -5 4 -158 7 -340 5 -413 7 -462 16 -471 3 -4 2 -15 -4 -26 -5 -10 -8 -22 -5
-27 3 -4 7 -83 10 -174 4 -151 3 -167 -12 -168 -9 -1 -44 -3 -77 -4 -271 -13
-380 -18 -570 -30 -86 -6 -131 -8 -310 -20 -44 -3 -118 -7 -165 -10 -47 -3
-119 -8 -160 -11 l-75 -5 -13 38 c-8 21 -14 46 -15 56 -1 9 -5 17 -9 17 -4 0
-8 11 -8 24 0 14 -6 31 -13 38 -8 7 -13 21 -11 31 1 9 -2 17 -7 17 -6 0 -8 4
-4 9 3 5 1 12 -5 16 -6 4 -8 11 -4 16 3 5 2 15 -4 22 -5 7 -29 71 -53 142 -24
72 -47 132 -51 133 -5 2 -6 8 -3 12 3 5 -1 26 -9 47 -8 21 -17 47 -22 58 -4
11 -9 28 -11 38 -1 10 -10 31 -18 47 -9 17 -16 33 -16 37 0 19 -13 59 -21 70
-5 7 -7 17 -3 23 3 5 1 10 -5 10 -6 0 -9 4 -5 9 3 5 1 12 -5 16 -6 4 -8 10 -5
15 3 5 1 11 -5 15 -6 4 -8 11 -5 16 4 5 1 9 -5 9 -7 0 -10 7 -6 15 3 8 2 15
-2 15 -4 0 -8 9 -9 20 -1 10 -8 34 -17 52 -8 18 -21 53 -29 78 -9 25 -21 59
-28 75 -6 17 -14 39 -16 49 -2 11 -8 25 -14 33 -6 7 -9 13 -6 13 3 0 0 12 -8
27 -8 15 -12 30 -10 34 3 4 -2 12 -10 19 -8 7 -15 22 -15 34 0 11 -7 30 -15
40 -8 10 -12 23 -9 27 3 5 0 9 -6 9 -6 0 -8 5 -5 10 3 6 1 10 -5 10 -6 0 -10
6 -9 13 2 6 -8 35 -21 62 -55 119 -70 154 -70 164 0 6 -4 11 -10 11 -5 0 -10
6 -10 13 0 15 -42 100 -53 108 -5 3 -8 10 -8 15 1 13 -11 48 -18 54 -8 6 -41
78 -40 86 0 4 -3 10 -8 13 -4 3 -19 26 -32 51 -13 25 -38 65 -56 90 -17 25
-30 53 -27 63 2 9 0 17 -4 17 -18 0 -73 -52 -82 -79 -11 -31 -10 -273 2 -346
3 -22 9 -60 11 -85 6 -43 9 -67 20 -147 3 -21 7 -51 9 -68 2 -16 7 -43 11 -60
3 -16 8 -43 11 -60 3 -16 12 -64 20 -105 9 -41 18 -85 20 -97 2 -12 9 -34 14
-48 5 -14 7 -25 5 -25 -2 0 0 -12 6 -27 6 -16 12 -35 14 -43 2 -8 11 -44 20
-80 9 -36 18 -73 20 -82 2 -9 8 -26 14 -37 6 -11 10 -24 9 -28 -2 -4 2 -21 8
-38 30 -83 38 -108 48 -154 3 -11 10 -29 16 -40 6 -12 8 -21 4 -21 -3 0 -1 -6
5 -13 6 -8 8 -17 4 -21 -4 -4 -2 -10 4 -14 6 -4 14 -19 16 -32 2 -14 7 -33 11
-42 4 -9 9 -22 10 -30 2 -7 8 -24 13 -38 6 -14 9 -28 6 -32 -2 -5 1 -8 6 -8 6
0 10 -3 9 -7 -3 -10 42 -154 52 -168 4 -5 13 -31 20 -58 7 -26 17 -50 21 -53
5 -3 9 -15 9 -28 0 -12 3 -26 8 -30 4 -4 7 -11 8 -14 0 -4 4 -14 7 -22 18 -44
50 -138 54 -160 4 -21 -1 -28 -28 -39 -18 -8 -83 -63 -144 -122 -139 -135
-161 -175 -186 -344 -15 -102 -17 -171 -13 -460 2 -187 6 -398 8 -470 5 -157
17 -646 21 -915 2 -107 6 -726 10 -1375 11 -2115 13 -2370 19 -2405 2 -19 7
-62 11 -95 18 -178 91 -351 191 -452 121 -120 273 -167 614 -190 132 -9 549
-9 1025 0 182 4 537 9 790 12 1270 14 1670 21 1744 31 52 7 170 45 211 69 19
11 57 31 84 45 58 30 166 127 206 185 49 71 101 224 115 336 3 24 8 55 10 69
6 37 15 134 20 230 5 95 15 326 30 720 3 80 7 192 10 250 3 58 7 177 10 265 3
88 7 205 10 260 2 55 7 181 11 280 3 99 7 218 9 265 2 47 6 168 9 270 4 102 8
235 11 295 3 61 7 182 10 270 3 88 8 214 10 280 8 194 17 466 30 870 3 94 8
213 10 265 26 565 26 1141 0 1265 -13 61 -55 168 -87 223 -46 77 -162 191
-233 229 -66 34 -169 68 -237 78 -23 3 -68 10 -99 16 -31 5 -85 11 -120 13
-35 1 -63 6 -61 9 2 7 3 9 6 25 1 4 17 38 34 76 18 38 32 73 32 77 0 5 4 9 10
9 5 0 9 3 9 8 -1 4 0 10 1 15 1 4 3 10 4 15 1 4 17 39 35 77 18 39 34 75 35
80 2 6 18 42 36 80 76 161 97 210 98 229 0 5 4 12 9 15 4 3 23 42 42 86 18 44
43 100 55 125 11 25 21 50 22 55 1 6 9 27 18 47 9 21 15 39 14 40 -1 2 5 17
14 33 16 29 28 58 34 80 1 6 21 66 44 134 23 68 43 129 44 135 1 6 10 38 20
71 10 33 19 67 21 75 2 8 8 27 14 43 6 15 8 27 5 27 -2 0 0 8 5 18 5 9 11 31
14 47 3 17 11 53 18 80 14 57 20 205 8 205 -14 0 -109 -67 -103 -73 3 -3 -4
-8 -15 -12 -12 -3 -21 -10 -21 -15 0 -5 -13 -25 -30 -43 -16 -19 -30 -38 -30
-42 0 -3 -6 -12 -12 -19 -14 -14 -25 -30 -61 -85 -12 -19 -30 -46 -39 -60 -10
-14 -25 -39 -34 -56 -9 -16 -20 -32 -23 -35 -11 -9 -42 -60 -36 -60 3 0 -3
-10 -15 -22 -11 -12 -20 -28 -20 -35 0 -7 -5 -13 -11 -13 -6 0 -9 -7 -5 -15 3
-9 0 -15 -9 -15 -8 0 -15 -5 -15 -11 0 -6 -18 -41 -39 -78 -52 -88 -151 -286
-151 -300 0 -6 -3 -11 -8 -11 -4 0 -13 -15 -21 -32 -8 -18 -29 -63 -47 -100
-18 -38 -30 -68 -28 -68 2 0 -3 -11 -12 -25 -9 -14 -12 -25 -8 -25 5 0 4 -4
-2 -8 -13 -9 -77 -147 -77 -167 0 -8 -4 -15 -8 -15 -6 0 -20 -29 -34 -70 -1
-3 -13 -31 -28 -64 -15 -32 -27 -60 -27 -62 0 -2 -15 -37 -33 -76 -18 -40 -53
-120 -77 -178 -24 -58 -45 -106 -46 -108 -1 -2 -310 -4 -688 -5 -546 -2 -685
1 -681 11 2 6 -1 12 -7 12 -7 0 -7 4 1 14 8 10 9 16 1 21 -6 4 -7 13 -1 23 5
9 5 26 1 37 -4 11 -3 28 2 38 5 9 5 17 1 17 -4 0 -9 116 -10 258 -5 769 -27
1464 -58 1817 -4 39 -8 90 -10 115 -2 25 -6 68 -9 95 -3 28 -8 73 -11 100 -2
28 -7 68 -10 90 -3 22 -7 60 -9 85 -8 86 -18 155 -32 229 -12 66 -12 78 1 98
23 35 9 28 -40 -21z m-165 -4094 c0 -5 21 -8 48 -7 26 1 55 -3 66 -8 10 -5 16
-5 13 0 -3 4 45 9 106 10 62 1 128 3 147 4 39 2 313 -9 430 -16 41 -3 104 -7
140 -9 145 -9 286 -19 300 -22 8 -1 21 -3 28 -3 6 -1 12 -8 12 -16 0 -14 21
-18 93 -18 9 0 17 -2 17 -6 0 -3 18 -7 40 -8 22 -2 52 -5 68 -9 70 -15 102
-15 102 0 0 8 8 17 18 20 25 8 197 -40 254 -71 121 -66 200 -222 216 -427 8
-109 6 -156 -13 -371 -2 -22 -7 -87 -10 -145 -4 -58 -8 -121 -10 -140 -2 -19
-6 -75 -10 -125 -3 -49 -8 -110 -10 -135 -2 -25 -7 -85 -10 -135 -3 -49 -8
-110 -10 -135 -2 -25 -7 -83 -10 -130 -3 -47 -8 -110 -10 -140 -2 -30 -7 -93
-10 -140 -10 -141 -14 -202 -20 -270 -3 -36 -7 -92 -10 -125 -4 -56 -13 -172
-20 -275 -10 -140 -16 -220 -20 -260 -2 -25 -7 -83 -10 -130 -3 -47 -8 -110
-10 -140 -2 -30 -7 -91 -10 -135 -4 -44 -8 -100 -10 -125 -2 -25 -6 -83 -10
-130 -3 -47 -8 -101 -10 -120 -2 -19 -7 -78 -10 -130 -4 -52 -8 -111 -10 -130
-2 -19 -6 -73 -10 -120 -24 -335 -76 -499 -181 -570 -50 -35 -139 -78 -181
-88 -34 -8 -301 -7 -543 2 -96 4 -238 9 -315 11 -77 3 -203 7 -280 10 -205 7
-460 15 -699 21 -419 10 -581 34 -704 105 -111 63 -178 231 -187 469 -4 96
-15 598 -20 975 -8 527 -23 1271 -30 1510 -13 448 -20 633 -31 885 -24 514 -5
645 108 759 99 99 242 168 383 183 68 7 845 7 845 0z"/>
<path d="M24259 20886 c-2 -2 -26 -6 -54 -9 -90 -10 -130 -18 -139 -27 -6 -6
-16 -10 -23 -10 -37 0 -233 -116 -303 -180 -19 -17 -46 -42 -60 -54 -63 -55
-220 -249 -220 -272 0 -3 -11 -20 -24 -37 -14 -18 -26 -36 -27 -42 -2 -5 -22
-52 -46 -102 -24 -51 -43 -98 -43 -103 0 -6 -5 -21 -12 -33 -7 -12 -13 -26
-14 -32 -2 -5 -12 -41 -23 -80 -32 -109 -67 -276 -66 -318 0 -20 -2 -37 -5
-37 -8 0 -14 -114 -12 -245 1 -105 7 -190 12 -190 1 0 3 -9 4 -20 11 -83 18
-119 26 -140 5 -14 6 -25 3 -25 -4 0 -2 -5 5 -12 7 -7 12 -22 12 -34 0 -12 7
-34 14 -50 8 -15 13 -31 10 -36 -3 -4 0 -8 5 -8 6 0 11 -6 11 -14 0 -16 62
-140 73 -144 4 -2 7 -9 7 -16 0 -11 9 -25 50 -73 5 -7 10 -17 10 -23 0 -5 5
-10 10 -10 6 0 15 -10 21 -22 6 -13 25 -34 44 -48 18 -14 31 -28 28 -32 -2 -5
0 -8 6 -8 6 0 26 -13 44 -30 19 -16 39 -30 45 -30 5 0 15 -7 22 -15 22 -26
200 -104 200 -87 0 4 4 2 8 -5 8 -12 80 -26 145 -27 20 -1 37 -4 37 -8 0 -4 6
-6 13 -3 6 2 46 7 87 10 103 8 100 8 100 14 0 3 17 7 37 8 20 1 39 6 42 10 3
5 13 9 21 10 27 2 60 15 60 25 0 5 5 6 10 3 6 -3 17 1 26 9 9 9 20 14 25 11 5
-4 9 -1 9 4 0 6 7 11 15 11 8 0 15 5 15 11 0 5 4 8 9 4 6 -3 13 1 18 9 4 8 14
16 22 18 30 7 244 215 235 229 -3 5 -1 9 5 9 12 0 117 159 113 172 -1 4 3 8 9
8 5 0 8 4 5 9 -4 5 -3 11 2 13 9 3 52 93 52 108 0 5 5 10 12 10 6 0 9 3 5 6
-3 3 3 26 13 50 11 24 17 44 13 44 -3 0 -1 6 5 13 8 10 36 91 41 120 0 4 1 8
2 10 1 5 7 33 12 59 3 15 9 33 13 39 5 8 3 9 -6 4 -10 -6 -11 -4 -4 6 9 15 12
29 17 74 2 17 5 35 9 40 3 6 4 96 2 200 -4 206 -6 255 -14 255 -3 0 -6 12 -7
28 -5 66 -20 130 -36 150 -6 8 -6 12 1 12 7 0 4 18 -8 45 -11 25 -16 45 -13
45 4 0 2 5 -5 12 -7 7 -12 20 -12 30 0 10 -4 26 -10 36 -9 17 -52 112 -55 122
-8 31 -18 50 -26 50 -5 0 -9 7 -9 16 0 9 -9 27 -20 41 -11 14 -20 32 -20 39 0
7 -10 20 -22 28 -12 9 -19 16 -15 16 10 0 -39 66 -75 103 -15 15 -25 27 -22
27 10 0 -111 113 -148 137 -21 14 -38 30 -38 34 0 5 -3 8 -7 7 -7 -2 -74 26
-123 51 -8 4 -27 7 -42 7 -16 -1 -28 1 -28 5 0 3 -16 6 -35 7 -20 1 -40 4 -44
6 -5 3 -10 4 -12 2z"/>
<path d="M12020 22827 c-3 -3 -75 -8 -160 -11 -85 -3 -166 -8 -180 -10 -28 -5
-128 -15 -210 -22 -147 -11 -254 -57 -350 -149 -90 -87 -136 -183 -164 -340
-3 -16 -8 -41 -11 -55 -8 -42 -17 -116 -30 -245 -2 -22 -7 -62 -9 -90 -3 -27
-8 -81 -11 -120 -3 -38 -7 -94 -10 -122 -11 -115 -15 -161 -20 -238 -4 -44 -8
-96 -10 -115 -2 -19 -7 -64 -10 -100 -4 -36 -8 -81 -10 -100 -2 -19 -6 -64 -9
-100 -4 -36 -8 -83 -10 -105 -11 -105 -21 -214 -31 -355 -4 -52 -9 -111 -12
-130 -8 -71 -10 -847 -2 -905 4 -33 11 -82 15 -110 8 -65 28 -125 67 -200 38
-73 188 -225 271 -274 107 -64 247 -103 461 -129 125 -15 709 -6 850 12 17 3
62 7 100 11 39 3 93 8 120 10 28 3 86 7 130 10 44 3 107 7 140 10 33 3 110 7
170 10 61 3 155 7 210 10 195 9 385 22 595 41 133 12 560 11 635 -1 233 -39
300 -98 319 -280 8 -75 20 -338 20 -440 0 -95 -12 -293 -18 -304 -2 -3 -7 -28
-10 -56 -5 -41 -71 -329 -91 -397 -3 -10 -7 -26 -9 -35 -32 -136 -88 -261
-179 -401 -50 -78 -68 -97 -108 -118 -27 -13 -49 -22 -49 -19 0 2 -11 0 -26
-5 -77 -30 -567 -33 -734 -6 -14 3 -47 7 -75 11 -49 6 -132 18 -210 30 -22 4
-49 8 -60 9 -204 30 -254 38 -275 42 -14 2 -70 11 -125 19 -55 9 -113 18 -130
21 -16 3 -46 7 -65 10 -19 2 -73 11 -120 19 -47 8 -116 19 -155 25 -124 18
-139 20 -185 30 -25 5 -65 12 -90 15 -85 13 -105 16 -155 25 -27 5 -61 11 -75
14 -14 2 -41 7 -60 10 -81 14 -98 17 -164 26 -38 6 -78 12 -90 15 -22 5 -56
10 -176 26 -41 6 -86 12 -100 15 -14 3 -89 7 -167 9 -138 4 -143 3 -171 -20
-67 -56 -147 -286 -238 -688 -13 -57 -15 -83 -8 -95 13 -20 61 -37 124 -45 25
-3 90 -15 145 -26 55 -11 111 -22 125 -25 21 -3 209 -40 310 -60 14 -3 50 -10
80 -15 30 -6 66 -13 80 -16 14 -3 50 -9 80 -15 30 -5 67 -12 83 -15 15 -3 37
-7 50 -9 12 -2 74 -13 137 -25 115 -21 124 -23 190 -35 19 -3 45 -8 56 -10 12
-2 37 -7 55 -10 19 -3 45 -8 59 -10 28 -6 200 -35 245 -42 17 -2 57 -9 90 -15
33 -6 71 -12 85 -14 14 -2 66 -11 116 -19 49 -9 103 -18 120 -20 49 -7 168
-25 189 -30 11 -2 45 -7 75 -11 30 -4 64 -9 75 -11 10 -2 37 -6 60 -9 22 -3
51 -8 65 -10 14 -3 48 -7 75 -10 28 -3 102 -12 165 -20 146 -19 181 -23 255
-30 33 -3 76 -8 95 -10 19 -2 62 -7 95 -9 139 -12 213 -18 260 -22 28 -2 208
-7 400 -10 l350 -7 75 44 c113 67 220 173 270 271 41 78 92 252 104 356 3 26
8 61 10 78 3 18 8 63 12 100 3 38 8 83 10 99 25 242 25 875 -1 1450 -19 427
-42 829 -50 885 -2 14 -7 61 -10 105 -9 113 -13 134 -39 190 -31 67 -93 135
-154 168 -47 26 -168 58 -272 72 -25 3 -72 10 -105 15 -33 5 -82 12 -110 15
-27 3 -63 7 -80 10 -16 2 -73 7 -125 10 -52 4 -111 8 -130 10 -19 2 -98 6
-175 10 -77 3 -194 9 -260 12 -66 3 -529 7 -1030 8 -500 1 -926 5 -945 9 -19
3 -57 8 -85 11 -80 10 -174 44 -186 68 -6 12 -20 31 -29 42 -16 18 -56 134
-66 192 -2 13 -6 35 -9 51 -27 144 -26 565 1 747 2 17 6 46 8 65 39 315 122
563 217 644 127 108 391 201 654 229 120 13 443 15 580 3 121 -10 193 -17 235
-22 77 -10 93 -12 160 -18 36 -4 75 -8 85 -10 11 -2 50 -7 87 -10 37 -4 77 -9
90 -11 13 -2 50 -6 83 -10 32 -4 67 -8 77 -10 9 -2 41 -6 70 -9 29 -4 62 -8
73 -10 11 -2 49 -7 85 -10 36 -4 76 -8 90 -11 14 -2 48 -6 75 -9 28 -2 73 -7
100 -11 78 -10 105 -13 180 -20 39 -3 84 -8 101 -10 16 -2 59 -7 95 -10 35 -4
73 -8 84 -10 11 -1 56 -6 100 -10 44 -4 91 -8 105 -11 14 -2 54 -6 90 -9 36
-3 81 -8 100 -11 19 -3 65 -7 103 -9 61 -4 69 -2 81 18 8 12 17 54 21 92 9 97
15 153 20 200 2 22 7 72 10 110 3 39 8 86 10 105 2 19 7 64 10 100 3 36 8 81
10 100 3 19 7 64 10 100 3 36 8 85 10 110 2 25 7 74 10 110 3 36 8 79 10 96 5
40 -17 61 -65 62 -19 0 -82 3 -140 6 -58 3 -177 8 -265 11 -88 3 -203 8 -255
10 -52 2 -171 6 -265 10 -93 3 -219 8 -280 10 -257 11 -423 17 -855 30 -118 4
-267 9 -330 11 -178 7 -1215 16 -1220 11z"/>
<path d="M29798 22825 c-2 -1 -50 -6 -108 -10 -58 -4 -121 -9 -140 -11 -19 -2
-156 -6 -305 -9 -349 -6 -381 -9 -498 -39 -96 -24 -137 -43 -205 -95 -66 -49
-82 -119 -97 -426 -4 -66 -8 -149 -10 -185 -7 -118 -16 -284 -20 -365 -4 -72
-11 -200 -20 -370 -2 -33 -6 -114 -9 -180 -4 -66 -8 -151 -11 -190 -12 -189
-15 -248 -20 -340 -3 -55 -7 -136 -10 -180 -3 -44 -8 -125 -10 -180 -3 -55 -7
-129 -10 -165 -2 -36 -7 -108 -10 -160 -3 -52 -7 -126 -10 -165 -2 -38 -7
-113 -10 -165 -3 -52 -8 -124 -10 -160 -2 -36 -7 -105 -10 -155 -6 -106 -13
-213 -20 -310 -2 -38 -7 -113 -10 -165 -3 -52 -8 -124 -10 -160 -3 -36 -7 -99
-10 -140 -9 -137 -15 -224 -20 -295 -3 -38 -7 -108 -10 -155 -3 -47 -8 -110
-10 -140 -2 -30 -7 -98 -10 -150 -4 -52 -8 -115 -10 -140 -2 -25 -6 -92 -10
-150 -3 -58 -8 -121 -10 -140 -2 -19 -7 -82 -10 -140 -4 -58 -8 -127 -11 -155
-6 -70 -12 -164 -19 -275 -3 -52 -8 -117 -10 -145 -2 -27 -7 -86 -10 -130 -3
-44 -7 -100 -10 -125 -2 -25 -7 -90 -10 -145 -3 -55 -8 -120 -10 -145 -3 -25
-7 -88 -10 -140 -3 -52 -8 -122 -11 -155 -3 -33 -7 -87 -9 -120 -7 -102 -15
-218 -20 -270 -2 -27 -7 -93 -10 -145 -4 -52 -8 -113 -10 -135 -3 -39 -11
-143 -20 -280 -3 -38 -7 -99 -10 -135 -9 -107 -14 -180 -20 -275 -3 -49 -8
-110 -10 -135 -4 -49 -11 -136 -21 -275 -4 -49 -8 -108 -10 -130 -10 -127 -11
-408 -1 -440 28 -92 183 -178 509 -284 165 -53 448 -125 532 -136 27 -3 53 -8
58 -11 10 -6 211 -17 338 -18 297 -3 358 47 404 324 3 19 8 46 10 60 5 25 15
112 21 185 4 47 14 135 20 185 2 19 7 60 10 90 3 30 8 71 10 90 2 19 9 80 15
135 6 55 13 117 15 138 12 97 14 116 20 177 3 36 8 76 10 90 2 14 7 54 10 90
3 36 7 76 10 90 2 14 7 52 10 85 6 67 13 130 19 190 3 22 8 65 11 95 3 30 12
116 21 190 8 74 17 155 20 180 2 25 6 59 9 75 2 17 7 59 10 95 3 36 8 76 10
90 2 14 6 54 10 90 4 36 8 76 10 90 2 14 7 54 10 90 3 36 12 119 20 185 8 66
17 145 20 175 3 30 7 71 10 90 2 19 7 60 10 90 3 30 8 71 10 90 3 19 7 60 10
90 9 82 15 142 30 270 3 19 7 60 10 90 3 30 8 73 10 95 3 22 7 63 10 90 3 28
8 66 10 85 3 19 7 62 10 95 5 51 13 118 40 345 2 19 7 60 10 90 3 30 8 71 10
90 3 19 7 58 10 85 2 28 7 73 10 100 3 28 8 66 10 85 3 19 7 60 10 90 3 30 10
93 15 140 6 47 13 108 16 135 3 28 7 61 9 75 2 14 6 57 10 95 3 39 8 84 10
100 2 17 6 59 9 95 4 36 8 76 11 90 2 14 7 54 10 90 3 36 8 81 10 100 3 19 7
58 10 85 3 28 7 68 10 90 3 22 7 67 10 100 3 33 8 78 10 100 8 68 37 338 40
375 2 19 6 59 9 88 3 28 8 73 11 100 2 26 9 90 15 142 9 89 12 122 26 260 3
30 7 69 9 85 2 17 7 57 10 90 3 33 8 80 11 105 2 25 7 70 9 100 3 30 8 69 10
85 2 17 7 64 11 105 3 41 8 86 9 100 2 14 6 57 10 95 3 39 8 81 10 95 2 14 7
54 10 90 3 36 7 85 10 110 3 25 7 70 10 100 3 30 8 71 10 90 2 19 7 67 11 105
4 39 8 81 9 95 2 14 6 61 10 105 4 44 8 82 10 85 15 25 24 334 13 437 -10 85
-28 122 -82 170 -45 40 -83 55 -176 69 -36 5 -646 14 -652 9z"/>
<path d="M16221 22757 l-24 -26 7 -348 c10 -452 9 -428 29 -451 23 -25 80 -32
412 -47 55 -2 143 -7 195 -10 205 -13 221 -14 629 -30 68 -3 139 -8 157 -10
19 -3 51 -7 72 -10 75 -11 209 -48 271 -76 113 -51 144 -85 188 -203 16 -43
18 -235 26 -4300 3 -1338 3 -1359 22 -1372 11 -7 52 -15 90 -18 39 -4 81 -8
95 -11 14 -2 52 -7 85 -10 67 -6 201 -23 232 -29 11 -3 44 -7 73 -11 29 -4
101 -15 159 -25 141 -24 135 -31 137 158 16 1535 30 2533 49 3422 2 124 7 347
10 495 3 149 7 351 10 450 2 99 7 297 10 440 10 437 11 455 31 575 23 144 79
264 142 306 35 24 109 49 187 64 48 9 275 6 380 -5 127 -13 155 -15 235 -20
47 -3 105 -7 130 -10 25 -2 79 -7 120 -10 41 -3 95 -8 120 -10 25 -2 90 -7
145 -11 55 -3 102 -7 105 -9 3 -2 53 -6 110 -10 58 -3 121 -8 140 -10 19 -3
81 -7 137 -10 130 -6 127 -10 148 165 3 25 8 56 10 70 3 14 7 48 10 75 3 28 7
61 9 75 2 14 7 48 11 75 9 70 15 111 25 180 5 33 12 83 16 110 3 28 8 59 10
70 16 82 16 126 0 144 -22 24 -45 27 -351 46 -68 4 -236 15 -315 20 -36 3
-103 7 -150 10 -229 14 -274 17 -445 30 -33 2 -103 7 -155 10 -52 3 -131 8
-175 10 -44 3 -111 7 -150 10 -38 3 -108 7 -155 10 -47 3 -121 7 -165 10 -44
3 -123 7 -175 10 -114 6 -238 14 -340 20 -41 2 -154 7 -250 10 -96 4 -215 8
-265 10 -86 4 -379 12 -715 20 -85 2 -418 7 -740 11 l-585 7 -24 -26z"/>
<path d="M10230 22694 c-41 -7 -91 -16 -110 -19 -20 -3 -47 -8 -60 -10 -58
-12 -299 -52 -360 -60 -25 -3 -52 -8 -60 -10 -8 -2 -40 -7 -70 -10 -30 -4 -57
-8 -60 -10 -5 -3 -33 -7 -147 -21 -27 -3 -54 -12 -62 -20 -13 -11 -15 -179
-17 -1151 -1 -626 -4 -1273 -7 -1438 -3 -165 -8 -534 -12 -820 -4 -286 -9
-635 -11 -775 -2 -140 -7 -785 -10 -1433 l-7 -1177 22 -24 c14 -15 40 -27 69
-32 26 -4 52 -8 57 -10 6 -1 64 -12 130 -24 106 -19 155 -27 270 -46 17 -3 37
-7 45 -9 8 -2 33 -6 55 -10 40 -5 92 -15 201 -36 71 -14 88 0 90 69 1 26 5
163 8 306 4 142 9 311 11 375 3 64 7 193 10 286 3 94 7 229 10 300 3 72 7 204
10 295 3 91 8 230 10 310 3 80 8 206 10 280 10 306 16 462 20 590 3 74 7 203
10 285 3 83 7 213 10 290 3 77 7 210 10 295 2 85 7 238 11 340 8 234 11 338
19 630 3 129 8 316 11 415 2 99 7 602 11 1118 5 892 5 938 -12 957 -10 11 -21
20 -24 19 -3 0 -40 -7 -81 -15z"/>
<path d="M4667 22644 c-1 -1 -112 -5 -247 -8 -282 -7 -513 -15 -584 -21 -63
-5 -85 -26 -91 -91 -25 -269 -30 -726 -29 -2509 0 -1774 7 -2481 29 -3015 8
-184 24 -457 30 -510 26 -215 53 -310 116 -415 41 -69 166 -190 234 -229 115
-64 148 -69 385 -62 272 8 412 13 548 21 103 5 178 9 417 20 156 7 494 21 780
30 276 10 405 14 555 20 80 3 210 7 290 10 80 3 208 7 285 10 77 3 212 7 300
10 88 3 214 7 280 10 66 2 199 7 295 10 199 6 399 15 422 19 9 1 23 8 32 15
14 12 16 66 16 497 l0 484 -24 15 c-23 15 -46 15 -151 0 -16 -2 -61 -7 -100
-11 -38 -3 -83 -8 -100 -10 -16 -1 -64 -5 -105 -9 -41 -3 -91 -8 -110 -10 -74
-9 -138 -15 -220 -20 -47 -3 -110 -8 -140 -11 -80 -6 -175 -13 -260 -19 -41
-3 -104 -7 -140 -10 -199 -14 -322 -21 -540 -30 -74 -4 -169 -8 -211 -10 -42
-2 -156 -6 -255 -10 -98 -3 -210 -8 -249 -10 -79 -5 -660 -17 -890 -19 -82 -1
-168 2 -189 7 -65 12 -155 58 -186 94 -72 82 -101 238 -126 678 -3 56 -7 132
-9 170 -14 237 -20 628 -19 1260 0 882 13 1530 49 2355 2 58 7 161 10 230 2
69 7 161 10 205 3 44 7 130 10 190 3 61 7 142 10 180 2 39 7 117 10 175 3 58
8 144 11 191 4 75 3 89 -15 110 -16 20 -28 24 -76 24 -31 0 -57 -1 -58 -1z"/>
<path d="M16809 14356 c-2 -2 -74 -7 -159 -10 -85 -4 -175 -9 -200 -12 -121
-13 -182 -26 -224 -44 -55 -23 -151 -110 -176 -160 -19 -38 -47 -126 -54 -175
-15 -102 -22 -162 -32 -265 -3 -41 -8 -88 -10 -105 -1 -16 -5 -70 -9 -120 -3
-49 -8 -108 -10 -130 -2 -22 -7 -69 -10 -105 -3 -36 -8 -83 -10 -105 -5 -41
-10 -101 -20 -215 -3 -36 -8 -78 -10 -95 -20 -154 -28 -719 -12 -858 15 -139
69 -236 181 -330 100 -82 205 -122 381 -144 114 -14 556 -6 665 11 14 3 61 7
105 11 44 3 100 8 125 10 25 2 101 7 170 10 194 9 398 21 495 30 428 36 635
22 732 -51 55 -42 64 -94 68 -399 3 -244 -5 -308 -68 -555 -43 -167 -65 -225
-121 -320 -59 -100 -76 -117 -144 -136 -85 -26 -419 -25 -602 0 -14 2 -115 18
-225 35 -110 16 -218 33 -240 36 -22 3 -78 12 -125 20 -47 8 -103 17 -125 20
-22 4 -65 10 -95 15 -30 5 -86 14 -125 20 -38 6 -77 12 -85 15 -8 2 -31 6 -50
9 -19 3 -73 12 -120 20 -47 8 -105 17 -130 21 -25 3 -70 10 -100 15 -30 5 -73
12 -95 15 -22 2 -69 9 -105 14 -36 5 -91 8 -122 7 -94 -2 -124 -42 -191 -266
-19 -63 -43 -154 -52 -203 -24 -117 -20 -121 145 -152 14 -3 36 -7 50 -10 14
-3 34 -7 45 -9 11 -2 70 -13 130 -24 61 -12 126 -24 145 -27 19 -3 53 -10 75
-15 22 -5 56 -12 75 -15 19 -3 42 -8 50 -10 8 -2 33 -6 55 -9 22 -4 63 -11 90
-16 28 -5 61 -11 75 -14 29 -5 133 -24 170 -31 13 -3 42 -7 65 -10 22 -3 47
-8 55 -10 8 -2 33 -7 55 -10 23 -3 52 -8 65 -10 28 -6 52 -10 120 -20 25 -4
54 -9 65 -11 11 -3 38 -7 60 -9 22 -3 65 -10 95 -15 30 -5 78 -12 105 -15 28
-4 57 -8 65 -10 8 -2 33 -6 55 -9 111 -14 206 -26 260 -32 33 -3 68 -8 79 -10
10 -2 53 -6 95 -10 42 -3 88 -7 104 -9 83 -10 316 -20 482 -20 l190 0 61 37
c78 48 158 133 190 201 31 69 61 185 69 273 4 38 9 71 10 74 19 33 26 721 11
1060 -20 445 -26 561 -31 600 -2 19 -7 69 -10 110 -11 143 -14 158 -33 197
-23 44 -100 119 -136 133 -29 11 -153 36 -216 45 -44 5 -100 13 -150 20 -22 3
-109 10 -285 21 -56 3 -451 9 -1310 18 -429 5 -468 11 -522 74 -32 37 -55 109
-71 222 -9 62 -8 401 1 480 33 286 91 469 169 535 43 36 155 90 241 116 140
42 208 48 487 44 146 -2 279 -6 295 -9 17 -3 75 -10 130 -16 55 -6 111 -13
125 -15 14 -2 48 -7 75 -10 80 -9 127 -15 165 -20 19 -3 55 -7 80 -10 82 -10
134 -16 210 -25 84 -11 137 -16 225 -25 33 -3 71 -8 85 -10 14 -2 61 -6 105
-10 44 -4 87 -8 95 -10 8 -1 51 -6 95 -9 44 -4 88 -9 97 -12 25 -7 58 31 59
69 0 17 2 39 4 48 1 9 6 49 9 90 8 85 14 147 21 204 3 22 7 77 10 122 4 46 8
93 10 105 3 11 7 57 11 102 6 75 4 83 -16 101 -13 12 -38 20 -63 21 -23 1
-123 5 -222 9 -99 3 -218 8 -265 10 -47 2 -164 7 -260 10 -96 3 -220 8 -275
10 -55 2 -185 7 -290 10 -104 4 -246 8 -315 11 -201 6 -857 14 -861 10z"/>
<path d="M15549 14266 c-4 -4 -303 -56 -404 -71 -23 -3 -50 -7 -60 -9 -11 -2
-60 -9 -110 -16 -49 -7 -96 -19 -104 -25 -11 -11 -14 -185 -17 -1027 -2 -557
-6 -1114 -9 -1238 -3 -124 -8 -756 -11 -1405 -6 -1171 -6 -1180 14 -1198 18
-16 138 -43 347 -77 33 -6 74 -13 90 -16 155 -30 174 -31 188 -15 8 9 14 23
15 31 0 8 3 80 6 160 5 137 11 302 21 630 2 80 7 208 9 285 3 77 8 214 11 305
3 91 8 224 10 295 3 72 7 195 10 275 6 185 14 429 20 595 3 72 7 222 11 335 3
113 7 252 9 310 15 412 26 1743 15 1815 -6 45 -42 80 -61 61z"/>
<path d="M19556 14242 c-17 -20 -18 -39 -14 -290 3 -252 5 -269 24 -290 23
-25 75 -30 429 -47 60 -3 148 -8 195 -11 47 -2 148 -7 225 -9 77 -2 151 -6
165 -9 13 -3 42 -8 63 -12 63 -9 153 -40 203 -69 36 -21 52 -39 72 -84 l26
-56 2 -530 c1 -291 4 -1194 5 -2005 3 -1400 4 -1475 21 -1492 10 -10 26 -19
36 -19 9 -1 26 -3 37 -4 11 -1 52 -5 90 -9 39 -4 81 -9 95 -11 14 -2 48 -6 75
-10 74 -10 108 -15 114 -20 4 -2 36 -6 72 -10 86 -9 93 -1 96 114 2 103 11
691 18 1256 3 226 7 527 10 670 9 467 16 837 20 1005 2 91 7 289 10 440 6 294
12 430 20 470 3 14 7 34 9 45 10 46 48 133 68 154 60 65 202 88 413 67 98 -10
136 -13 245 -21 47 -3 103 -8 125 -10 22 -3 72 -7 110 -10 80 -6 181 -14 240
-20 167 -16 236 -16 260 -1 14 9 24 20 23 24 -1 4 1 25 5 47 4 22 9 58 12 80
4 39 10 84 21 155 3 19 7 51 9 70 2 19 7 53 10 75 7 43 11 67 20 130 3 23 7
50 9 62 8 41 -11 48 -159 57 -55 4 -125 9 -155 11 -30 2 -98 7 -150 10 -52 3
-123 8 -157 10 -35 2 -107 7 -160 10 -54 3 -120 8 -148 10 -52 4 -220 15 -309
20 -87 5 -269 16 -325 20 -54 4 -247 14 -371 20 -36 2 -157 7 -270 10 -113 4
-245 8 -295 10 -49 2 -333 7 -630 11 l-540 7 -19 -21z"/>
<path d="M25478 14245 c-2 -1 -106 -6 -233 -9 -243 -6 -383 -12 -530 -21 -49
-3 -130 -8 -180 -10 -503 -27 -591 -41 -737 -117 -88 -45 -210 -145 -251 -206
-73 -105 -82 -232 -63 -887 12 -415 15 -629 21 -1625 8 -1226 12 -1666 19
-1710 2 -19 7 -55 11 -78 22 -167 134 -318 267 -360 180 -58 288 -62 1243 -48
582 8 951 16 995 21 130 15 220 17 220 6 0 -12 90 -11 240 4 25 2 86 7 135 10
59 5 96 12 107 22 10 9 29 17 43 18 36 4 91 41 159 105 124 118 154 247 171
740 3 85 7 200 10 255 2 55 7 174 10 265 3 91 8 215 10 275 3 61 7 174 10 253
3 78 7 204 10 280 3 75 7 202 10 282 3 80 7 201 10 270 2 69 7 206 10 305 3
99 8 223 10 275 2 52 7 183 11 290 4 107 8 220 10 250 5 79 5 572 0 660 -11
189 -128 359 -294 423 -57 23 -199 48 -297 53 -96 6 -1152 14 -1157 9z m47
-759 c33 -2 116 -7 185 -11 69 -3 139 -8 155 -10 17 -2 73 -7 125 -10 248 -16
341 -32 427 -72 87 -40 135 -115 158 -247 14 -78 11 -226 -9 -468 -3 -38 -8
-98 -11 -135 -3 -38 -7 -95 -10 -128 -2 -33 -7 -96 -10 -140 -3 -44 -7 -105
-10 -135 -3 -30 -7 -91 -10 -135 -3 -44 -8 -105 -11 -136 -2 -31 -7 -87 -9
-125 -12 -177 -24 -345 -30 -404 -2 -19 -6 -78 -10 -130 -7 -99 -10 -150 -20
-262 -3 -38 -7 -98 -10 -135 -3 -38 -8 -93 -10 -123 -3 -30 -7 -91 -10 -135
-6 -88 -13 -162 -20 -215 -3 -19 -7 -52 -10 -74 -6 -49 -12 -69 -42 -138 -21
-46 -36 -65 -77 -92 -75 -49 -149 -65 -286 -60 -63 2 -189 6 -280 9 -91 3
-221 7 -289 10 -68 3 -212 7 -320 10 -292 8 -471 15 -500 20 -14 2 -48 7 -76
10 -71 8 -151 32 -191 58 -60 39 -109 155 -119 282 -6 68 -13 389 -21 885 -9
630 -21 1114 -30 1290 -12 248 -12 649 0 696 27 101 69 150 177 204 109 56
137 58 664 54 264 -2 507 -5 540 -8z"/>
<path d="M11328 14215 c-2 -2 -57 -5 -122 -7 -109 -5 -121 -7 -138 -28 -10
-12 -18 -36 -19 -54 0 -17 -2 -47 -5 -66 -30 -279 -22 -3360 11 -3965 20 -366
30 -430 87 -537 39 -73 143 -172 217 -207 52 -24 65 -26 196 -25 121 0 388 10
535 19 25 2 117 6 205 9 88 4 203 9 255 11 93 4 258 10 550 20 80 3 208 7 285
10 77 3 208 7 290 10 83 3 211 7 285 10 74 2 209 7 300 10 312 11 309 11 330
30 19 17 20 31 20 351 l0 334 -25 16 c-15 10 -35 14 -52 10 -15 -3 -59 -8 -98
-11 -38 -3 -81 -8 -95 -10 -14 -2 -59 -7 -100 -10 -41 -3 -95 -8 -120 -10 -25
-2 -79 -7 -120 -10 -41 -3 -95 -8 -120 -10 -25 -2 -90 -7 -144 -10 -55 -3
-122 -8 -150 -10 -249 -19 -869 -43 -1318 -49 -296 -5 -344 1 -407 52 -39 31
-66 90 -76 163 -3 24 -8 60 -10 79 -5 33 -13 138 -20 240 -27 389 -27 1684 0
2370 2 47 6 164 9 260 4 96 9 200 11 230 2 30 7 123 10 205 3 83 8 170 10 195
2 25 7 110 10 190 4 80 9 149 12 153 3 5 -3 17 -13 28 -17 19 -30 20 -246 18
-125 -1 -229 -3 -230 -4z"/>
<path d="M4380 14167 c-3 -2 -36 -7 -74 -11 -129 -12 -290 -50 -383 -92 -61
-26 -147 -103 -173 -154 -38 -74 -45 -120 -56 -345 -3 -83 -8 -172 -9 -200 -2
-48 -12 -276 -20 -490 -26 -667 -27 -2686 -1 -2825 2 -14 7 -50 10 -80 25
-248 160 -496 303 -558 97 -41 152 -45 638 -38 414 6 1232 14 2106 19 358 3
354 2 345 71 -3 23 -8 73 -12 111 -3 39 -7 86 -9 105 -2 19 -7 73 -10 120 -4
47 -8 96 -10 109 -3 13 -7 62 -11 108 -9 113 -12 114 -169 107 -66 -3 -136 -7
-155 -8 -19 -2 -73 -7 -120 -10 -47 -4 -103 -9 -125 -11 -22 -1 -76 -6 -120
-10 -44 -3 -98 -8 -120 -10 -22 -2 -74 -6 -115 -10 -41 -3 -97 -8 -125 -11
-158 -15 -258 -19 -510 -18 -321 0 -413 6 -600 39 -265 47 -403 113 -457 219
-20 39 -21 55 -21 311 0 309 13 1466 18 1690 13 536 26 866 41 1020 6 62 32
88 112 112 94 29 517 23 927 -13 39 -3 97 -7 130 -10 33 -2 83 -6 110 -9 28
-3 82 -7 120 -10 39 -3 86 -7 105 -10 19 -2 69 -7 110 -10 41 -3 91 -8 110
-10 19 -3 60 -7 90 -10 65 -6 145 -15 180 -20 14 -2 55 -6 92 -10 37 -3 75 -7
85 -9 10 -2 52 -7 93 -11 41 -3 82 -8 90 -10 8 -2 47 -7 87 -10 67 -5 73 -4
87 17 16 24 22 73 31 228 3 52 7 138 10 190 16 278 16 269 -8 284 -24 15 -72
21 -327 40 -41 4 -91 8 -110 11 -36 4 -129 13 -234 20 -34 3 -81 7 -106 10
-64 7 -182 17 -348 29 -45 4 -99 9 -120 11 -20 2 -75 6 -122 10 -47 3 -101 8
-120 10 -19 3 -80 7 -135 10 -55 4 -122 8 -150 11 -75 7 -839 17 -845 11z"/>
<path d="M8933 14121 c-43 -27 -106 -108 -125 -162 -8 -24 -32 -105 -53 -179
-20 -74 -114 -389 -207 -700 -94 -311 -174 -581 -180 -600 -6 -19 -48 -159
-95 -310 -47 -151 -86 -279 -87 -285 -2 -5 -6 -17 -9 -25 -3 -8 -35 -109 -70
-225 -157 -510 -441 -1385 -604 -1863 -126 -369 -134 -395 -118 -412 15 -17
40 -18 351 -18 330 1 336 1 349 22 13 20 50 182 151 651 25 116 54 251 65 300
34 156 40 189 43 241 5 79 44 128 111 140 6 1 24 5 40 8 177 33 320 41 740 41
338 0 374 -2 419 -19 55 -21 70 -47 82 -137 3 -30 20 -110 36 -179 16 -69 31
-132 33 -140 2 -8 35 -157 75 -330 39 -173 73 -326 75 -340 3 -14 14 -65 25
-115 11 -49 25 -112 31 -140 20 -91 -9 -85 418 -80 207 3 399 6 428 8 94 4 96
-5 -44 332 -235 569 -425 1079 -823 2205 -454 1287 -667 1862 -762 2059 -65
136 -133 220 -203 252 -50 23 -53 23 -92 0z m70 -1552 c76 -35 260 -429 418
-898 50 -148 92 -290 94 -315 5 -64 4 -64 -228 -90 -179 -20 -539 -28 -624
-14 -66 11 -100 33 -113 72 -10 31 -7 116 4 135 3 4 8 21 10 38 12 66 108 433
147 562 56 184 133 384 172 450 40 67 71 82 120 60z"/>
<path d="M29047 11443 c-1 0 -119 -4 -262 -7 -801 -18 -812 -19 -891 -57 -67
-32 -121 -85 -154 -152 -45 -93 -52 -148 -75 -602 -3 -66 -8 -151 -10 -190 -3
-38 -7 -117 -10 -175 -3 -58 -8 -145 -12 -195 -16 -219 6 -340 74 -416 64 -70
105 -85 303 -104 30 -3 66 -8 80 -10 14 -2 54 -7 90 -10 36 -3 81 -8 100 -10
19 -3 53 -8 75 -10 22 -2 56 -6 75 -9 19 -2 67 -7 105 -11 39 -4 78 -9 89 -11
10 -2 51 -6 90 -10 39 -3 74 -8 77 -10 13 -7 160 -19 236 -19 83 1 96 -2 52
-10 -13 -3 -37 -8 -54 -12 -16 -4 -34 -8 -40 -9 -5 -1 -12 -3 -15 -4 -8 -3
-33 -8 -65 -15 -16 -3 -48 -11 -70 -17 -22 -6 -49 -12 -60 -13 -11 -1 -39 -7
-63 -14 -24 -7 -55 -14 -70 -16 -15 -2 -34 -6 -42 -9 -14 -5 -58 -15 -90 -20
-8 -1 -24 -5 -35 -9 -20 -6 -66 -16 -95 -21 -8 -1 -24 -5 -35 -9 -26 -8 -85
-20 -107 -21 -10 0 -18 -3 -18 -6 0 -3 -8 -6 -17 -7 -10 -1 -31 -4 -48 -8 -16
-4 -37 -8 -45 -9 -8 -1 -26 -6 -40 -11 -14 -5 -34 -9 -45 -10 -11 0 -29 -4
-40 -8 -19 -6 -40 -10 -102 -22 -23 -4 -55 -12 -83 -20 -3 -1 -25 -5 -50 -10
-52 -10 -59 -12 -62 -14 -2 -2 -21 -5 -43 -7 -22 -3 -42 -9 -43 -15 -2 -5 -8
-7 -12 -4 -5 3 -28 1 -52 -5 -24 -6 -54 -13 -68 -14 -14 -2 -45 -9 -70 -14
-25 -6 -61 -14 -80 -17 -48 -9 -65 -13 -65 -15 0 -1 -11 -3 -25 -5 -28 -4 -73
-12 -110 -21 -14 -3 -35 -8 -47 -10 -29 -5 -61 -11 -93 -18 -13 -3 -42 -8 -64
-12 -22 -3 -43 -7 -46 -9 -3 -2 -21 -6 -40 -9 -62 -10 -94 -16 -150 -28 -30
-6 -62 -12 -70 -14 -8 -1 -35 -5 -60 -9 -25 -5 -51 -8 -57 -8 -7 0 -13 -3 -13
-7 0 -4 -11 -6 -25 -5 -14 2 -25 0 -25 -3 0 -4 -15 -8 -32 -9 -18 -1 -44 -4
-58 -7 -14 -3 -45 -9 -70 -12 -25 -3 -47 -9 -50 -13 -3 -3 -18 -6 -35 -7 -16
0 -46 -4 -65 -8 -19 -4 -46 -9 -60 -11 -14 -2 -36 -6 -50 -9 -46 -10 -105 -19
-122 -18 -10 0 -18 -3 -18 -7 0 -4 -13 -7 -30 -6 -16 1 -30 -1 -30 -4 0 -3
-12 -7 -27 -8 -31 -1 -108 -11 -108 -13 0 -3 -39 -10 -75 -14 -19 -2 -35 -5
-35 -6 0 -3 -117 -22 -151 -25 -12 -1 -30 -5 -40 -10 -10 -4 -36 -7 -57 -7
-20 0 -40 -4 -43 -9 -3 -5 -9 -7 -14 -4 -4 2 -34 0 -66 -6 -33 -6 -75 -13 -94
-14 -19 -2 -35 -4 -35 -5 0 -2 -21 -6 -80 -15 -100 -16 -122 -18 -147 -19 -16
-1 -28 -3 -28 -6 0 -4 -10 -6 -22 -6 -13 -1 -41 -4 -63 -8 -41 -7 -88 -14
-140 -21 -16 -2 -30 -4 -30 -5 0 -1 -16 -4 -35 -6 -66 -7 -105 -12 -105 -14 0
-1 -11 -3 -25 -5 -24 -2 -65 -8 -138 -19 -31 -5 -71 -10 -154 -22 -21 -3 -52
-7 -70 -10 -18 -3 -49 -7 -68 -9 -44 -5 -100 -12 -154 -21 -22 -3 -54 -8 -71
-9 -16 -2 -30 -4 -30 -4 0 -1 -16 -4 -35 -6 -32 -3 -100 -12 -160 -20 -14 -2
-52 -7 -85 -10 -33 -3 -73 -8 -89 -11 -16 -3 -48 -7 -70 -9 -23 -3 -57 -7 -76
-9 -19 -3 -50 -6 -67 -7 -18 -2 -33 -7 -33 -12 0 -5 -6 -4 -13 2 -8 6 -16 9
-18 6 -6 -5 -102 -18 -146 -19 -18 -1 -33 -3 -33 -6 0 -3 -10 -5 -22 -6 -79
-3 -128 -8 -128 -13 0 -3 -21 -7 -47 -7 -27 -1 -73 -4 -103 -8 -72 -8 -169
-18 -197 -19 -13 -1 -23 -5 -23 -9 0 -5 -8 -4 -19 1 -10 6 -21 7 -25 4 -4 -4
-19 -8 -34 -10 -15 -1 -52 -4 -82 -7 -30 -3 -80 -8 -110 -11 -30 -4 -77 -8
-105 -10 -27 -2 -50 -4 -50 -5 0 -2 -20 -4 -45 -5 -25 -2 -70 -6 -100 -9 -66
-7 -159 -16 -220 -21 -132 -11 -218 -18 -242 -19 -16 0 -28 -3 -28 -6 0 -3
-21 -5 -48 -6 -26 0 -81 -4 -122 -7 -41 -3 -111 -8 -155 -11 -44 -3 -107 -8
-140 -11 -84 -7 -243 -17 -287 -18 -21 -1 -38 -4 -38 -7 0 -3 -30 -6 -68 -7
-37 0 -103 -4 -147 -7 -80 -5 -220 -14 -327 -20 -31 -2 -61 -7 -67 -11 -6 -3
-11 0 -11 7 0 8 -3 9 -8 3 -4 -5 -36 -11 -72 -11 -136 -3 -247 -11 -258 -18
-7 -4 -12 -2 -12 4 0 6 -5 8 -10 5 -10 -6 -191 -17 -312 -19 -32 0 -58 -4 -58
-9 0 -4 -9 -3 -20 3 -11 6 -25 8 -31 4 -11 -6 -59 -9 -354 -18 -71 -3 -130 -5
-130 -6 0 -1 -293 -10 -420 -13 -33 -1 -63 -6 -67 -12 -5 -7 -8 -7 -8 0 0 6
-13 11 -30 11 -17 1 -27 -2 -24 -8 4 -6 -2 -6 -13 1 -11 6 -23 8 -26 4 -6 -5
-345 -13 -702 -16 -100 -1 -173 -6 -177 -12 -5 -7 -8 -6 -8 1 0 6 -17 9 -42 8
-101 -6 -219 -6 -225 -1 -3 4 -13 3 -22 -1 -20 -10 -1233 -8 -1248 1 -7 4 -14
3 -18 -2 -3 -6 -11 -8 -18 -6 -27 10 -103 12 -114 2 -7 -5 -13 -6 -13 -1 0 5
-73 10 -163 10 -281 3 -638 12 -644 17 -2 3 -17 1 -33 -3 -16 -4 -31 -6 -34
-2 -4 3 -63 7 -134 8 -70 2 -199 5 -287 8 -88 3 -223 8 -300 11 -293 10 -376
14 -385 20 -6 3 -10 1 -10 -5 0 -6 -5 -8 -12 -3 -7 4 -42 8 -78 9 -67 3 -250
11 -423 19 -54 2 -102 7 -107 10 -6 3 -10 0 -10 -7 0 -8 -3 -9 -8 -3 -4 6 -32
11 -62 11 -30 1 -109 5 -175 9 -66 3 -150 8 -186 9 -37 2 -71 6 -77 10 -6 3
-13 2 -17 -4 -4 -6 -11 -8 -16 -4 -5 3 -44 8 -86 10 -42 3 -80 7 -85 10 -4 3
-8 -1 -8 -8 0 -8 -3 -9 -8 -3 -4 6 -37 10 -74 10 -38 0 -68 2 -68 5 0 3 -21 6
-48 6 -116 3 -233 12 -239 17 -3 4 -14 2 -24 -4 -11 -5 -19 -6 -19 -1 0 4 -15
8 -32 9 -53 1 -223 11 -223 13 0 1 -27 3 -60 5 -33 2 -94 6 -135 9 -41 3 -111
8 -155 11 -140 9 -174 13 -184 20 -6 3 -11 1 -11 -5 0 -6 -4 -9 -9 -5 -6 3
-36 8 -68 10 -76 6 -161 13 -253 20 -41 3 -100 8 -130 11 -106 10 -156 14
-225 19 -38 2 -95 7 -125 10 -30 3 -82 7 -115 10 -33 2 -60 4 -60 5 0 1 -25 3
-55 6 -88 5 -150 13 -160 19 -5 3 -11 1 -15 -5 -4 -6 -12 -7 -18 -3 -7 4 -25
9 -42 9 -16 1 -59 5 -95 9 -36 3 -87 8 -115 10 -27 3 -68 6 -90 9 -22 2 -71 6
-110 10 -38 4 -95 9 -125 12 -30 4 -80 7 -110 9 -30 2 -55 4 -55 5 0 2 -19 4
-140 14 -44 4 -97 9 -118 12 -21 3 -61 7 -90 9 -29 3 -70 7 -92 9 -22 2 -71 7
-110 11 -38 3 -86 8 -105 10 -59 7 -143 16 -185 20 -22 2 -67 6 -100 10 -33 4
-76 9 -95 11 -19 1 -46 5 -60 8 -14 2 -56 7 -95 10 -38 4 -86 9 -105 11 -19 3
-56 8 -83 10 -26 2 -52 7 -57 10 -6 3 -10 0 -10 -7 0 -8 -3 -9 -8 -3 -4 6 -11
11 -17 11 -5 1 -37 5 -70 8 -33 4 -76 8 -95 11 -19 2 -57 7 -85 10 -27 3 -63
7 -80 9 -16 3 -50 7 -75 10 -68 7 -162 18 -190 22 -51 7 -116 15 -150 18 -35
4 -103 12 -170 22 -48 7 -111 14 -162 19 -24 2 -56 6 -73 9 -16 3 -52 8 -80
11 -27 3 -63 8 -80 10 -16 3 -52 7 -80 9 -27 3 -63 8 -79 11 -16 3 -50 8 -75
10 -25 2 -62 7 -81 10 -19 3 -53 7 -75 9 -22 3 -60 7 -85 11 -52 7 -112 14
-155 19 -16 2 -55 7 -85 11 -30 4 -71 9 -90 11 -19 3 -53 6 -75 8 -22 2 -47 6
-55 9 -8 3 -22 5 -30 5 -14 -1 -55 4 -150 17 -19 3 -57 8 -85 11 -27 2 -63 7
-80 10 -16 3 -52 8 -80 10 -27 3 -63 8 -80 10 -16 2 -50 6 -75 9 -25 2 -45 5
-45 5 0 3 -41 10 -85 15 -53 7 -77 -10 -111 -78 -12 -23 -25 -44 -28 -47 -15
-12 -41 -61 -41 -78 0 -10 -3 -22 -7 -26 -7 -6 -13 -29 -15 -53 -1 -7 -4 -13
-8 -13 -3 0 -7 -11 -8 -25 -3 -48 -5 -55 -15 -55 -6 0 -7 -3 -4 -6 3 -4 2 -14
-3 -23 -8 -16 -50 -19 -105 -7 -11 3 -41 5 -68 5 -44 1 -46 2 -35 20 9 15 7
27 -10 65 -12 25 -22 50 -22 56 0 17 -42 102 -72 148 -16 23 -26 42 -22 42 4
0 0 8 -8 17 -8 10 -28 43 -44 73 -16 30 -35 60 -41 68 -7 7 -13 20 -13 28 0 8
-4 14 -10 14 -5 0 -10 4 -10 10 0 5 -20 39 -45 75 -24 36 -43 65 -41 65 5 0
-55 68 -109 125 -40 41 -126 111 -201 163 -23 16 -64 38 -159 84 -55 27 -108
53 -118 59 -20 11 -128 53 -139 54 -3 0 -10 3 -14 7 -4 5 -16 8 -26 8 -10 0
-18 5 -18 12 0 6 -3 9 -6 5 -3 -3 -36 5 -73 17 -65 23 -136 43 -176 51 -11 2
-20 4 -20 5 0 1 -7 3 -15 5 -8 2 -26 6 -40 9 -14 3 -35 7 -46 10 -12 2 -39 7
-60 11 -22 3 -52 9 -69 12 -51 11 -324 4 -370 -10 -11 -3 -36 -8 -55 -11 -19
-3 -46 -8 -60 -11 -14 -3 -40 -8 -59 -11 -19 -3 -45 -10 -58 -15 -13 -5 -23
-7 -23 -4 0 2 -16 -3 -35 -11 -19 -8 -37 -14 -40 -14 -10 0 -25 -5 -58 -18
-16 -7 -34 -12 -41 -12 -6 0 -16 -4 -22 -8 -11 -10 -101 -44 -110 -42 -4 1
-10 -2 -13 -7 -3 -5 -28 -20 -55 -33 -64 -30 -171 -139 -180 -181 -3 -18 -3
-36 1 -40 8 -7 50 -15 128 -24 52 -6 84 -12 115 -19 14 -3 39 -7 55 -10 87
-13 263 -53 340 -77 22 -7 42 -13 45 -14 3 -1 25 -7 50 -15 25 -7 50 -14 55
-16 6 -1 46 -14 90 -29 44 -15 88 -29 97 -30 10 -2 22 -6 26 -9 5 -3 19 -7 33
-10 39 -7 183 -57 197 -68 6 -6 12 -8 12 -4 0 7 89 -41 166 -89 86 -55 159
-134 170 -186 13 -61 14 -69 6 -69 -4 0 -8 -9 -9 -20 -2 -19 -73 -102 -73 -85
0 3 -7 -1 -17 -10 -14 -14 -31 -16 -112 -11 -93 5 -128 9 -181 21 -60 12 -196
34 -255 41 -16 2 -46 6 -65 9 -172 29 -204 34 -208 30 -3 -3 -11 0 -18 5 -6 6
-16 10 -20 8 -5 -1 -28 2 -52 6 -56 10 -80 14 -122 21 -19 2 -46 7 -60 11 -25
6 -77 14 -115 18 -11 1 -29 5 -40 9 -11 3 -40 9 -65 12 -25 3 -58 8 -75 11
-16 3 -52 7 -80 9 -27 2 -50 4 -50 5 0 4 -86 11 -160 13 -57 2 -94 -2 -130
-15 -57 -21 -74 -35 -80 -69 -5 -25 4 -84 12 -76 2 3 28 -4 56 -14 45 -17 235
-74 277 -84 8 -1 42 -10 75 -20 33 -9 74 -20 90 -24 17 -4 39 -13 50 -18 11
-6 22 -11 25 -11 21 1 130 -37 130 -45 0 -6 3 -8 6 -4 4 3 23 0 43 -8 52 -19
76 -27 76 -24 0 1 11 -4 25 -11 14 -8 30 -15 35 -16 9 -2 79 -28 130 -49 11
-5 22 -9 25 -10 12 -4 48 -19 95 -40 28 -12 87 -36 133 -54 45 -19 85 -37 88
-42 3 -5 11 -9 19 -9 8 0 57 -20 109 -45 53 -25 101 -45 106 -45 6 0 10 -4 10
-9 0 -5 9 -13 20 -16 13 -4 20 -15 20 -31 0 -13 5 -24 12 -24 6 0 8 -3 5 -7
-4 -3 -2 -12 4 -19 6 -8 9 -21 5 -29 -3 -8 -2 -15 3 -15 4 0 8 -7 8 -15 0 -8
-3 -15 -6 -15 -3 0 -6 -14 -5 -32 3 -107 -134 -150 -331 -105 -11 3 -54 11
-95 18 -41 7 -77 13 -80 14 -3 1 -27 5 -55 10 -27 4 -58 11 -67 16 -11 6 -19
5 -24 -2 -5 -8 -8 -8 -13 0 -4 6 -25 12 -46 15 -22 2 -47 6 -55 9 -8 3 -33 9
-55 13 -46 8 -60 11 -95 18 -14 3 -41 8 -60 11 -19 3 -57 10 -85 15 -27 6 -72
12 -100 15 -27 2 -68 7 -90 10 -22 3 -62 7 -90 10 -55 5 -133 14 -180 21 -16
3 -46 7 -65 9 -19 3 -51 8 -70 11 -107 16 -107 16 -130 -16 -34 -48 -21 -90
48 -160 63 -63 111 -84 282 -124 49 -12 116 -32 195 -58 50 -16 100 -31 112
-34 12 -2 35 -9 50 -15 16 -6 35 -12 43 -14 49 -10 100 -27 100 -33 0 -4 8 -8
18 -9 9 -1 40 -12 67 -24 28 -12 52 -23 55 -24 3 -1 49 -22 103 -48 55 -26
101 -47 103 -47 7 0 135 -59 224 -103 80 -40 161 -96 205 -141 28 -29 30 -157
3 -186 -10 -11 -16 -20 -12 -20 9 0 -35 -34 -64 -49 -28 -15 -150 -22 -158
-10 -3 5 -11 6 -17 2 -13 -8 -122 -7 -182 2 -22 3 -62 7 -90 10 -27 2 -61 7
-75 10 -14 4 -38 6 -54 6 -17 0 -34 3 -40 6 -6 4 -23 8 -40 10 -16 2 -41 6
-55 9 -28 5 -90 15 -131 19 -14 2 -25 4 -25 5 0 1 -11 3 -25 4 -14 2 -50 6
-80 11 -30 4 -67 9 -82 9 -16 1 -28 3 -28 6 0 3 -12 6 -27 6 -49 2 -93 9 -93
14 0 3 -10 6 -22 6 -30 2 -109 14 -128 19 -8 2 -53 7 -100 11 -47 4 -94 9
-105 13 -11 3 -40 6 -65 6 -39 0 -45 -3 -48 -23 -2 -13 8 -48 22 -78 14 -30
26 -57 26 -61 0 -31 293 -326 415 -417 138 -103 148 -111 175 -123 8 -4 17
-10 20 -14 6 -9 92 -57 197 -111 49 -25 60 -34 52 -45 -8 -9 -8 -14 2 -18 8
-2 52 -18 99 -35 47 -17 90 -33 95 -34 6 -2 18 -6 27 -10 9 -4 25 -9 35 -11
10 -2 18 -4 18 -5 0 -1 10 -3 23 -6 12 -2 35 -12 49 -21 17 -11 24 -13 19 -5
-6 10 0 9 23 -2 17 -9 31 -14 31 -12 0 3 12 1 28 -5 15 -6 41 -13 57 -15 60
-10 70 -12 70 -14 0 -1 16 -4 35 -7 19 -2 38 -10 42 -16 6 -9 8 -8 8 2 0 11 3
11 15 1 8 -7 24 -10 35 -7 11 3 20 1 20 -5 0 -5 4 -6 10 -3 5 3 10 0 10 -7 0
-10 2 -10 8 -1 5 7 13 9 21 3 8 -4 20 -6 28 -3 7 3 13 1 13 -4 0 -4 16 -8 35
-7 21 1 35 -3 35 -10 0 -7 3 -7 8 -1 8 11 72 16 72 5 0 -10 44 -6 52 5 5 6 8
4 8 -5 0 -13 1 -13 10 0 8 12 10 12 10 1 0 -10 3 -11 13 -3 8 7 18 7 27 2 8
-5 21 -5 29 -1 9 4 32 9 51 10 69 6 75 7 89 15 8 5 28 10 45 11 17 0 38 5 46
10 8 5 20 10 26 11 12 2 108 48 139 67 106 64 153 99 230 173 30 29 56 49 59
46 4 -3 6 0 6 6 0 6 19 31 43 55 23 24 44 48 47 53 2 5 13 18 23 29 43 47 77
89 77 96 0 4 9 5 20 2 12 -3 20 -2 19 3 -5 31 11 36 61 16 22 -8 20 -7 78 -16
38 -6 50 -11 44 -19 -12 -16 -22 -57 -28 -125 -5 -56 -8 -75 -20 -129 -6 -29
-7 -35 -19 -118 -4 -27 -11 -55 -16 -61 -16 -19 16 -47 55 -48 20 -1 36 -4 36
-8 0 -5 3 -7 8 -6 4 1 34 -3 67 -10 33 -6 79 -14 103 -17 24 -2 48 -8 54 -11
7 -5 8 -2 3 5 -6 10 -3 11 11 3 17 -9 89 -23 139 -27 11 -1 37 -5 58 -9 20 -4
52 -9 70 -11 17 -3 43 -7 57 -10 24 -5 75 -13 135 -22 58 -8 80 -12 105 -17
14 -3 45 -8 70 -11 44 -6 69 -9 133 -21 37 -7 54 -9 122 -19 28 -3 61 -8 75
-11 51 -9 96 -16 125 -19 17 -2 30 -4 30 -5 0 -3 88 -13 118 -14 15 -1 27 -4
27 -7 0 -5 11 -7 92 -12 21 -1 38 -4 38 -8 0 -3 17 -6 39 -7 21 -2 49 -5 62
-8 24 -4 61 -10 129 -20 19 -2 46 -7 60 -9 14 -2 45 -6 70 -9 25 -3 54 -8 65
-10 36 -6 119 -18 160 -22 22 -2 51 -6 65 -9 14 -3 45 -8 70 -11 25 -3 56 -8
70 -10 14 -3 41 -7 60 -8 19 -2 35 -4 35 -6 0 -1 20 -3 45 -5 25 -1 45 -4 45
-5 0 -3 37 -7 97 -12 27 -1 48 -5 48 -8 0 -3 12 -5 28 -6 15 0 47 -4 72 -8 82
-13 90 -13 90 -2 0 7 3 7 8 -1 7 -10 37 -16 142 -28 14 -2 25 -4 25 -4 0 -1
23 -4 50 -6 28 -3 66 -7 85 -10 19 -3 55 -7 80 -9 25 -2 52 -6 60 -9 8 -3 22
-5 30 -6 8 0 35 -3 60 -6 25 -3 68 -8 95 -10 28 -2 50 -5 50 -5 0 -4 117 -18
205 -25 30 -2 55 -5 55 -5 0 -3 33 -8 100 -15 39 -4 84 -9 100 -10 17 -2 59
-7 95 -10 35 -3 66 -8 69 -10 2 -3 11 1 19 8 13 9 14 9 8 0 -5 -10 3 -13 31
-14 21 -1 47 -3 58 -4 11 -2 42 -6 69 -9 28 -4 52 -9 55 -11 2 -3 10 0 18 6 7
6 13 7 13 2 0 -5 20 -9 45 -8 25 0 45 -2 45 -6 0 -3 12 -6 28 -6 26 0 119 -9
209 -19 22 -3 65 -7 95 -10 29 -2 71 -6 93 -9 66 -7 177 -16 222 -18 24 -1 43
-4 43 -7 0 -3 24 -5 53 -5 28 0 56 -2 62 -4 5 -3 23 -6 40 -8 16 -1 57 -4 90
-7 33 -3 89 -8 125 -12 36 -4 82 -8 102 -8 21 -1 38 -3 38 -6 0 -3 19 -6 43
-6 23 -1 69 -5 102 -8 107 -10 229 -20 272 -20 24 -1 43 -4 43 -7 0 -3 6 -6
13 -6 39 -2 209 -14 247 -18 25 -3 73 -7 107 -9 33 -2 65 -6 70 -8 4 -3 27 -5
51 -4 23 1 42 -1 42 -4 0 -3 21 -6 48 -6 26 -1 83 -5 127 -9 44 -3 100 -8 125
-10 25 -2 77 -6 115 -10 39 -4 90 -8 115 -10 25 -1 88 -6 140 -10 52 -5 121
-9 152 -9 32 -1 58 -3 58 -6 0 -3 17 -5 38 -6 20 0 84 -4 142 -8 112 -8 200
-14 320 -21 41 -2 75 -5 75 -5 0 -1 34 -4 75 -6 79 -5 184 -11 310 -19 41 -3
107 -7 145 -9 39 -3 70 -5 70 -6 0 -1 41 -3 90 -5 50 -3 128 -7 175 -10 47 -3
132 -7 190 -10 58 -4 132 -8 165 -10 33 -2 112 -6 175 -9 63 -3 156 -8 205
-11 153 -8 345 -16 463 -19 62 -2 116 -6 119 -9 3 -4 13 -2 23 3 10 5 20 7 24
3 6 -6 56 -8 378 -17 98 -3 182 -7 188 -11 5 -3 10 -1 10 5 0 6 5 8 11 5 11
-7 304 -15 671 -18 126 -1 228 -5 228 -9 0 -4 11 -3 25 2 13 5 26 6 29 2 3 -5
460 -9 1018 -9 775 -2 1014 1 1020 10 4 7 8 7 8 2 0 -12 219 -13 238 -1 6 3
13 2 17 -4 4 -6 11 -7 17 -4 6 4 85 8 177 10 296 7 398 11 410 18 6 4 11 2 11
-4 0 -6 5 -8 10 -5 10 6 166 14 357 18 57 1 103 4 103 7 0 3 39 6 88 6 156 3
267 9 280 17 7 5 12 3 12 -3 0 -6 3 -9 8 -6 8 5 180 17 312 21 47 2 85 4 85 5
0 1 29 3 65 5 36 1 110 6 165 10 55 4 129 8 165 10 36 2 65 4 65 5 0 1 29 3
65 5 36 1 65 4 65 5 0 1 36 3 80 5 79 3 162 9 300 20 39 3 102 8 140 10 39 2
70 4 70 5 0 2 160 12 217 14 27 0 48 3 48 6 0 3 26 6 58 7 64 2 187 10 187 13
0 0 29 3 65 5 36 2 94 6 130 9 82 7 194 17 243 20 21 2 40 6 44 10 3 3 12 1
20 -5 9 -8 13 -8 13 -1 0 6 7 9 15 6 8 -3 28 -1 45 4 18 7 32 7 35 1 4 -5 12
-6 18 -2 7 4 32 8 57 9 25 1 45 3 45 4 0 1 27 3 60 6 33 2 80 6 105 9 25 2 68
6 95 9 28 2 86 7 130 12 44 4 90 7 103 8 12 0 22 2 22 6 0 3 17 4 37 4 21 -1
41 4 45 10 5 8 8 7 8 -2 0 -7 3 -11 8 -8 8 5 114 17 272 32 76 7 115 11 115
14 0 1 115 11 167 13 21 1 38 4 38 7 0 3 19 5 43 5 23 -1 46 1 52 4 5 3 21 6
35 7 22 1 113 11 180 19 14 2 54 6 90 10 36 4 79 9 95 11 85 11 178 22 260 30
28 2 64 7 80 9 17 3 57 8 90 11 33 4 68 11 79 16 14 8 17 7 11 -3 -5 -8 -4
-10 3 -5 6 4 33 9 58 12 26 2 53 9 59 14 6 5 17 5 25 0 8 -5 17 -7 22 -4 4 3
29 7 55 10 26 3 62 8 78 10 17 2 48 6 70 9 22 2 58 6 80 10 78 11 130 17 158
17 15 0 27 3 27 7 0 3 24 8 53 9 80 6 91 7 102 13 6 4 20 5 33 4 12 -1 22 1
22 4 0 3 15 6 33 7 36 0 143 14 242 30 17 3 48 7 70 10 22 2 65 8 95 13 30 5
58 7 63 4 4 -2 7 -1 7 4 0 4 15 9 33 9 29 1 54 5 137 18 14 2 46 7 70 10 25 3
56 8 70 11 14 2 43 6 65 9 139 19 161 23 176 32 8 5 9 3 4 -5 -6 -10 -3 -11
14 -2 11 7 21 10 21 7 0 -2 17 0 38 5 38 9 134 22 165 23 9 0 17 3 17 6 0 5
22 8 93 13 15 1 27 4 27 7 0 3 16 6 36 7 20 1 44 5 53 9 9 3 32 8 51 9 19 1
35 3 35 4 0 3 72 11 108 12 15 1 27 5 27 8 0 4 10 7 23 6 12 -1 27 0 32 4 6 3
19 6 30 8 42 4 91 11 125 17 19 4 44 9 55 11 11 2 20 4 20 5 0 1 16 3 35 5 19
2 47 6 63 9 15 3 37 8 50 11 12 2 38 7 57 9 19 3 46 7 60 10 13 3 42 8 65 12
47 7 70 12 70 14 0 2 42 9 160 25 11 2 20 4 20 5 0 3 47 11 137 24 10 1 20 5
24 8 3 4 13 4 22 1 8 -4 13 -2 10 3 -4 5 6 9 20 10 30 0 118 12 142 19 34 10
181 36 208 38 6 0 12 3 12 6 0 3 10 7 23 8 49 3 112 15 130 25 15 8 18 7 12
-3 -5 -8 -4 -10 4 -5 6 4 21 9 34 12 12 2 33 6 47 9 14 3 40 8 59 11 19 2 37
7 41 9 5 3 26 7 49 10 22 3 72 12 111 20 38 8 82 17 97 19 50 9 88 16 113 21
14 3 50 9 80 15 30 6 66 12 80 15 14 3 37 7 52 10 15 2 35 6 45 9 10 3 34 8
53 11 19 3 42 8 50 10 21 6 82 17 98 18 6 0 12 4 12 9 0 5 4 7 8 4 4 -3 26 -1
48 4 62 14 178 34 250 44 54 7 91 32 96 65 9 65 -1 528 -17 726 -5 64 -17 231
-19 270 -1 17 -5 36 -9 42 -4 6 -3 14 3 18 6 4 8 11 5 16 -6 8 -12 74 -20 197
-2 31 -4 57 -5 57 -1 0 -3 27 -5 60 -2 33 -6 94 -9 135 -9 100 -16 191 -21
270 -2 36 -4 65 -5 65 -1 0 -3 23 -5 50 -2 28 -6 82 -9 120 -9 98 -18 233 -19
278 -1 20 -4 37 -7 37 -3 0 -5 26 -6 58 -1 31 -4 93 -8 137 -4 44 -9 112 -12
150 -5 72 -11 130 -14 130 -1 0 -3 18 -5 40 -8 94 -24 210 -42 305 -2 14 -6
45 -8 69 -4 40 -25 85 -25 52 0 -7 -4 -10 -9 -7 -5 4 -20 2 -33 -3 -13 -5 -46
-12 -73 -15 -27 -4 -55 -12 -62 -18 -7 -6 -13 -8 -13 -4 0 4 -10 0 -22 -8 -13
-8 -36 -17 -53 -20 -16 -2 -30 -5 -30 -6 0 -1 -9 -3 -20 -4 -47 -6 -134 -30
-131 -35 2 -3 -15 -7 -37 -8 -23 -1 -43 -6 -45 -11 -1 -5 -11 -8 -21 -5 -10 3
-22 0 -25 -6 -4 -5 -14 -7 -23 -4 -9 4 -14 2 -10 -3 3 -5 -7 -9 -21 -8 -15 1
-31 -1 -37 -5 -5 -3 -14 -6 -20 -8 -5 -1 -21 -5 -35 -9 -17 -4 -10 3 20 23 84
55 133 132 145 228 9 69 15 107 20 125 2 8 7 35 10 60 3 25 7 56 9 70 8 46 26
175 30 220 7 70 15 147 27 250 6 52 12 111 14 130 2 19 6 58 9 85 3 28 8 73
11 100 3 28 8 61 10 75 12 73 20 202 20 340 0 147 -1 158 -26 205 -14 28 -40
60 -57 72 -30 20 -43 21 -193 20 -88 -1 -161 -3 -162 -4z m-1974 -3253 c-1
-21 -67 -258 -132 -480 -11 -36 -45 -154 -77 -262 l-56 -197 31 -153 c17 -84
33 -162 35 -173 2 -11 11 -46 19 -77 13 -51 13 -59 0 -70 -10 -8 -19 -9 -31
-1 -15 9 -23 32 -35 108 -3 17 -20 102 -38 190 l-33 160 -193 235 c-107 129
-202 244 -211 255 -10 11 -55 67 -102 125 -47 58 -93 113 -103 123 -22 22 -19
61 5 65 18 3 25 -3 86 -86 91 -123 528 -649 534 -643 9 9 221 769 234 838 10
56 22 75 47 71 17 -2 22 -9 20 -28z m-1299 -238 c2 -4 7 -28 11 -52 4 -25 18
-103 31 -175 14 -71 29 -152 34 -180 13 -68 18 -95 24 -125 8 -34 11 -54 41
-215 14 -77 32 -171 40 -210 8 -38 21 -108 30 -155 8 -47 17 -94 19 -105 2
-11 9 -40 16 -63 12 -48 2 -72 -30 -72 -9 0 -261 246 -561 547 -299 301 -546
545 -549 542 -3 -2 -4 -7 -3 -11 1 -3 5 -21 8 -40 3 -18 8 -40 10 -48 2 -8 7
-33 10 -55 3 -23 8 -52 10 -65 5 -26 33 -184 41 -235 3 -16 7 -37 9 -45 2 -8
6 -37 10 -64 3 -28 12 -79 20 -115 7 -36 16 -88 20 -115 3 -27 8 -52 9 -55 2
-3 7 -28 10 -55 4 -27 9 -52 10 -55 2 -3 7 -31 10 -61 4 -31 15 -91 25 -133
16 -68 17 -80 4 -93 -18 -17 -42 -18 -48 -1 -2 6 -7 30 -9 52 -3 22 -12 78
-20 125 -8 47 -17 99 -19 115 -3 17 -24 138 -46 270 -23 132 -44 255 -47 274
-3 18 -7 43 -10 55 -2 11 -11 64 -20 116 -8 52 -17 106 -20 120 -2 14 -7 41
-10 60 -3 19 -9 49 -13 65 -14 57 -8 90 16 93 19 3 128 -102 564 -542 298
-300 545 -546 549 -546 4 0 4 17 -1 38 -4 20 -11 53 -14 72 -3 19 -14 78 -25
130 -25 125 -58 297 -64 335 -3 17 -8 41 -11 55 -26 134 -45 231 -50 260 -3
19 -8 42 -10 50 -2 8 -7 31 -10 50 -3 19 -13 69 -22 110 -22 109 -25 130 -19
146 6 15 41 19 50 6z m-19050 -69 c3 -10 8 -34 11 -53 7 -43 48 -254 80 -415
13 -66 26 -132 29 -147 4 -23 33 -168 41 -203 3 -17 17 -89 21 -108 2 -10 5
-26 8 -35 3 -9 7 -35 11 -57 3 -22 10 -56 15 -75 5 -19 11 -46 14 -60 9 -50
46 -225 51 -241 7 -21 -21 -50 -40 -42 -9 3 -17 15 -20 27 -11 55 -28 143 -30
156 -5 41 -38 189 -44 198 -4 6 -47 18 -96 26 -157 28 -139 24 -470 86 -88 16
-161 26 -163 22 -1 -4 -40 -70 -87 -147 -47 -77 -89 -147 -94 -155 -12 -21
-55 -19 -59 3 -2 9 25 61 61 115 61 93 107 166 317 502 53 85 133 214 178 285
45 72 102 166 128 210 26 44 53 90 61 103 17 28 69 31 77 5z m920 -162 c9 -7
16 -17 16 -22 0 -15 304 -649 579 -1209 45 -90 82 -157 82 -147 1 9 2 20 3 25
1 4 6 33 10 66 4 32 9 68 11 80 2 11 6 43 10 69 4 27 8 57 10 66 2 10 6 42 10
71 4 29 8 60 10 69 1 9 6 39 9 66 8 57 16 108 21 137 2 11 7 47 10 81 4 34 8
64 10 67 2 3 6 34 10 70 4 36 8 67 10 70 2 3 6 34 10 70 4 36 9 67 10 71 2 3
7 39 11 80 6 75 16 99 39 99 26 0 34 -24 24 -73 -5 -26 -11 -69 -14 -95 -4
-26 -8 -54 -10 -62 -2 -8 -7 -42 -11 -75 -3 -33 -8 -63 -10 -66 -2 -3 -6 -28
-9 -55 -7 -68 -18 -141 -39 -279 -4 -26 -18 -122 -32 -220 -2 -16 -13 -91 -24
-165 -12 -74 -23 -162 -27 -195 -3 -33 -11 -66 -18 -74 -27 -28 -50 -1 -119
141 -39 79 -131 269 -206 423 -76 154 -153 314 -173 355 -19 41 -70 147 -112
235 -42 88 -84 177 -92 198 -17 42 -33 48 -34 15 0 -13 -2 -30 -4 -38 -6 -32
-30 -177 -41 -249 -2 -19 -16 -102 -30 -185 -14 -83 -27 -167 -30 -186 -2 -19
-9 -60 -14 -90 -5 -30 -11 -68 -14 -85 -3 -16 -14 -86 -26 -155 -12 -69 -23
-147 -25 -175 -2 -36 -8 -53 -23 -63 -17 -11 -22 -10 -35 2 -13 14 -14 23 -2
73 7 32 16 76 19 98 10 70 17 109 26 160 5 28 12 70 15 95 3 25 8 52 10 60 2
8 6 33 10 55 3 22 10 67 16 100 6 33 12 71 14 85 2 14 20 124 40 245 20 121
38 231 40 245 14 95 18 116 27 127 11 14 31 12 52 -6z m16339 -146 c22 -39 51
-91 66 -117 35 -64 450 -771 478 -817 13 -20 26 -43 30 -51 4 -8 31 -54 60
-102 56 -91 63 -112 37 -122 -28 -11 -32 -7 -79 77 -39 69 -117 202 -143 243
-5 9 -23 9 -62 3 -30 -5 -71 -11 -90 -14 -20 -3 -45 -7 -55 -9 -11 -2 -42 -7
-70 -10 -27 -4 -57 -9 -65 -11 -8 -2 -35 -6 -60 -9 -25 -3 -56 -8 -70 -10 -31
-6 -161 -25 -214 -31 -43 -6 -49 -9 -52 -28 -2 -15 -62 -291 -72 -332 -5 -21
-15 -31 -30 -33 -30 -5 -38 20 -22 71 7 23 14 53 17 67 2 14 13 59 23 100 10
41 31 127 45 190 15 63 28 122 30 130 22 92 172 764 191 857 4 21 25 32 54 29
8 -1 32 -33 53 -71z m-14843 -70 c8 -10 10 -27 5 -52 -9 -47 -11 -59 -30 -208
-9 -66 -18 -131 -20 -145 -2 -14 -6 -44 -9 -67 -3 -24 -9 -62 -12 -85 -3 -24
-7 -54 -9 -68 -7 -51 -15 -106 -20 -150 -4 -25 -8 -56 -10 -70 -2 -14 -6 -45
-10 -70 -3 -25 -7 -61 -10 -80 -3 -19 -7 -55 -10 -80 -4 -25 -8 -57 -11 -72
-2 -16 -8 -67 -13 -114 -9 -93 -21 -116 -49 -98 -18 12 -19 31 -8 99 8 46 15
95 21 145 2 19 7 53 9 75 6 47 15 108 21 150 5 31 9 63 20 150 6 50 8 64 20
140 3 22 8 58 11 80 7 62 45 336 50 370 3 17 7 54 10 84 6 73 27 99 54 66z
m13982 -52 c73 -34 128 -84 158 -144 78 -152 53 -337 -60 -443 -68 -63 -167
-111 -255 -122 -22 -2 -51 -7 -65 -9 -14 -2 -52 -7 -85 -11 -33 -3 -67 -7 -75
-9 -8 -1 -43 -6 -78 -10 l-63 -7 5 -52 c5 -44 16 -131 31 -241 2 -16 9 -70 15
-120 5 -49 15 -111 21 -138 13 -54 2 -78 -31 -70 -23 6 -27 19 -34 113 -6 67
-10 105 -26 225 -12 91 -18 139 -25 200 -3 28 -8 61 -10 75 -3 14 -7 52 -11
85 -3 33 -8 68 -9 77 -2 9 -7 48 -10 85 -4 37 -8 75 -10 83 -2 8 -7 42 -10 75
-4 33 -8 71 -11 85 -2 14 -6 50 -9 80 -3 30 -11 77 -17 104 -10 44 -9 51 8 63
10 7 29 13 43 14 14 0 35 2 46 4 11 3 45 7 75 11 30 3 62 8 70 9 8 2 44 6 80
10 36 4 67 9 69 11 2 2 50 2 107 0 88 -3 111 -7 166 -33z m-13375 -35 c6 -11
127 -365 273 -798 15 -47 46 -134 68 -195 21 -60 41 -116 43 -124 3 -7 50 59
104 148 179 289 275 445 321 521 24 41 49 82 54 90 6 8 39 64 76 125 64 108
78 125 101 125 14 0 45 -29 39 -38 -4 -8 -25 -167 -32 -252 -2 -30 -6 -73 -9
-95 -2 -22 -7 -67 -10 -100 -3 -33 -8 -78 -10 -100 -3 -22 -7 -67 -10 -100 -3
-33 -7 -73 -10 -90 -2 -16 -7 -66 -10 -110 -4 -44 -8 -92 -11 -106 -2 -14 -6
-52 -9 -85 -3 -32 -7 -77 -10 -99 -2 -22 -7 -71 -10 -110 -7 -76 -13 -89 -41
-83 -21 4 -23 33 -11 143 4 33 10 85 13 115 2 30 7 71 9 90 3 19 7 65 10 101
3 36 7 74 9 86 3 11 7 56 11 99 4 43 9 86 10 94 2 8 6 49 10 90 3 41 8 86 10
100 2 14 6 59 10 100 4 41 11 104 16 140 13 94 12 96 -8 77 -10 -9 -27 -33
-38 -54 -11 -21 -27 -49 -36 -63 -9 -14 -34 -54 -56 -90 -22 -36 -131 -213
-243 -395 -111 -181 -210 -336 -218 -342 -30 -24 -52 7 -99 142 -92 267 -231
674 -272 798 -39 114 -61 157 -59 110 1 -18 -9 -105 -17 -153 -2 -14 -7 -50
-10 -80 -3 -30 -8 -66 -10 -80 -2 -14 -7 -54 -11 -90 -3 -36 -7 -72 -9 -80 -2
-8 -6 -43 -10 -77 -4 -35 -8 -75 -10 -90 -2 -16 -6 -57 -10 -93 -4 -36 -8 -72
-10 -80 -4 -15 -11 -74 -20 -155 -2 -22 -6 -62 -9 -90 -3 -27 -8 -70 -11 -94
-5 -50 -20 -65 -48 -49 -19 10 -19 29 -2 118 2 11 6 45 10 77 3 32 8 69 10 83
2 14 6 50 10 80 9 79 14 126 25 205 5 39 12 97 15 130 4 33 8 67 10 75 2 8 6
44 10 80 3 36 8 76 10 90 2 14 7 43 9 65 3 22 10 76 16 120 5 44 12 109 16
145 7 70 16 90 45 90 10 0 21 -6 26 -12z m12182 -62 c7 -8 11 -20 10 -28 -2
-7 1 -44 6 -83 4 -38 9 -79 10 -90 11 -120 17 -175 21 -199 4 -15 8 -47 9 -69
2 -22 6 -63 10 -91 9 -71 12 -101 30 -266 9 -80 18 -161 20 -180 3 -19 7 -62
11 -95 3 -33 11 -97 18 -142 12 -83 7 -113 -18 -113 -25 0 -34 25 -41 105 -3
44 -8 91 -10 105 -2 14 -6 52 -10 85 -3 33 -10 98 -16 145 -6 47 -12 108 -14
135 -8 91 -15 159 -25 235 -5 41 -12 102 -16 135 -3 33 -8 68 -9 77 -5 26 -19
169 -19 206 -1 17 -3 32 -6 32 -4 0 -89 -234 -97 -265 -2 -10 -75 -215 -86
-245 -4 -8 -24 -67 -46 -130 -115 -334 -152 -435 -164 -442 -29 -19 -46 -3
-112 105 -239 392 -495 820 -495 826 0 4 -10 16 -22 27 -12 10 -19 14 -15 8 3
-6 9 -44 12 -85 10 -115 12 -140 19 -194 3 -27 8 -78 11 -112 12 -147 16 -190
20 -223 3 -19 7 -66 10 -105 10 -124 15 -179 20 -215 2 -19 7 -64 10 -100 3
-36 8 -90 12 -120 10 -79 10 -82 -9 -93 -30 -19 -45 7 -47 80 -1 36 -3 69 -5
72 -2 3 -7 47 -10 96 -4 50 -9 106 -11 125 -5 45 -13 126 -20 215 -3 39 -8 86
-10 105 -3 19 -7 67 -10 105 -3 39 -7 90 -10 115 -2 25 -7 72 -10 105 -18 193
-26 268 -30 296 -3 16 1 32 10 39 16 13 65 6 65 -10 0 -6 23 -46 50 -90 28
-44 50 -82 50 -84 0 -2 19 -35 42 -72 206 -340 387 -640 417 -691 20 -34 39
-63 42 -63 3 0 22 46 42 103 19 56 63 181 97 277 34 96 66 186 70 200 42 124
138 398 142 406 3 5 11 32 18 59 20 77 59 108 89 71z m-10158 -200 c101 -348
240 -808 350 -1160 44 -139 49 -161 36 -173 -18 -19 -57 -1 -57 25 0 19 -90
323 -99 334 -7 8 -49 13 -181 23 -99 7 -177 13 -258 20 -31 3 -80 8 -107 10
-28 2 -80 7 -117 10 l-68 7 -72 -149 c-40 -82 -77 -160 -83 -173 -11 -28 -52
-39 -61 -17 -3 8 118 264 269 568 312 630 347 702 347 714 0 20 32 42 55 37
21 -4 28 -15 46 -76z m8178 29 c315 -75 511 -424 468 -836 -16 -154 -78 -290
-179 -391 -109 -110 -251 -166 -418 -166 -278 0 -488 172 -570 468 -92 329 7
690 229 839 64 43 154 81 208 88 21 3 40 7 42 9 11 10 163 2 220 -11z m-7493
-20 c49 -3 116 -7 149 -10 56 -4 117 -8 305 -20 41 -2 130 -7 196 -10 157 -8
173 -10 186 -23 6 -6 8 -18 4 -28 -5 -13 -14 -15 -49 -10 -62 10 -112 14 -258
21 -73 3 -135 8 -140 10 -17 11 -18 1 -34 -240 -8 -126 -15 -232 -20 -330 -3
-49 -7 -121 -10 -160 -2 -38 -7 -106 -10 -150 -2 -44 -7 -120 -11 -170 -3 -49
-7 -127 -9 -173 -3 -90 -11 -108 -45 -97 -21 7 -22 10 -15 107 3 55 8 121 10
147 2 25 7 93 10 151 3 58 7 125 9 150 3 25 7 95 10 155 4 61 9 144 12 185 5
83 10 163 20 323 l6 107 -39 1 c-21 1 -58 3 -83 4 -25 2 -106 7 -180 10 -157
8 -160 8 -160 34 0 18 32 33 51 24 4 -1 46 -5 95 -8z m6048 -69 c84 -23 151
-62 211 -124 63 -62 88 -108 74 -134 -16 -29 -37 -21 -60 24 -61 120 -200 198
-364 204 -110 4 -159 -6 -250 -51 -141 -70 -235 -195 -290 -385 -29 -99 -27
-327 3 -433 60 -211 175 -347 349 -414 89 -33 247 -38 333 -9 161 54 258 150
313 309 7 20 43 23 50 4 15 -40 -63 -179 -139 -246 -224 -197 -602 -176 -801
45 -85 94 -141 211 -172 359 -15 74 -7 337 14 410 65 235 234 406 445 449 81
16 207 13 284 -8z m-4783 -10 c2 -14 2 -25 -5 -151 -9 -154 -15 -267 -21 -430
-3 -82 -8 -186 -10 -230 -9 -172 -18 -393 -19 -464 -1 -57 -5 -76 -18 -84 -24
-16 -49 8 -43 42 2 14 6 81 10 148 3 68 7 162 10 210 2 49 7 151 10 228 3 77
8 169 9 205 7 122 19 415 20 473 1 38 6 61 15 67 17 10 40 2 42 -14z m1233
-31 c79 -22 173 -84 236 -153 168 -182 223 -479 147 -790 -13 -50 -74 -168
-114 -221 -115 -150 -278 -222 -483 -216 -301 10 -513 216 -565 550 -8 50 -8
216 0 270 34 227 136 402 294 503 64 41 173 77 246 81 28 2 51 4 52 5 6 6 141
-15 187 -29z m1837 -119 c0 -61 3 -255 5 -431 3 -176 6 -434 7 -574 l2 -254
-22 -3 c-21 -4 -83 76 -287 370 -16 22 -74 106 -130 186 -157 226 -195 280
-348 506 -79 117 -145 210 -148 207 -3 -3 -6 -287 -7 -631 -1 -345 -2 -630 -2
-634 -2 -13 -49 -9 -53 5 -2 6 -3 111 -2 232 2 121 3 421 4 667 1 362 4 449
15 458 20 17 48 -2 86 -57 147 -219 371 -546 489 -713 6 -8 85 -121 176 -250
91 -129 168 -238 172 -242 4 -4 6 28 5 70 -1 42 -4 246 -8 452 -3 206 -8 457
-10 557 -3 161 -2 184 13 192 36 20 42 3 43 -113z"/>
<path d="M6587 7682 c-49 -81 -126 -208 -172 -282 -47 -74 -88 -142 -92 -150
-4 -8 -38 -64 -75 -124 -38 -59 -67 -110 -65 -112 3 -3 163 -36 235 -48 52 -9
87 -16 112 -21 14 -3 39 -8 55 -10 82 -15 142 -26 165 -30 46 -10 110 -17 110
-12 0 5 -27 148 -85 447 -19 96 -36 186 -38 200 -3 14 -15 85 -28 158 -13 72
-26 132 -29 132 -3 0 -45 -67 -93 -148z"/>
<path d="M23912 7563 c0 -10 -24 -124 -52 -253 -28 -129 -53 -246 -56 -259 -3
-12 -11 -51 -19 -85 -8 -33 -16 -72 -18 -86 -7 -34 -47 -212 -53 -229 -4 -11
6 -13 48 -7 29 3 62 8 73 10 11 2 43 7 70 10 28 4 61 9 75 11 80 13 302 47
340 52 87 11 89 -3 -49 238 -70 121 -143 249 -163 285 -20 36 -66 116 -102
179 -36 63 -68 123 -72 133 -7 23 -19 23 -22 1z"/>
<path d="M22819 7435 c-3 -2 -27 -7 -54 -10 -28 -3 -66 -7 -85 -10 -85 -11
-146 -18 -158 -18 -10 0 -12 -9 -8 -31 3 -17 8 -51 11 -76 2 -25 14 -115 25
-200 11 -85 22 -175 24 -200 12 -106 19 -149 25 -146 3 2 38 7 77 10 39 4 82
9 94 11 12 2 48 7 79 10 217 24 330 85 391 209 80 162 12 355 -149 430 -36 16
-69 21 -157 23 -61 1 -113 1 -115 -2z"/>
<path d="M11675 7088 c-44 -94 -163 -342 -284 -591 -44 -92 -81 -172 -81 -177
0 -6 -5 -10 -12 -10 -15 0 -2 -13 16 -16 8 -1 54 -5 103 -9 48 -3 104 -8 123
-10 133 -13 209 -19 363 -30 l88 -7 -11 23 c-5 13 -25 78 -44 144 -19 66 -58
199 -86 295 -29 96 -60 204 -70 240 -10 36 -29 102 -42 148 l-23 83 -40 -83z"/>
<path d="M19768 7154 c-2 -1 -23 -5 -47 -8 -191 -26 -348 -173 -418 -394 -32
-99 -41 -309 -18 -415 77 -356 334 -547 656 -487 67 12 182 69 229 112 128
118 199 306 194 512 -3 151 -22 233 -84 361 -95 198 -247 306 -447 318 -35 2
-64 3 -65 1z"/>
<path d="M14662 7023 c-197 -40 -349 -201 -413 -439 -29 -106 -32 -336 -5
-434 72 -266 271 -430 521 -430 145 0 266 50 365 151 272 278 239 847 -63
1072 -107 80 -259 110 -405 80z"/>
</g>
</svg>
