<?xml version="1.0" encoding="UTF-8"?> <!-- Generator: Adobe Illustrator 23.1.1, SVG Export Plug-In . SVG Version: 6.00 Build 0) --> <svg xmlns="http://www.w3.org/2000/svg" xmlns:xlink="http://www.w3.org/1999/xlink" version="1.1" id="Capa_1" x="0px" y="0px" viewBox="0 0 566.929 566.929" xml:space="preserve"> <rect fill="#FFFFFF" width="566.929" height="566.929"></rect> <g> <path fill-rule="evenodd" clip-rule="evenodd" d="M475.015,292.174c-2.654,0-4.908,2.041-4.908,4.817 c0,2.793,2.253,4.828,4.908,4.828c2.636,0,4.891-2.037,4.891-4.828C479.904,294.215,477.651,292.174,475.015,292.174 L475.015,292.174z M475.015,301.023c-2.211,0-3.933-1.711-3.933-4.032c0-2.297,1.722-4.022,3.933-4.022 c2.195,0,3.912,1.724,3.912,4.022C478.927,299.312,477.207,301.023,475.015,301.023L475.015,301.023z"></path> <path fill-rule="evenodd" clip-rule="evenodd" d="M475.79,297.323c0.827-0.092,1.443-0.533,1.443-1.525 c0-1.105-0.641-1.586-1.964-1.586h-2.121v5.569h0.838v-2.419h0.974l1.468,2.419h0.949L475.79,297.323L475.79,297.323z M473.986,296.657v-1.722h1.149c0.588,0,1.216,0.12,1.216,0.815c0,0.853-0.628,0.907-1.348,0.907H473.986L473.986,296.657z"></path> <path fill-rule="evenodd" clip-rule="evenodd" d="M147.898,269.798c1.378,0.015,2.323,0.433,3.087,0.794 c1.594,0.754,3.461,1.623,5.8,2.745c0,0.013,3.78-2.678,3.982-2.814c1.281-0.88,2.52-0.212,2.919,0.542 c1.411,2.656,4.007,8.171,5.378,13.213c0.164,0.607-0.029,1.552-0.979,1.833c-0.544,0.162-1.485,0.296-2.467,0.418 c-1.367,0.172-1.34,1.275-1.34,1.945c0,0.825,0.01,6.399,0.01,8.299c0.034,1.172-0.861,4.992-5.275,4.985 c-0.296,0-10.114-0.002-10.067-0.002c-3.809,0.019-6.869-3.198-6.89-6.623c-0.004-2.253-0.002-17.93,0.004-19.688 C142.075,272.049,145.122,269.767,147.898,269.798L147.898,269.798z"></path> <path fill-rule="evenodd" clip-rule="evenodd" d="M131.974,301.76H99.237v3.637h38.413c0,0,1.384-3.217,1.384-6.772 c0-0.189,0.015-24.685,0.015-24.685c0-1.945,0.792-5.231,4.788-6.103c0.111-0.025,0.225-0.048,0.336-0.071 c11.342-2.68,23.029-0.239,29.612,2.604c1.191,0.573,1.464-0.376,1.422-0.775c0.145-5.55-4.072-11.871-11.833-12.254 c-6.3-0.145-9.794,2.119-11.077,2.749c-0.097,0.046-0.258,0.025-0.403-0.134c-1.159-1.149-3.643-2.864-6.43-3.662 c-0.416-0.092-0.456-0.703,0.025-0.756c5.962-0.643,11.183,0.034,13.36,0.391c0.502,0.08,0.874-0.212,0.676-0.676 c-0.149-0.349-0.277-0.514-0.529-1.056c-0.531-1.138-1.936-2.35-3.721-2.85c-4.685-1.302-12.669-2.43-19.78-2.472 c-8.007-0.05-16.443,1.55-18.575,2.024c-0.51,0.113-1.228,0.294-1.354,0.321c-0.584,0.116-0.72,0.666-0.468,0.943 c0.158,0.174,0.599,0.544,0.809,0.802c0.265,0.332,0.389,0.798-0.116,1.287l-14.803,13.299h10.128l0.116-0.01 c0.659-0.015,1.281,0.584,1.285,1.342c0.002,0.682-0.546,1.325-1.235,1.325l-0.088,0.006H98.038l-4.026,3.658h17.226l0.094-0.006 c0.678,0.004,1.203,0.708,1.193,1.344c-0.006,0.59-0.504,1.31-1.193,1.31l-0.103,0.004H91.062l-4.036,3.646h34.795l0.111,0.004 c0.685,0,1.214,0.704,1.224,1.317c0.01,0.714-0.493,1.361-1.197,1.354l-0.092-0.002H87.023v3.633h34.766l0.107,0.01 c0.796,0.002,1.258,0.722,1.254,1.386c-0.002,0.605-0.584,1.252-1.273,1.252l-0.092,0.002H87.023v3.665h45.385h0.111 c0.754,0.021,1.237,0.666,1.216,1.373c-0.019,0.617-0.531,1.275-1.214,1.275l-0.094-0.004H99.245v3.658h32.729l0.685-0.002 c0.617,0,1.147,0.762,1.147,1.38s-0.542,1.283-1.157,1.283h-0.674V301.76z"></path> <path fill-rule="evenodd" clip-rule="evenodd" d="M111.459,314.331l-0.006,3.719c0,0,4.92,0.015,7.726,0 c6.913-0.042,11.449-3.719,11.449-3.719H111.459L111.459,314.331z"></path> <path fill-rule="evenodd" clip-rule="evenodd" d="M111.459,308.064l-0.006,3.643h22.22c1.027-1.033,2.348-2.936,2.692-3.639 L111.459,308.064L111.459,308.064z"></path> <path fill-rule="evenodd" clip-rule="evenodd" d="M469.797,285.561c-0.004-0.069-0.015-0.132-0.019-0.197 c-0.128-2.833-1.069-5.363-2.39-7.325c-2.755-4.32-7.583-6.646-13.396-6.575c-5.811-0.071-10.643,2.255-13.398,6.575 c-1.321,1.961-2.262,4.492-2.388,7.325c-0.006,0.065-0.017,0.13-0.021,0.197c-0.792,9.479,4.733,16.038,14.15,16.792 c0.563,0.046,1.115,0.065,1.657,0.059c0.542,0.006,1.092-0.015,1.653-0.059C465.065,301.599,470.59,295.04,469.797,285.561 L469.797,285.561z M454.721,297.903c-0.25,0.019-0.493,0.027-0.727,0.031c-0.237-0.004-0.477-0.01-0.727-0.031 c-1.384-0.13-2.472-0.62-3.467-1.382c-0.281-0.237-0.563-0.504-0.834-0.811c-1.447-1.634-2.232-4.418-2.417-6.619 c-0.426-5.122,0.603-12.608,6.896-13.112c0.162-0.015,0.319-0.021,0.475-0.023c0.023,0,0.046-0.002,0.074,0 c0.023-0.002,0.048,0,0.073,0c0.155,0.002,0.315,0.01,0.475,0.023c6.294,0.504,7.321,7.99,6.894,13.112 c-0.185,2.203-0.888,4.933-2.417,6.619c-0.273,0.305-0.55,0.575-0.832,0.811C457.19,297.283,456.014,297.798,454.721,297.903 L454.721,297.903z"></path> <path fill-rule="evenodd" clip-rule="evenodd" d="M407.179,278.505c0-2.346,0.233-6.468,0.233-6.468h-0.013h-7.709h-0.013 c0,0,0.233,4.122,0.233,6.468l-0.017,16.892c0,2.346-0.212,6.34-0.212,6.34h0.017h7.694h0.017c0,0-0.212-3.996-0.212-6.34 L407.179,278.505L407.179,278.505z"></path> <path fill-rule="evenodd" clip-rule="evenodd" d="M362.077,297.147c-1.613,0-3.734,0-5.37,0.004 c-0.073-2.984-0.107-5.867-0.115-8.486l-0.006-0.407h0.004c0-0.023,0-0.046,0-0.071h8.914v-4.198h-8.908 c0.027-4.523,0.111-7.495,0.111-7.495l11.071-0.01v-4.454c-7.736,0.029-18.911,0-18.911,0s0.166,4.101,0.166,6.445v16.861 c0,2.144-0.134,5.79-0.158,6.397h19.631l0.017-4.715C368.522,297.018,364.656,297.147,362.077,297.147L362.077,297.147z"></path> <path fill-rule="evenodd" clip-rule="evenodd" d="M233.358,297.147c-1.613,0-3.736,0-5.37,0.004 c-0.074-2.982-0.107-5.867-0.118-8.486l-0.004-0.403h0.004c0-0.025,0-0.05,0-0.074h8.917v-4.198h-8.908 c0.025-4.521,0.111-7.495,0.111-7.495l11.069-0.006v-4.454c-7.734,0.025-18.91,0-18.91,0s0.168,4.099,0.168,6.443v16.861 c0,2.144-0.134,5.792-0.157,6.397h19.631l0.015-4.715C239.8,297.018,235.938,297.147,233.358,297.147L233.358,297.147z"></path> <path fill-rule="evenodd" clip-rule="evenodd" d="M387.344,285.76l8.524-13.717h-5.905l-0.048,0.126 c-1.787,3.091-4.011,6.825-4.897,8.192l-0.342,0.554l-4.937-8.87h-8.879l8.56,15.359l-8.919,14.337h5.872 c3.803-6.5,5.756-9.488,5.756-9.488l5.298,9.488h8.841L387.344,285.76L387.344,285.76z"></path> <path fill-rule="evenodd" clip-rule="evenodd" d="M431.262,297.697c-6.869,0-10.569-5.051-10.385-11.271 c0.164-5.414,2.642-10.017,8.539-10.412c2.26-0.151,4.101,0.241,7.272,1.092l-0.323-4.641c0,0-2.684-0.857-6.533-1.004 c-4.895-0.187-9.322,0.758-12.86,4.013c-3.142,2.892-5.025,7.167-5.025,11.315c0,4.597,1.89,8.835,5.439,11.766 c3.688,3.11,7.646,3.811,12.348,3.811c3.089,0,4.904-0.206,7.898-1.016l-0.447-4.555 C436.547,297.012,434.38,297.697,431.262,297.697L431.262,297.697z"></path> <path fill-rule="evenodd" clip-rule="evenodd" d="M332.081,267.587l8.606-0.004l0.239,1.982 c1.921,19.841,3.102,32.185,3.102,32.185h-8.957l-0.888-12.296l-0.821-10.981l-7.589,23.26c-2.006,0.006-4.794,0-4.794,0 s-2.405-8.266-2.841-9.421l-4.347-13.95c0,0-0.668,7.768-0.926,11.09c-0.523,6.659-0.989,12.298-0.989,12.298h-6.684 c0,0,2.736-27.777,2.938-29.469c0.208-1.743,0.54-4.694,0.54-4.694h8.782l7.287,20.005L332.081,267.587L332.081,267.587z"></path> <path fill-rule="evenodd" clip-rule="evenodd" d="M301.589,285.599c-0.004-0.065-0.015-0.13-0.021-0.195 c-0.126-2.82-1.06-5.342-2.377-7.293c-2.743-4.297-7.549-6.617-13.335-6.546c-5.785-0.074-10.597,2.247-13.339,6.546 c-1.315,1.951-2.251,4.473-2.377,7.293c-0.004,0.065-0.015,0.13-0.019,0.195c-0.79,9.44,4.71,15.966,14.089,16.718 c0.557,0.042,1.107,0.061,1.646,0.057c0.538,0.006,1.088-0.015,1.646-0.057C296.876,301.565,302.376,295.036,301.589,285.599 L301.589,285.599z M286.58,297.886c-0.25,0.019-0.491,0.027-0.725,0.034c-0.237-0.004-0.477-0.008-0.727-0.034 c-1.378-0.13-2.459-0.615-3.452-1.375c-0.279-0.235-0.559-0.5-0.827-0.809c-1.441-1.625-2.224-4.397-2.407-6.59 c-0.426-5.099,0.599-12.556,6.865-13.056c0.16-0.013,0.317-0.019,0.473-0.023c0.025,0,0.048,0,0.074,0c0.023,0,0.046,0,0.073,0 c0.153,0.004,0.311,0.01,0.473,0.023c6.266,0.5,7.289,7.957,6.865,13.056c-0.183,2.192-0.884,4.91-2.407,6.59 c-0.273,0.305-0.55,0.571-0.83,0.809C289.037,297.27,287.865,297.783,286.58,297.886L286.58,297.886z"></path> <path fill-rule="evenodd" clip-rule="evenodd" d="M218.286,301.735c-0.26-0.611-1.854-4.381-3.024-7.423l-10.036-26.727h-7.812 c0,0-2.23,6.26-2.549,7.3l-7.329,20.725c-0.958,2.65-2.285,6.13-2.285,6.13h6.376c0,0,1.804-5.767,2.178-6.804l0.981-2.883h11.054 l1.508,4.387c0.317,0.825,1.625,5.227,1.644,5.294h9.295V301.735z M196.402,287.19l3.723-11.059l0.212-0.645l3.891,11.703H196.402 L196.402,287.19z"></path> <path fill-rule="evenodd" clip-rule="evenodd" d="M270.513,301.739c-1.844-2.652-2.526-3.749-3.942-5.695l-5.328-8.276 c2.562-1.258,4.966-3.381,5.332-7.812c0.227-2.774-1.256-5.078-2.14-5.861c-1.281-1.136-2.533-1.596-4.305-1.81 c-1.415-0.189-2.442-0.202-3.297-0.258h-12.539c0,0,0.151,4.108,0.151,6.455v16.796c0,2.35-0.151,6.457-0.151,6.457h7.715 c0,0-0.229-4.11-0.229-6.457l0.055-5.389c0,0,1.678,0.006,2.858,0.01l4.885,8.946c0.659,1.138,1.602,2.564,1.827,2.896h9.108 V301.739z M256.875,285.156c-1.155,0.601-3.755,0.433-5.042,0.357l0.101-8.488l0.722-0.048c2.363-0.191,4.091,0.134,4.801,0.449 c1.058,0.468,1.682,1.472,1.739,3.142C259.282,283.068,258.331,284.402,256.875,285.156L256.875,285.156z"></path> </g> </svg> 