<?xml version="1.0" encoding="UTF-8"?> <!-- Generator: Adobe Illustrator 23.1.1, SVG Export Plug-In . SVG Version: 6.00 Build 0) --> <svg xmlns="http://www.w3.org/2000/svg" xmlns:xlink="http://www.w3.org/1999/xlink" version="1.1" id="Capa_1" x="0px" y="0px" viewBox="0 0 147.806 29.792" xml:space="preserve"> <g> <path fill="#FFFFFF" d="M14.937,0.102c-4.125,0-7.85,1.7-10.524,4.432V2.207c0-1.162-0.943-2.105-2.105-2.105 c-1.163,0-2.105,0.943-2.105,2.105v12.63c0,8.137,6.596,14.734,14.734,14.734s14.735-6.597,14.735-14.734 C29.672,6.699,23.075,0.102,14.937,0.102 M14.937,25.361c-5.812,0-10.524-4.712-10.524-10.524c0-5.813,4.712-10.525,10.524-10.525 c5.813,0,10.525,4.712,10.525,10.525C25.462,20.649,20.75,25.361,14.937,25.361"></path> <path fill="#FFFFFF" d="M115.975,0.102c-8.138,0-14.735,6.597-14.735,14.735c0,8.137,6.597,14.734,14.735,14.734 c4.125,0,7.85-1.7,10.524-4.432v2.327c0,1.163,0.943,2.105,2.105,2.105c1.163,0,2.105-0.942,2.105-2.105V14.838v-0.001 C130.709,6.699,124.112,0.102,115.975,0.102 M115.975,25.361c-5.813,0-10.525-4.712-10.525-10.524 c0-5.813,4.712-10.525,10.525-10.525c5.812,0,10.524,4.712,10.524,10.525C126.499,20.649,121.787,25.361,115.975,25.361"></path> <path fill="#FFFFFF" d="M97.029,2.207c0-1.162-0.942-2.105-2.104-2.105c-1.163,0-2.105,0.943-2.105,2.105v2.327 c-2.674-2.732-6.399-4.432-10.525-4.432c-8.138,0-14.734,6.597-14.734,14.735c0,8.137,6.596,14.734,14.734,14.734 s14.734-6.597,14.734-14.734v-0.002V2.207z M82.295,25.361c-5.812,0-10.524-4.712-10.524-10.524 c0-5.813,4.712-10.525,10.524-10.525c5.812,0,10.525,4.712,10.525,10.525C92.82,20.649,88.107,25.361,82.295,25.361"></path> <path fill="#FFFFFF" d="M137.024,0.102h-6.314c-0.582,0-1.053,0.471-1.053,1.052s0.471,1.052,1.053,1.052h2.104v5.263 c0,0.581,0.472,1.052,1.053,1.052s1.053-0.471,1.053-1.052V2.206h2.104c0.581,0,1.053-0.471,1.053-1.052 S137.605,0.102,137.024,0.102"></path> <path fill="#FFFFFF" d="M147.018,0.293c-0.505-0.288-1.147-0.112-1.436,0.393c-0.006,0.01-2.236,4.442-2.236,4.442 c-0.002-0.019-2.257-4.451-2.251-4.473c-0.288-0.505-0.931-0.681-1.435-0.393c-0.505,0.288-0.681,0.931-0.393,1.436 c0.048,0.034,3.147,6.273,3.157,6.293c0.288,0.505,0.932,0.68,1.437,0.392c0.184-0.105,0.307-0.267,0.397-0.444 c0.031-0.058,3.108-6.173,3.153-6.21C147.699,1.224,147.523,0.581,147.018,0.293"></path> <path fill="#FFFFFF" d="M63.351,14.836L63.351,14.836c0,8.138-6.597,14.734-14.734,14.734c-8.138,0-14.735-6.596-14.735-14.734 V4.311c0-1.162,0.942-2.105,2.105-2.105c1.162,0,2.105,0.943,2.105,2.105v10.525c0,5.812,4.712,10.524,10.525,10.524 c5.812,0,10.524-4.712,10.524-10.524V4.311c0-1.162,0.942-2.105,2.106-2.105c1.162,0,2.104,0.943,2.104,2.105 C63.351,4.311,63.351,14.836,63.351,14.836z"></path> </g> </svg> 