<?xml version="1.0" encoding="UTF-8"?> <!-- Generator: Adobe Illustrator 23.1.1, SVG Export Plug-In . SVG Version: 6.00 Build 0) --> <svg xmlns="http://www.w3.org/2000/svg" xmlns:xlink="http://www.w3.org/1999/xlink" version="1.1" id="Layer_1" x="0px" y="0px" viewBox="0 0 566.929 566.929" xml:space="preserve"> <rect fill="#FFFFFF" width="566.929" height="566.929"></rect> <g> <g> <polygon points="184.868,323.323 184.868,243.607 232.874,243.607 234.347,265.403 207.479,265.403 207.479,275.804 229.369,275.804 229.369,297.55 207.296,297.55 207.352,323.323 "></polygon> <polygon points="370.476,323.204 346.477,281.844 368.287,243.725 344.259,243.725 334.287,260.896 324.493,243.725 299.621,243.725 321.866,282.113 298.306,323.204 322.462,323.249 333.986,303.102 345.643,323.204 "></polygon> <path d="M271.721,244.809c-20.979,0-37.985,17.353-37.985,38.76c0,21.406,17.006,38.76,37.985,38.76 c20.977,0,37.983-17.354,37.983-38.76C309.705,262.161,292.7,244.809,271.721,244.809z M271.827,305.964 c-3.56,0-6.446-2.945-6.446-6.579l0.008-31.752c0-3.633,2.879-6.884,6.439-6.884c3.561,0,6.67,3.251,6.67,6.884l0.097,31.845 C278.594,303.112,275.387,305.964,271.827,305.964z"></path> </g> <path d="M382.062,323.18h-0.767v-4.608h-0.025l-1.838,4.608h-0.498l-1.787-4.608h-0.026v4.608h-0.766v-5.375h1.29l1.544,3.869 l1.597-3.869h1.276L382.062,323.18L382.062,323.18z M375.321,318.572h-1.787v4.608h-0.767v-4.608h-1.8v-0.767h4.353 L375.321,318.572L375.321,318.572z"></path> </g> </svg> 