<?xml version="1.0" encoding="UTF-8"?> <!-- Generator: Adobe Illustrator 23.1.1, SVG Export Plug-In . SVG Version: 6.00 Build 0) --> <svg xmlns="http://www.w3.org/2000/svg" xmlns:xlink="http://www.w3.org/1999/xlink" version="1.1" id="Capa_1" x="0px" y="0px" viewBox="0 0 566.929 566.929" xml:space="preserve"> <rect fill="#FFFFFF" width="566.929" height="566.929"></rect> <g> <path d="M192.979,272.558v8.118h19.404c-0.594,4.554-2.112,7.887-4.422,10.23c-2.838,2.838-7.26,5.94-14.982,5.94 c-11.946,0-21.285-9.636-21.285-21.582c0-11.946,9.339-21.582,21.285-21.582c6.435,0,11.154,2.541,14.619,5.808l5.709-5.709 c-4.818-4.686-11.286-8.25-20.328-8.25c-16.368,0-30.129,13.332-30.129,29.7c0,16.368,13.761,29.7,30.129,29.7 c8.844,0,15.51-2.904,20.724-8.316c5.346-5.346,7.029-12.903,7.029-18.975c0-1.881-0.132-3.63-0.429-5.082H192.979z"></path> <path d="M244.987,265.958c-10.593,0-19.239,8.052-19.239,19.173c0,11.022,8.646,19.173,19.239,19.173 c10.593,0,19.239-8.118,19.239-19.173C264.226,274.01,255.58,265.958,244.987,265.958z M244.987,296.747 c-5.808,0-10.824-4.785-10.824-11.616c0-6.897,5.016-11.616,10.824-11.616s10.824,4.719,10.824,11.616 C255.811,291.962,250.795,296.747,244.987,296.747z"></path> <path d="M339.301,270.248h-0.297c-1.881-2.244-5.511-4.29-10.098-4.29c-9.57,0-17.919,8.349-17.919,19.173 c0,10.758,8.349,19.173,17.919,19.173c4.587,0,8.217-2.046,10.098-4.356h0.297v2.673c0,7.326-3.927,11.253-10.23,11.253 c-5.148,0-8.349-3.696-9.669-6.831l-7.326,3.036c2.112,5.082,7.689,11.319,16.995,11.319c9.867,0,18.216-5.808,18.216-19.965 v-34.485h-7.986V270.248z M329.632,296.747c-5.808,0-10.23-4.95-10.23-11.616c0-6.765,4.422-11.616,10.23-11.616 c5.742,0,10.23,4.95,10.23,11.682C339.895,291.896,335.374,296.747,329.632,296.747z"></path> <path d="M287.887,265.958c-10.593,0-19.239,8.052-19.239,19.173c0,11.022,8.646,19.173,19.239,19.173s19.239-8.118,19.239-19.173 C307.126,274.01,298.48,265.958,287.887,265.958z M287.887,296.747c-5.808,0-10.824-4.785-10.824-11.616 c0-6.897,5.016-11.616,10.824-11.616s10.824,4.719,10.824,11.616C298.711,291.962,293.695,296.747,287.887,296.747z"></path> <path d="M353.887,246.323h8.283v57.981h-8.283V246.323z"></path> <path d="M387.745,296.747c-4.29,0-7.326-1.947-9.306-5.808l25.641-10.593l-0.858-2.178c-1.584-4.29-6.468-12.21-16.401-12.21 c-9.867,0-18.084,7.755-18.084,19.173c0,10.758,8.118,19.173,19.008,19.173c8.778,0,13.86-5.379,15.972-8.481l-6.534-4.356 C395.005,294.635,392.035,296.747,387.745,296.747L387.745,296.747z M387.151,273.152c3.399,0,6.303,1.749,7.26,4.224 l-17.325,7.161C377.086,276.485,382.795,273.152,387.151,273.152z"></path> </g> </svg> 