<?xml version="1.0" encoding="utf-8"?>
<!-- Generator: Adobe Illustrator 27.5.0, SVG Export Plug-In . SVG Version: 6.00 Build 0)  -->
<svg version="1.1" id="Layer_1" xmlns="http://www.w3.org/2000/svg" xmlns:xlink="http://www.w3.org/1999/xlink" x="0px" y="0px"
	 viewBox="0 0 999.73 1162.33" style="enable-background:new 0 0 999.73 1162.33;" xml:space="preserve">
<g id="_x30_MEbS0.tif">
	<g>
		<path d="M982.83,43.75c-0.07,23.78-3.62,47.29-5.86,70.93c-2.36,25.05-5.12,50.08-7.7,75.12c-3.08,29.87-6.11,59.75-9.26,89.62
			c-3.19,30.15-6.43,60.29-9.76,90.43c-3.67,33.27-7.5,66.5-11.21,99.75c-3.15,28.15-6.21,56.3-9.35,84.43
			c-3.76,33.82-7.59,67.65-11.33,101.47c-3.1,27.86-6.12,55.72-9.17,83.59c-2.94,26.73-5.77,53.47-8.86,80.17
			c-0.63,5.37-1.9,10.71-3.29,15.95c-2.33,8.76-7.41,14.31-17.14,15.45c-18.12,2.15-36.05,0.91-53.79-2.6
			c-24.16-4.78-47.68-11.76-70.19-21.95c-3.15-1.43-6.05-3.15-8.68-5.39c-4.39-3.74-6.55-8.22-6.7-14.16
			c-0.41-17.8,1.41-35.45,2.6-53.15c1.81-27.4,4.1-54.77,6.12-82.17c2.76-37.37,5.53-74.76,8.18-112.15
			c2.54-35.67,4.96-71.36,7.41-107.04c2.65-38.53,5.39-77.07,7.93-115.6c1.99-30.26,3.83-60.54,5.59-90.82
			c2.81-48.27,5.53-96.57,8.22-144.84c1.2-21.42,2.1-42.87,3.64-64.27c0.84-11.73,7.22-18.3,17.35-21.93
			c7.25-2.61,14.79-4.12,22.58-4.71c18.84-1.45,37.78,0.21,56.57-1.68c22.58-2.27,45.16-1.93,67.77-1.27
			c4.62,0.14,9.13,0.84,13.57,1.88c8.02,1.86,14.11,8.74,14.66,16.94C983.17,31.69,982.83,37.73,982.83,43.75z"/>
		<path d="M544.46,335.93c11.68,0.09,23.08,2.18,34.51,4.32c32.94,6.13,53.61,32.8,57.52,65.38c1.23,10.09,1.73,20.22,0.59,30.4
			c-1.95,17.72,0.77,35.46-0.14,53.27c-2.41,47.48-3.5,95.05-5.25,142.58c-3.34,90.69-6.79,181.38-10.18,272.09
			c-1.07,28.67-1.93,57.34-3.16,85.99c-0.82,18.86-1.89,37.71-6.25,56.18c-7.47,31.6-34.42,54.95-66.93,57.93
			c-7.95,0.73-15.95,1.16-23.92,1.25c-72.63,0.91-145.26,2.07-217.89,2.43c-41.03,0.2-82.01,3.36-123.06,1.95
			c-19.95-0.68-39.87-1.64-59.45-6.22c-19.42-4.57-33.01-15.9-41.05-34.01c-8.43-19.02-10.09-39.3-10.2-59.63
			c-0.45-71.88-0.39-143.78-0.73-215.66c-0.45-98.39-1.43-196.78-4.09-295.15c-0.66-24.31-1.18-48.57-0.73-72.92
			c0.43-24.15,11.86-41.14,29.37-55.52c3.59-2.93,7.54-5.41,11.34-8.11c2.73,3.09,3.54,7.07,5,10.77
			c11.88,30.35,24.42,60.41,40.26,88.96c3.34,6,7.29,11.65,10.95,17.47c2.43,3.88,4.7,1.82,7-0.14
			c-4.98,14.34-5.34,29.24-4.84,44.12c1.18,35.19,3.2,70.34,4,105.53c1.89,84.92,3.25,169.84,4.84,254.76
			c0.32,16.7-0.41,33.49,2.36,49.98c5.16,30.53,14.79,39.32,40.19,43.75c3.57,0.61,7.16,1.11,10.75,1.64
			c17.99,2.61,36.12,2.25,54.23,2.79c55.52,1.7,111.02,3.77,166.52,5.63c5.07,0.18,10.22,0.5,15.24-0.05
			c26.01-2.84,39.42-14.54,44-37.69c1.84-9.22,3.27-18.61,4.02-27.99c5.97-75.95,11.84-151.92,17.54-227.91
			c4.13-55,8.09-110,11.9-165.02c0.82-11.97-0.25-23.92-3.91-35.44c-5.18-16.33-15.18-27.83-32.65-31.58
			c-4.95-1.07-9.84-2.52-14.74-3.79c0.77-2,1.48-4.07,2.36-6.02c12.22-26.51,24.35-53.09,36.8-79.51
			C532.4,360.4,536.53,347.25,544.46,335.93z"/>
		<path d="M878.24,1011.93c0.07,15.47-2.44,30.74-4.03,46.09c-2.63,25.28-5.28,50.58-9.69,75.65c-0.64,3.71-1.47,7.27-3.35,10.53
			c-2.85,4.91-6.71,7.86-12.53,9.35c-12.84,3.26-25.48,1.9-38.28,0.29c-22.97-2.9-45.98-5.43-68.97-8.17
			c-12.48-1.49-18.78-7.36-21.36-19.71c-0.98-4.76-1.9-9.51-1.61-14.43c1.83-30.53,3.47-61.08,5.44-91.61
			c0.75-11.78,4.12-22.45,15.13-29.17c5.35-3.26,11.17-4.42,17.17-4.6c34.59-0.97,69.19-1.9,103.78-2.54
			c13-0.25,17.71,4.73,18.28,18.05C878.37,1005.07,878.24,1008.51,878.24,1011.93z"/>
		<path d="M302.24,336.7c1.36-12.68,0.32-25.35-0.2-38.01c-2.18-51.14-2.59-102.3-0.8-153.41c1.34-38.08,6.07-75.88,14.52-113.11
			c1.52-6.72,3.23-13.4,6.09-19.7c1.77-3.91,3.23-8.11,8.22-10.47c4,16.63,5.32,33.4,7.18,50.03c6.54,58.45,8.36,117.18,9.16,175.95
			c0.43,31.19,1.09,62.38,1.59,93.58c0.2,12.81,0.16,12.81,12.52,13.43c-12.36,1.84-12.29,1.84-12.31,15.24
			c-0.05,33.03-0.16,66.06-0.23,99.07c-12.79,1.02-25.56,1.91-38.33-0.3c-2.77-31.28-4.91-62.59-5.54-94.01
			C304.01,348.88,302.9,342.79,302.24,336.7z"/>
		<path d="M167.98,479.51c-2.29,1.95-4.57,4.02-7,0.14c-3.66-5.82-7.61-11.47-10.95-17.47c-15.83-28.56-28.4-58.61-40.26-88.96
			c-1.43-3.68-2.27-7.66-5-10.77c0.11-4.91-2.36-9.06-3.93-13.45c-16.92-47.44-33.53-94.98-44.96-144.12
			c-6.07-26.17-9.43-52.75-11.84-79.47c-0.55-6.11-0.7-12.34,0.39-18.45c0.36-2.11,0.89-4.32,1.89-6.2
			c2.59-4.93,5.77-4.95,9.09-0.36c14.54,20.17,23.76,43.12,33.8,65.59c21.76,48.71,36.69,99.96,54.41,150.14
			c3.48,9.86,5.68,20.22,11.18,29.33c-0.41,2.61,0.52,4.95,1.39,7.34c10.25,28.17,20.79,56.2,33.17,83.53
			c5.54,12.25,6.07,8.97-2.93,18.11c-6.36,6.45-12.45,13.09-16.63,21.22C169.84,477.22,169.52,478.67,167.98,479.51z"/>
		<path d="M169.79,475.63c4.18-8.13,10.27-14.77,16.63-21.22c9-9.13,8.47-5.86,2.93-18.11c-12.38-27.33-22.92-55.36-33.17-83.53
			c-0.86-2.39-1.82-4.73-1.39-7.34c49.09-3.86,98.28-6.34,147.46-8.72c0.66,6.09,1.75,12.18,1.89,18.27
			c0.61,31.42,2.77,62.72,5.54,94.01c-27.9,0.14-55.82,0.3-83.72,0.45c-5.07,0.02-10.06,0.43-15.08,1.43
			C194.1,454.16,180.99,463.24,169.79,475.63z"/>
		<path d="M347.97,449.27c0.09-33.03,0.18-66.06,0.23-99.07c0.02-13.4-0.05-13.4,12.31-15.24c45.21-0.77,90.44-0.8,135.67-0.2
			c0.3,4.2-1.93,7.66-3.45,11.29c-15.04,36.1-30.96,71.86-42.89,109.21c-3.95-0.36-7.91-0.8-11.88-1.09
			C408.01,452.04,378.03,450.2,347.97,449.27z"/>
		<path d="M449.86,455.25c11.9-37.33,27.83-73.08,42.89-109.21c1.52-3.63,3.75-7.09,3.45-11.29c2.95-2.48,3.68-6.18,5.09-9.47
			c16.54-38.3,32.87-76.7,51.77-113.91c13.15-25.94,28.49-50.57,45.05-74.45c5.54-8,11.27-16.11,22.4-20.06
			c0.73,7.43,0.61,14.24-0.98,21.26c-9.5,41.53-23.76,81.4-41.53,120.09c-10.45,22.74-20.61,45.62-30.87,68.45
			c-1.34,2.95-3.07,5.82-2.66,9.29c-7.93,11.31-12.06,24.49-17.88,36.83c-12.45,26.42-24.58,52.98-36.8,79.51
			c-0.91,1.95-1.59,4-2.36,6.02"/>
		<path d="M378.14,1353.45c-0.68,0.16-1.07-0.13-1-0.82c0.02-0.21,0.29-0.41,0.45-0.61c0.25,0.41,0.5,0.81,0.75,1.22
			C378.35,1353.22,378.14,1353.45,378.14,1353.45z"/>
		<path d="M434,675.29c-0.23,45.21-10.52,80.54-33.24,111.8c-14.72,20.24-33.53,35.28-58.25,41.37c-36.53,9-72.06-5-94.26-36.58
			c-14.38-20.47-21.58-43.64-23.29-68.18c-3.16-45.32,6.13-88.06,30.4-126.93c13.52-21.67,31.46-38.87,54.55-50.23
			c15.13-7.45,30.94-10.09,47.53-5.32c11.47,3.29,20.86,9.97,29.31,18.15c22.38,21.67,34.99,48.64,42.21,78.45
			C432.41,652.3,434.28,667.05,434,675.29z"/>
	</g>
</g>
</svg>
