<?xml version="1.0" encoding="utf-8"?>
<!-- Generator: Adobe Illustrator 27.5.0, SVG Export Plug-In . SVG Version: 6.00 Build 0)  -->
<svg version="1.1" id="Layer_1" xmlns="http://www.w3.org/2000/svg" xmlns:xlink="http://www.w3.org/1999/xlink" x="0px" y="0px"
	 viewBox="0 0 1547 1162.33" style="enable-background:new 0 0 1547 1162.33;" xml:space="preserve">
<style type="text/css">
	.st0{fill:#FFFFFF;}
</style>
<g id="_x30_MEbS0.tif">
	<g>
		<path class="st0" d="M1239.27,1033.97c-13.77,2-27.02,4.02-40.29,5.84c-18.67,2.56-37.34,5.08-56.04,7.42
			c-14.9,1.87-29.82,3.52-44.74,5.15c-17.15,1.87-34.3,3.69-51.47,5.37c-12.08,1.18-24.19,2.17-36.29,3.11
			c-20.71,1.61-41.42,3.16-62.13,4.64c-11,0.79-22.01,1.41-33.01,2.05c-35.75,2.07-71.53,3.34-107.33,4.01
			c-27.02,0.5-54.04,0.28-81.05-0.41c-9.43-0.24-18.86-0.4-28.29-0.51c-24.62-0.28-49.22-1.22-73.81-2.27
			c-22.67-0.97-45.32-2.34-67.97-3.77c-22.48-1.43-44.96-2.94-67.41-4.81c-26.26-2.19-52.49-4.77-78.73-7.26
			c-20.67-1.96-41.34-3.98-61.99-6.1c-10.32-1.06-20.62-2.38-30.93-3.62c-3.28-0.4-3.39-0.54-2.53-4
			c2.21-8.83,4.45-17.65,6.76-26.45c0.7-2.68,1.01-5.36,0.54-8.06c-1-5.78-5.83-9.73-12.79-10.31c-8.76-0.73-17.52-1.62-26.29-1.87
			c-12.39-0.35-24.39-2.9-36.43-5.37c-32.37-6.63-64.75-13.16-97.09-19.9c-6.59-1.37-6.83,0.3-4.76-7.37
			c3.13-11.56,6.38-23.08,9.28-34.69c0.65-2.61,1.74-2.96,3.95-2.63c11.19,1.69,22.39,3.32,33.58,4.97
			c0.32,0.05,0.63,0.21,0.94,0.19c10.48-0.49,20.56,2.55,30.89,3.43c23.38,2,46.81,3.33,70.15,5.72c13.67,1.4,27.35,2.6,41.03,3.84
			c2.88,0.26,5.77,0.25,8.45-1.11c3.98-2.01,6.21-5.36,7.33-9.58c2.08-7.87,4.19-15.73,6.29-23.6c0.25-0.93,0.62-1.83,0.73-2.77
			c0.28-2.28,1.61-2.78,3.69-2.58c8.42,0.83,16.86,1.56,25.29,2.37c11.92,1.14,23.84,2.37,35.77,3.45
			c17.66,1.59,35.32,3.12,52.99,4.59c9.39,0.78,18.8,1.46,28.2,2.08c24.39,1.59,48.79,3.14,73.19,4.66
			c7.02,0.44,14.04,0.8,21.07,1.04c22.52,0.77,45.03,1.88,67.57,2.44c33.08,0.82,66.16,1.6,99.26,1.32
			c20.46-0.17,40.93-0.38,61.38-0.97c24.76-0.71,49.53-1.59,74.26-2.87c24.41-1.26,48.81-2.87,73.18-4.8
			c24.04-1.9,48.07-4.14,72.05-6.69c42.09-4.48,84.05-9.96,125.82-16.83c7.56-1.24,15.13-2.42,22.7-3.67
			c4.25-0.7,4.42-0.59,5.01,3.89c0.94,7.12,1.76,14.26,2.86,21.36c1.49,9.64,7.41,13.77,16.89,12.25
			c33.42-5.35,66.85-10.6,100.27-15.95c26.96-4.31,53.9-8.68,80.85-13.06c7.04-1.14,6.93-1.18,7.43,5.82
			c0.8,11.15,1.74,22.3,2.63,33.44c0.36,4.46,0.38,4.49-3.8,5.48c-53.87,12.82-107.75,25.63-161.63,38.45
			c-2.32,0.55-4.7,1.05-6.89,1.96c-5.25,2.18-7.95,6.21-7.97,11.95c-0.01,1.92,0.32,3.8,0.79,5.68c2.78,11.15,5.49,22.32,8.22,33.49
			C1239.03,1032.17,1239.09,1032.8,1239.27,1033.97z M1101.59,944.89c0.89,0.07,1.36,0.75,1.88,1.34
			c18.89,21.26,38.11,42.22,57.61,62.93c1.64,1.74,3.08,3.7,4.84,5.31c2.07,1.9,5.41,2.09,7.58,0.75c2.15-1.33,3.09-3.69,2.35-6.69
			c-2.92-11.8-4.32-23.86-6.24-35.83c-2.66-16.54-5.9-32.99-7.64-49.67c-0.31-3-2.29-4.76-4.94-4.97c-3.76-0.29-6.2,2.22-5.71,6.4
			c0.42,3.63,1.47,7.18,2.08,10.8c2.76,16.36,5.46,32.73,8.2,49.1c0.77,4.59,1.57,9.18,2.36,13.82c-1.26,0.08-1.61-0.52-2.02-0.97
			c-15.33-16.73-30.66-33.45-45.96-50.2c-4.85-5.31-9.6-10.7-14.41-16.05c-1.29-1.43-2.62-2.81-4.66-3.15
			c-5.02-0.84-7.87,2.73-6.71,8.66c2.99,15.37,4.43,30.96,6.59,46.44c1.71,12.33,3.59,24.64,4.61,37.06
			c0.33,3.97,2.99,5.98,6.36,5.46c3.43-0.53,5.19-3.14,4.62-7.07c-0.35-2.36-1-4.68-1.35-7.05c-2.5-16.73-5.08-33.45-7.37-50.21
			c-0.73-5.35-2.22-10.61-2.16-16.07L1101.59,944.89z M650.43,970.66c0.43,0.99,0.87,1.98,1.3,2.97
			c7.67,17.9,15.38,35.78,22.98,53.72c1.37,3.23,3.25,5.53,6.93,5.62c3.73,0.09,5.61-2.27,7.11-5.39
			c8.57-17.85,17.23-35.65,25.88-53.45c0.46-0.94,0.62-2.17,1.98-2.47c-0.16,3.37-0.42,6.71-0.47,10.05
			c-0.29,20.28-0.33,40.57-1.38,60.83c-0.04,0.79-0.04,1.61,0.09,2.39c0.49,2.79,2.57,4.49,5.37,4.47c2.78-0.02,4.85-1.75,5.3-4.55
			c0.15-0.94,0.12-1.91,0.08-2.87c-0.55-12.94-0.16-25.88-0.03-38.82c0.15-15.01-0.46-30.03,0.87-45.02
			c0.24-2.7-0.14-5.17-2.87-6.53c-2.48-1.24-4.97-1.07-7.32,0.35c-1.59,0.95-2.28,2.64-3,4.24c-8.87,19.83-18.62,39.22-28.07,58.77
			c-1.01,2.08-2.12,4.12-3.39,6.55c-1-2.42-1.78-4.34-2.59-6.24c-7.83-18.35-15.67-36.7-23.49-55.06c-1.13-2.64-1.98-5.42-3.28-7.96
			c-1.4-2.73-4.84-3.94-7.83-3.14c-2.77,0.75-4.22,2.69-4.32,6.13c-0.07,2.55,0.18,5.11,0.09,7.66
			c-0.76,20.59-1.53,41.17-2.38,61.76c-0.2,4.78-0.59,9.57-1.13,14.32c-0.59,5.26,1.15,8.27,5.2,8.4c3.79,0.12,5.82-2.53,5.7-7.66
			c-0.41-17.58,1.05-35.12,1.32-52.68C649.18,981.63,649.5,976.2,650.43,970.66z M491.53,955.34c1.63,0.67,1.88,2.02,2.45,3.06
			c9.37,17.08,18.69,34.19,28.07,51.26c5.07,9.24,10.2,18.44,15.38,27.62c1.97,3.48,4.96,4.96,7.79,4.14
			c3.01-0.87,4.46-3.49,4.26-7.68c-0.07-1.59-0.27-3.2-0.15-4.77c1.72-22.44,3.56-44.88,5.17-67.33c0.31-4.31,1.2-8.54,1.34-12.85
			c0.13-3.91-1.73-5.97-5.16-6.05c-3.38-0.08-5.57,1.9-5.52,5.77c0.07,5.77-0.55,11.48-0.93,17.21c-1,14.98-2.07,29.95-3.13,44.92
			c-0.28,4.02-0.62,8.03-0.98,12.75c-0.8-1.15-1.19-1.61-1.48-2.14c-10.51-19-21.04-38-31.51-57.02
			c-4.08-7.41-7.98-14.93-12.08-22.33c-1.92-3.47-4.64-4.59-7.98-3.71c-2.48,0.65-4.04,2.69-4.04,6.34c0,5.45-0.61,10.84-1.17,16.23
			c-1.45,13.97-2.89,27.94-4.39,41.91c-0.93,8.72-1.38,17.5-3.19,26.13c-0.53,2.51,0.19,4.78,2.57,6.21
			c3.78,2.28,8.23-0.06,8.67-4.74c0.34-3.65,0.15-7.35,0.47-11c1.11-12.72,2.35-25.43,3.53-38.14
			C490.3,972.6,491.35,964.1,491.53,955.34z M1066.29,987.56c0.14-8.32-1.64-17.03-5.26-25.32c-7.11-16.28-21.74-28.73-43.11-27.02
			c-18.02,1.44-30.65,10.57-36.93,27.38c-6.4,17.12-5.22,34.28,3.23,50.52c15.79,30.33,54.4,27.49,70.64,8.8
			C1063.26,1012.27,1066.49,1000.88,1066.29,987.56z M790.59,949.88c-4.98,0-6.95,1.46-8.48,6.06
			c-9.48,28.46-19.75,56.62-30.75,84.53c-0.35,0.89-0.75,1.79-0.88,2.72c-0.55,3.77,2.08,6.53,5.91,6.28
			c2.79-0.18,4.62-1.71,5.4-5.2c1.29-5.79,3.68-11.21,5.35-16.86c0.65-2.19,1.79-2.99,4.06-3.02c13.41-0.17,26.82-0.42,40.23-0.78
			c2.34-0.06,3.43,0.84,4.18,2.91c2.09,5.85,4.64,11.53,6.32,17.55c1,3.6,4.36,5.16,7.46,4.04c3.28-1.18,4.48-4.16,3.02-7.86
			c-0.82-2.07-1.99-4.01-2.83-6.07c-10.57-26.18-21.59-52.18-31.13-78.77C796.89,951.1,795.14,949.88,790.59,949.88z
			 M449.12,1026.02c-0.12-0.5-0.32-1.43-0.57-2.34c-7.91-29.08-14.85-58.39-21.25-87.83c-1.04-4.81-2.59-6.27-7.71-6.93
			c-4.2-0.54-6.44,0.68-8.45,4.67c-13.54,26.95-27.89,53.46-42.91,79.6c-0.4,0.69-0.84,1.38-1.1,2.12c-1.25,3.48,0.92,6.88,4.62,7.3
			c2.9,0.33,4.97-0.81,6.28-4.07c1.72-4.31,3.88-8.39,6.01-12.5c3.26-6.3,3.28-6.38,10.18-5.52c12.03,1.49,24.03,3.17,36.06,4.61
			c2.25,0.27,3.31,0.95,3.78,3.29c1.2,5.93,3.11,11.71,3.65,17.78c0.12,1.31,0.55,2.49,1.34,3.53c1.51,1.96,4.07,2.66,6.45,1.8
			C447.86,1030.68,449.1,1028.94,449.12,1026.02z M892.18,956.18c2.19-0.3,5.7,0.49,9.2,0.25c2.88-0.2,4.66-2.38,4.55-5.13
			c-0.11-2.65-1.7-4.33-4.52-4.62c-1.1-0.11-2.23-0.03-3.35,0.02c-18.98,0.81-37.95,1.62-56.93,2.47c-1.59,0.07-3.22,0.18-4.73,0.61
			c-2.27,0.65-3.65,2.93-3.33,5.19c0.32,2.29,1.66,3.78,3.91,4.29c0.91,0.21,1.95,0.26,2.85,0.03c6.89-1.74,13.99-0.8,20.95-1.64
			c3.72-0.45,3.8-0.21,3.98,3.35c0.62,12.91,1.33,25.82,1.78,38.73c0.47,13.54,1.86,27.05,1.27,40.63
			c-0.16,3.69,2.08,5.99,5.27,6.22c3.98,0.29,6.45-2.17,6.04-6.65c-0.61-6.52-1.02-13.03-1.28-19.58
			c-0.36-9.25-1.03-18.48-1.47-27.72c-0.51-10.52-0.95-21.04-1.35-31.57c-0.14-3.74-0.07-3.85,3.88-4.19
			C882.87,956.54,886.87,956.45,892.18,956.18z M936.87,1028.74c0,2.91-0.27,5.81,0.06,8.65c0.51,4.34,4.94,6.51,8.55,4.42
			c2.19-1.27,2.97-3.25,2.72-5.67c-0.37-3.64-0.89-7.28-1.18-10.93c-0.79-10.02-1.51-20.04-2.22-30.06
			c-1.03-14.63-2.75-29.22-2.87-43.92c-0.01-1.45-0.05-2.88-0.6-4.24c-1.06-2.59-3.4-3.82-6.17-3.28c-3.23,0.63-4.86,2.8-4.28,6.84
			c1.21,8.54,1.6,17.14,2.21,25.72C934.33,993.77,935.61,1011.27,936.87,1028.74z M587.27,1037.54c-0.31,4.28,0.88,6.43,3.9,7.12
			c4.08,0.94,7.16-1.44,7.37-5.9c0.1-2.22-0.34-4.46-0.24-6.68c0.49-10.03,1.06-20.07,1.65-30.1c0.45-7.64,1.01-15.28,1.46-22.92
			c0.52-8.91,0.68-17.84,2.01-26.7c0.53-3.52-1.75-6.15-4.89-6.47c-3.45-0.35-5.86,1.82-6.23,5.71c-0.09,0.95,0.01,1.91-0.01,2.87
			c-0.1,4.47-0.01,8.95-0.35,13.39C590.19,991.08,589.44,1014.35,587.27,1037.54z"/>
		<path class="st0" d="M1439.17,213.59c-0.04,13.28-2.02,26.41-3.27,39.61c-1.32,13.99-2.86,27.97-4.3,41.95
			c-1.72,16.68-3.41,33.37-5.17,50.05c-1.78,16.84-3.59,33.67-5.45,50.5c-2.05,18.58-4.19,37.14-6.26,55.71
			c-1.76,15.72-3.47,31.44-5.22,47.15c-2.1,18.89-4.24,37.78-6.33,56.67c-1.73,15.56-3.42,31.12-5.12,46.68
			c-1.64,14.93-3.22,29.86-4.95,44.77c-0.35,3-1.06,5.98-1.84,8.91c-1.3,4.89-4.14,7.99-9.57,8.63c-10.12,1.2-20.13,0.51-30.04-1.45
			c-13.49-2.67-26.63-6.57-39.2-12.26c-1.76-0.8-3.38-1.76-4.85-3.01c-2.45-2.09-3.66-4.59-3.74-7.91
			c-0.23-9.94,0.79-19.8,1.45-29.68c1.01-15.3,2.29-30.59,3.42-45.89c1.54-20.87,3.09-41.75,4.57-62.63
			c1.42-19.92,2.77-39.85,4.14-59.78c1.48-21.52,3.01-43.04,4.43-64.56c1.11-16.9,2.14-33.81,3.12-50.72
			c1.57-26.96,3.09-53.93,4.59-80.89c0.67-11.96,1.17-23.94,2.03-35.89c0.47-6.55,4.03-10.22,9.69-12.25
			c4.05-1.46,8.26-2.3,12.61-2.63c10.52-0.81,21.1,0.12,31.59-0.94c12.61-1.27,25.22-1.08,37.85-0.71c2.58,0.08,5.1,0.47,7.58,1.05
			c4.48,1.04,7.88,4.88,8.19,9.46C1439.36,206.86,1439.17,210.23,1439.17,213.59z"/>
		<path class="st0" d="M624.02,193.84c30.18,1.22,60.37,2.44,90.55,3.66c0.64,0.03,1.28,0.08,1.91,0.11c2.19,0.1,2.94,1,2.69,3.37
			c-0.99,9.21-1.69,18.45-2.59,27.67c-0.74,7.63-1.53,15.26-2.42,22.87c-0.43,3.65-0.92,4.05-4.61,3.69
			c-13.04-1.28-26.08-2.56-39.09-4.04c-18.41-2.09-36.8-4.33-55.2-6.57c-12.87-1.57-25.77-2.49-38.74-1.68
			c-9.8,0.62-19.16,2.89-28.15,7.06c-6.76,3.14-10.77,8.16-12.99,15.05c-2.17,6.72-3.42,13.63-4.28,20.6
			c-1.57,12.72-2.31,25.48-0.32,38.22c0.71,4.55,1.42,9.12,4.37,13c1.04,1.36,2.11,2.29,3.68,2.8c3.98,1.28,8.08,1.83,12.25,2
			c16.78,0.69,33.56,0.46,50.35,0.2c25.59-0.4,51.15,0.38,76.64,2.73c6.82,0.63,13.62,1.79,20.34,3.17
			c8.16,1.67,13.74,7.86,14.37,15.88c2.8,35.86,4.89,71.75,3.87,107.74c-0.31,11.01-1.33,21.98-3.57,32.83
			c-2.26,10.93-8.35,18.75-18.12,23.94c-1.48,0.78-2.88,1.16-4.52,1.2c-22.26,0.46-44.37-1.31-66.43-4.05
			c-30.91-3.85-61.54-9.39-92.18-14.92c-15.39-2.78-30.75-5.8-46.11-8.75c-3.45-0.66-3.93-1.46-3.21-4.89
			c1.8-8.6,3.7-17.17,6.86-25.39c4.47-11.65,4.55-10.22,14.34-9.93c10.88,0.32,21.55,2.64,32.26,4.42
			c25.68,4.26,51.38,8.37,77.13,12.21c12.22,1.82,24.44,2.75,36.78,1.77c1.12-0.09,2.23-0.13,3.35-0.25
			c5.38-0.56,9.27-2.87,12.37-7.72c5.82-9.12,8.21-19.3,10.88-29.48c2.24-8.54,3.62-17.27,3.51-26.04
			c-0.11-8.44-0.09-16.94-1.43-25.33c-0.66-4.09-2.91-7.04-6.81-8.58c-4.2-1.66-8.6-2.32-13.11-2.5
			c-12.97-0.54-25.88,0.47-38.79,1.41c-7.01,0.51-14.03,1.08-21.05,1.29c-15.19,0.44-30.27,2.32-45.42,3.28
			c-8.94,0.56-17.89,0.61-26.84,0.2c-5.29-0.24-10.53-0.89-15.64-2.18c-12.01-3.03-20.98-9.91-25.7-21.58
			c-1.93-4.77-2.25-9.94-2.41-15.06c-0.79-24.65,0.85-49.18,3.54-73.67c1.33-12.06,2.11-24.19,3.19-36.28
			c0.64-7.16,1.49-14.28,2.86-21.35c2.42-12.46,12.11-20.02,24.33-21.25c30.33-3.05,60.66-1.94,91.02-1.25
			c5.43,0.12,10.86,0.02,16.3,0.02C624.01,193.58,624.01,193.71,624.02,193.84z"/>
		<path class="st0" d="M1219.47,196.63c5.14,0.04,10.16,0.96,15.19,1.9c14.5,2.7,23.6,14.44,25.32,28.78
			c0.54,4.44,0.76,8.9,0.26,13.38c-0.86,7.8,0.34,15.61-0.06,23.45c-1.06,20.9-1.54,41.84-2.31,62.76
			c-1.47,39.92-2.99,79.84-4.48,119.77c-0.47,12.62-0.85,25.24-1.39,37.85c-0.36,8.3-0.83,16.6-2.75,24.73
			c-3.29,13.91-15.15,24.19-29.46,25.5c-3.5,0.32-7.02,0.51-10.53,0.55c-31.97,0.4-63.94,0.91-95.91,1.07
			c-18.06,0.09-36.1,1.48-54.17,0.86c-8.78-0.3-17.55-0.72-26.17-2.74c-8.55-2.01-14.53-7-18.07-14.97
			c-3.71-8.37-4.44-17.3-4.49-26.25c-0.2-31.64-0.17-63.29-0.32-94.93c-0.2-43.31-0.63-86.62-1.8-129.92
			c-0.29-10.7-0.52-21.38-0.32-32.1c0.19-10.63,5.22-18.11,12.93-24.44c1.58-1.29,3.32-2.38,4.99-3.57c1.2,1.36,1.56,3.11,2.2,4.74
			c5.23,13.36,10.75,26.59,17.72,39.16c1.47,2.64,3.21,5.13,4.82,7.69c1.07,1.71,2.07,0.8,3.08-0.06
			c-2.19,6.31-2.35,12.87-2.13,19.42c0.52,15.49,1.41,30.96,1.76,46.45c0.83,37.38,1.43,74.76,2.13,112.14
			c0.14,7.35-0.18,14.74,1.04,22c2.27,13.44,6.51,17.31,17.69,19.26c1.57,0.27,3.15,0.49,4.73,0.72c7.92,1.15,15.9,0.99,23.87,1.23
			c24.44,0.75,48.87,1.66,73.3,2.48c2.23,0.08,4.5,0.22,6.71-0.02c11.45-1.25,17.35-6.4,19.37-16.59c0.81-4.06,1.44-8.19,1.77-12.32
			c2.63-33.43,5.21-66.87,7.72-100.32c1.82-24.21,3.56-48.42,5.24-72.64c0.36-5.27-0.11-10.53-1.72-15.6
			c-2.28-7.19-6.68-12.25-14.37-13.9c-2.18-0.47-4.33-1.11-6.49-1.67c0.34-0.88,0.65-1.79,1.04-2.65c5.38-11.67,10.72-23.37,16.2-35
			C1214.16,207.4,1215.98,201.61,1219.47,196.63z"/>
		<path class="st0" d="M192.53,324.44c-0.56,39.3-1.26,78.61,0.78,117.89c0.47,9.07,0.73,18.21,2.6,27.16
			c1.85,8.85,5.57,12.23,14.46,13.37c3.52,0.45,7.01,0.1,10.52,0.02c10.7-0.24,21.42-0.21,32.12-0.61
			c21.87-0.82,43.75-1.49,65.58-3.09c14.02-1.03,28.04-2.11,42.05-3.26c6.52-0.54,13.02-1.37,19.55-1.94
			c4.51-0.39,4.89,0.03,4.9,4.67c0.02,13.1,0.02,26.2,0,39.31c-0.01,4.63-0.17,4.82-4.85,5.02c-13.89,0.59-27.78,1.18-41.67,1.67
			c-32.1,1.12-64.21,2.09-96.31,3.28c-18.84,0.7-37.67,1.73-56.5,2.56c-3.99,0.18-7.99,0.3-11.98,0.12
			c-5.5-0.25-9.99-2.99-14.09-6.43c-7.27-6.1-10.74-14.11-11.71-23.36c-1.96-18.77-2.31-37.62-2.7-56.47
			c-0.26-12.62-0.16-25.25-0.45-37.87c-1.14-50.96-0.49-101.93-0.36-152.89c0.04-15.14,0.22-30.35,1.51-45.48
			c0.37-4.31,1.15-5.24,5.57-5.38c13.74-0.43,27.47-0.81,41.21-1.16c4.11-0.1,5.07,0.95,4.81,5.09
			C195.03,245.88,193.41,285.15,192.53,324.44z"/>
		<path class="st0" d="M812.93,195.31c33.41,1.1,66.76,2.77,100.09,5.07c22.16,1.53,44.34,2.82,66.5,4.23
			c2.87,0.18,5.74,0.41,8.6,0.71c3.94,0.41,4.59,1.19,4.05,5.32c-1.05,7.91-2.24,15.81-3.34,23.71c-0.66,4.74-1.18,9.51-1.93,14.24
			c-0.63,4.01-1.37,4.62-5.31,4.34c-7.97-0.57-15.92-1.3-23.89-1.92c-15.61-1.21-31.22-2.41-46.84-3.54
			c-4.32-0.31-8.62,0.08-12.82,1.25c-4.11,1.15-6.98,3.58-8.68,7.56c-2.49,5.83-3.48,11.97-3.63,18.21
			c-0.76,31.47-1.37,62.95-2.08,94.42c-1.18,52.25-1.64,104.5-2.15,156.76c-0.07,6.74-0.11,6.74-6.76,5.5
			c-10.21-1.9-20.54-2.95-30.85-4.2c-5.17-0.62-5.19-0.64-5.19-5.69c-0.05-37.72-0.08-75.43-0.15-113.15
			c-0.09-47.62-0.21-95.25-0.37-142.87c-0.01-4.11,0.29-8.26-1.26-12.28c-1.39-3.63-3.6-6.28-7.15-7.93
			c-6.47-3.01-13.32-4.53-20.35-4.93c-19.31-1.11-38.62-2-57.94-2.97c-0.96-0.05-1.92-0.02-2.87-0.14c-3.42-0.44-4.4-1.39-4.52-4.92
			c-0.25-7.66-0.38-15.33-0.52-23c-0.06-3.04-0.05-6.07,0-9.11c0.07-4.17,0.88-5.01,5.11-4.99c13.58,0.04,27.17-0.15,40.75,0.3
			C797.26,195.53,805.1,195.31,812.93,195.31z"/>
		<path class="st0" d="M1270.14,721.53c-1.19,30.97-2.35,61.94-3.6,92.91c-0.15,3.66-0.6,7.33-1.2,10.95
			c-1.9,11.59-9.15,18.34-21.04,19.99c-5.21,0.72-10.62,1.88-15.71,1.16c-9.64-1.37-19.05,0.91-28.6,0.58
			c-9.42-0.32-18.86,0.01-28.28,0.17c-11.01,0.19-22.02,0.56-33.03,0.73c-8.95,0.14-17.89-0.2-26.74-1.77
			c-8.96-1.59-13.87-7.32-16.07-15.71c-1.26-4.81-1.54-9.77-1.56-14.73c-0.19-36.59-0.27-73.18-0.61-109.77
			c-0.19-20.61-0.51-41.22-1.49-61.81c-0.24-5.13,0.39-10.21,0.87-15.3c0.45-4.73,3.1-8.26,6.5-11.36
			c7.02-6.4,15.37-9.48,24.74-10.18c38.92-2.9,77.88-3.8,116.9-2.85c4.66,0.11,9.23,0.7,13.75,1.74
			c9.96,2.3,17.01,11.08,17.42,21.36c0.95,23.98-0.91,47.9-1.51,71.85c-0.18,7.35-0.49,14.69-0.74,22.04
			C1270.12,721.53,1270.13,721.53,1270.14,721.53z M1125.71,722.1c-0.06,0-0.12,0-0.17,0.01c0.37,20.76,0.7,41.52,1.13,62.28
			c0.07,3.34,0.26,6.73,0.87,10.01c1.14,6.1,4.16,10.54,10.9,11.69c5.05,0.87,10.11,1.46,15.22,1.62
			c8.14,0.25,16.29,0.42,24.43,0.69c12.13,0.4,24.27,1.14,36.4,1.21c10.49,0.06,15.5-4,17-13.65c0.2-1.26,0.44-2.52,0.54-3.79
			c1.56-19.26,3.15-38.51,4.63-57.77c1.63-21.17,3.16-42.35,4.71-63.53c0.29-3.98,0.57-7.97,0.08-11.96
			c-1.17-9.53-4.8-13.52-14.31-15.26c-7.87-1.44-15.87-1.64-23.83-2.17c-19.78-1.33-39.58-1.77-59.39-1.29
			c-2.06,0.05-4.2,0.25-6.15,0.85c-10.07,3.09-13.8,7.66-13.8,16.41c0,4.63-0.07,9.26,0.07,13.89
			C1124.55,688.26,1125.15,705.18,1125.71,722.1z"/>
		<path class="st0" d="M824.73,599.71c22.2,0.88,44.39,1.74,66.59,2.64c4.07,0.17,5.14,1.45,4.75,5.32
			c-0.96,9.53-1.75,19.08-2.96,28.58c-0.95,7.42,0.53,7.71-8.08,6.86c-22.42-2.23-44.73-5.36-67.13-7.6
			c-10.79-1.08-21.69-1.42-32.49,0.47c-3.63,0.64-7.03,2.01-10.45,3.37c-5.5,2.18-8.64,6.23-10.3,11.77
			c-1.75,5.84-2.87,11.81-3.34,17.85c-0.67,8.76-1.05,17.55,0.67,26.27c1.45,7.36,3.65,9.62,11.21,9.87
			c13.41,0.45,26.84,0.51,40.27,0.71c16.3,0.24,32.61-0.18,48.87,1.25c6.52,0.58,13.03,1.29,19.39,2.9c5.68,1.44,9.22,5.7,9.75,11.6
			c2.26,25.16,3.3,50.37,2.86,75.64c-0.13,7.36-0.9,14.67-2.08,21.92c-1.33,8.13-4.98,14.74-12.51,18.8
			c-1.88,1.02-3.77,1.56-5.92,1.58c-13.77,0.16-27.47-0.86-41.12-2.47c-33.48-3.96-66.54-10.47-99.63-16.8
			c-0.94-0.18-1.89-0.36-2.79-0.66c-2.96-0.95-3.38-1.66-2.73-5.01c1.15-5.96,2.81-11.8,4.89-17.5c2.08-5.71,4.45-7,10.66-6.22
			c14.58,1.82,29,4.67,43.53,6.82c16.26,2.41,32.38,5.84,48.86,6.69c4.65,0.24,9.26-0.16,13.88-0.46c3.74-0.25,6.47-1.98,8.57-5.25
			c4.78-7.45,6.48-15.89,8.48-24.27c2.6-10.9,1.83-21.91,0.98-32.91c-0.31-3.95-2.44-6.51-6.26-7.53
			c-5.44-1.46-11.01-2.02-16.61-1.67c-18.5,1.14-37,2.27-55.48,3.68c-11,0.84-21.96,1.92-33.01,0.91c-7.61-0.7-14.83-2.35-20.63-7.8
			c-3.82-3.59-6.51-7.69-7.35-13.06c-1.46-9.4-1.15-18.85-0.64-28.22c1.2-22.33,3.58-44.57,5.87-66.81
			c0.59-5.72,1.81-11.3,6.52-15.51c3-2.68,6.3-4.33,10.21-4.76c14.15-1.58,28.36-2.14,42.58-1.89c10.7,0.19,21.4,0.73,32.1,1.12
			C824.72,599.84,824.73,599.77,824.73,599.71z"/>
		<path class="st0" d="M141.11,714.67c0.48-26.75,1.24-56.46,3.01-86.13c0.48-8,4.54-13.49,12.04-16.25
			c7.86-2.89,16.06-4.15,24.4-4.33c21.92-0.47,43.75,0.82,65.56,2.91c16.38,1.57,32.79,2.77,49.18,4.22
			c7.87,0.69,8.36,0.39,7.48,8.82c-0.76,7.3-0.85,14.67-1.29,22.01c-0.28,4.67-1,5.31-5.56,4.8c-18.1-2.02-36.19-4.1-54.34-5.57
			c-16.56-1.34-33.11-2.91-49.76-2.5c-0.64,0.02-1.28,0.02-1.92,0.06c-9.17,0.5-10.76,2.05-11.18,11.11
			c-1.64,35.28-2.05,70.59-2.18,105.91c-0.03,9.42-0.06,18.84-0.24,28.25c-0.11,5.89,2.85,9.59,7.89,11.98
			c5.84,2.77,12.12,4.02,18.45,4.87c16.23,2.19,32.51,1.83,48.79,0.47c14.49-1.21,28.99-2.31,43.48-3.43
			c1.27-0.1,2.55-0.03,3.83-0.08c2.52-0.1,3.69,0.91,3.91,3.6c0.77,9.39,1.73,18.76,2.69,28.14c0.24,2.32-0.77,3.26-2.95,3.28
			c-4.63,0.05-9.27,0.12-13.9,0.15c-29.09,0.22-58.18,0.42-87.26,0.68c-10.86,0.1-21.72,0.34-32.57,0.51
			c-1.28,0.02-2.56,0.01-3.83-0.1c-7.83-0.68-13.27-4.8-16.95-11.62c-3.64-6.75-5.28-13.98-5.72-21.57
			c-0.88-15.16-0.98-30.34-1.05-45.51C141.06,745.43,141.11,731.53,141.11,714.67z"/>
		<path class="st0" d="M460.03,370.15c-1.11,33.69-2.23,67.38-3.32,101.07c-0.69,21.4-1.33,42.79-2,64.19
			c-0.04,1.28-0.07,2.56-0.16,3.83c-0.17,2.17-1.2,3.09-3.5,2.68c-12.41-2.26-24.83-4.41-37.23-6.69c-3.43-0.63-4.08-1.57-4.09-5.27
			c-0.07-41.86,0.11-83.71,0.64-125.57c0.78-62.3,2.19-124.61,1.31-186.92c-0.03-2.24-0.01-4.47,0.06-6.71
			c0.12-4.14,0.39-4.44,4.6-5.1c4.26-0.67,8.53-1.23,12.79-1.92c9.45-1.54,18.9-3.13,28.34-4.69c0.79-0.13,1.58-0.22,2.37-0.33
			c1.79-0.26,2.75,0.58,2.9,2.3c0.11,1.27,0.05,2.55,0.06,3.83c0.19,40.42-0.1,80.84-1.27,121.25c-0.42,14.69-0.98,29.38-1.48,44.07
			C460.05,370.15,460.04,370.15,460.03,370.15z"/>
		<path class="st0" d="M468.84,843.22c-5.43,0-10.87,0.04-16.3-0.01c-5.02-0.04-5.07-0.12-6.2-5.21
			c-2.15-9.66-4.41-19.29-6.41-28.98c-2.13-10.31-5.04-20.45-6.82-30.84c-0.7-4.08-1.87-5.07-5.85-5.8
			c-0.31-0.06-0.63-0.11-0.95-0.11c-17.41-0.15-34.85-1.17-52.14,1.85c-6.09,1.07-6.56,2.11-7.55,8.4
			c-1.17,7.4-3.02,14.68-4.61,22.01c-2.23,10.29-4.47,20.58-6.75,30.87c-0.84,3.8-0.95,3.92-4.68,3.95
			c-8.79,0.06-17.58,0.07-26.38,0c-4.07-0.03-4.68-1.04-3.28-4.99c13.82-39.12,26.23-78.7,38.54-118.31
			c9.47-30.47,18.7-61.01,27.6-91.66c1.15-3.97,1.9-8.06,4.77-11.35c3.89-4.45,6.29-4.56,10.75-0.5c3.55,3.22,5.55,7.36,7.4,11.61
			c6.35,14.65,11.57,29.73,17.04,44.71c14.4,39.41,27.73,79.2,42.49,118.47c6.4,17.03,13.18,33.9,20.18,50.69
			c1.71,4.09,1.6,4.36-2.64,4.62c-4.15,0.25-8.3,0.37-12.46,0.5c-1.92,0.06-3.84,0.01-5.75,0.01
			C468.84,843.17,468.84,843.2,468.84,843.22z M392.78,748.37c8.63-0.22,17.23-0.89,25.79-2.04c4.6-0.62,5.16-1.4,3.79-5.98
			c-1.82-6.11-3.76-12.2-5.89-18.22c-3.94-11.14-8.26-22.13-14.13-32.43c-0.86-1.52-1.82-3.06-3.05-4.27
			c-1.98-1.94-3.96-1.69-5.71,0.51c-1.6,2.02-2.65,4.35-3.6,6.73c-5.52,13.83-9.22,28.19-12.6,42.65c-0.47,2-1.23,3.95-1.2,6.09
			c0.05,3.85,0.93,5.08,4.67,6.12C384.77,748.64,388.79,748.16,392.78,748.37z"/>
		<path class="st0" d="M494.93,712.96c0.02-28.13,0.27-56.25,0.68-84.37c0.09-5.91,0.4-11.82,0.77-17.71
			c0.24-3.85,0.87-4.42,4.61-4.64c9.09-0.53,18.19-1.02,27.3-0.8c4.76,0.11,4.87,0.17,4.61,4.88c-2.19,38.61-3.58,77.25-3.84,115.93
			c-0.14,20.78,0.24,41.55,1.8,62.27c0.23,3.02,0.58,6.06,1.2,9.02c1.15,5.45,4.01,7.97,9.5,8.47c3.02,0.28,6.07,0.4,9.1,0.33
			c22.21-0.56,44.42-1.07,66.59-2.49c13.87-0.89,27.73-1.91,41.55-3.46c9.34-1.05,8.34-0.69,8.34,7.14
			c-0.01,7.35,0.02,14.7-0.01,22.05c-0.02,4.81-0.22,5.12-5.18,5.35c-11.02,0.51-22.04,0.9-33.06,1.29
			c-22.2,0.78-44.41,1.46-66.61,2.31c-12.93,0.49-25.86,1.25-38.79,1.86c-5.63,0.27-11.14,0.25-15.91-3.63
			c-5.32-4.33-8.7-9.61-9.59-16.51c-0.99-7.62-1.43-15.28-1.59-22.94C495.8,769.2,495.4,741.08,494.93,712.96z"/>
		<path class="st0" d="M953.69,604c31.99,0.52,63.87,2.85,95.77,5.02c9.25,0.63,18.5,1.15,27.75,1.86c4.46,0.34,4.44,0.54,3.79,5.03
			c-1.17,8.06-2.27,16.13-3.38,24.2c-0.6,4.35-1.02,4.91-5.51,4.6c-9.88-0.68-19.74-1.75-29.63-2.34
			c-7.96-0.48-15.86-2.12-23.88-1.41c-1.74,0.15-3.48,0.51-5.16,0.99c-2.95,0.84-4.86,2.77-6.01,5.68
			c-1.8,4.55-2.31,9.29-2.41,14.09c-0.51,23.01-1.02,46.02-1.42,69.03c-0.63,35.96-1.17,71.91-1.74,107.87c-0.01,0.8,0,1.6-0.04,2.4
			c-0.12,2.26-1.44,3.16-3.53,2.76c-7.85-1.52-15.8-2.27-23.72-3.26c-2.19-0.27-3.08-1.38-3.01-3.48c0.04-1.28-0.01-2.56-0.01-3.84
			c-0.14-60.1-0.28-120.2-0.42-180.3c0-1.12,0.02-2.24-0.01-3.36c-0.17-6.21-2.37-9.37-8.29-11.44c-5.78-2.03-11.82-2.73-17.91-2.79
			c-12.15-0.12-24.27-1.04-36.38-1.89c-3.77-0.27-4.1-0.64-4.43-4.28c-0.68-7.49-0.27-15.01-0.24-22.52
			c0.01-2.57,0.87-3.07,4.31-3.06c13.27,0.03,26.53-0.27,39.79,0.43C949.85,604.08,951.77,604,953.69,604z"/>
		<path class="st0" d="M713.4,727.62c-0.74,21.07-1.47,42.14-2.21,63.21c-0.62,17.72-1.21,35.43-1.88,53.15
			c-0.16,4.38-0.55,4.66-4.85,3.93c-7.39-1.25-14.78-2.56-22.15-3.92c-3.89-0.72-4.6-1.55-4.61-5.34
			c-0.02-27.47-0.4-54.96,0.08-82.42c0.72-41.2,1.38-82.4,1.36-123.6c0-6.07-0.28-12.13-0.43-18.2c-0.13-5.12,0.18-5.48,5.36-6.35
			c8.81-1.48,17.62-2.96,26.43-4.43c3.71-0.62,3.95-0.36,4.65,3.32c0.48,2.53,0.62,5.05,0.61,7.61
			C715.58,652.28,714.66,689.95,713.4,727.62z"/>
		<path class="st0" d="M1380.76,754.29c0.04,8.64-1.36,17.17-2.25,25.74c-1.47,14.12-2.95,28.25-5.41,42.25
			c-0.36,2.07-0.82,4.06-1.87,5.88c-1.59,2.74-3.75,4.39-7,5.22c-7.17,1.82-14.23,1.06-21.38,0.16
			c-12.83-1.62-25.68-3.03-38.52-4.56c-6.97-0.83-10.49-4.11-11.93-11.01c-0.55-2.66-1.06-5.31-0.9-8.06
			c1.02-17.05,1.94-34.11,3.04-51.16c0.42-6.58,2.3-12.54,8.45-16.29c2.99-1.82,6.24-2.47,9.59-2.57
			c19.32-0.54,38.64-1.06,57.96-1.42c7.26-0.14,9.89,2.64,10.21,10.08C1380.83,750.46,1380.76,752.38,1380.76,754.29z"/>
		<path class="st0" d="M1112.85,196.97c0.6-5.58,0.14-11.16-0.09-16.73c-0.96-22.51-1.14-45.03-0.35-67.53
			c0.59-16.76,2.67-33.4,6.39-49.79c0.67-2.96,1.42-5.9,2.68-8.67c0.78-1.72,1.42-3.57,3.62-4.61c1.76,7.32,2.34,14.7,3.16,22.02
			c2.88,25.73,3.68,51.58,4.03,77.45c0.19,13.73,0.48,27.46,0.7,41.19c0.09,5.64,0.07,5.64,5.51,5.91
			c-5.44,0.81-5.41,0.81-5.42,6.71c-0.02,14.54-0.07,29.08-0.1,43.61c-5.63,0.45-11.25,0.84-16.87-0.13
			c-1.22-13.77-2.16-27.55-2.44-41.38C1113.63,202.33,1113.14,199.65,1112.85,196.97z"/>
		<path class="st0" d="M1053.75,259.83c-1.01,0.86-2.01,1.77-3.08,0.06c-1.61-2.56-3.35-5.05-4.82-7.69
			c-6.97-12.57-12.5-25.8-17.72-39.16c-0.63-1.62-1-3.37-2.2-4.74c0.05-2.16-1.04-3.99-1.73-5.92
			c-7.45-20.88-14.76-41.81-19.79-63.44c-2.67-11.52-4.15-23.22-5.21-34.98c-0.24-2.69-0.31-5.43,0.17-8.12
			c0.16-0.93,0.39-1.9,0.83-2.73c1.14-2.17,2.54-2.18,4-0.16c6.4,8.88,10.46,18.98,14.88,28.87c9.58,21.44,16.15,44,23.95,66.09
			c1.53,4.34,2.5,8.9,4.92,12.91c-0.18,1.15,0.23,2.18,0.61,3.23c4.51,12.4,9.15,24.74,14.6,36.77c2.44,5.39,2.67,3.95-1.29,7.97
			c-2.8,2.84-5.48,5.76-7.32,9.34C1054.57,258.82,1054.43,259.46,1053.75,259.83z"/>
		<path class="st0" d="M1054.55,258.12c1.84-3.58,4.52-6.5,7.32-9.34c3.96-4.02,3.73-2.58,1.29-7.97
			c-5.45-12.03-10.09-24.37-14.6-36.77c-0.38-1.05-0.8-2.08-0.61-3.23c21.61-1.7,43.26-2.79,64.91-3.84
			c0.29,2.68,0.77,5.36,0.83,8.04c0.27,13.83,1.22,27.61,2.44,41.38c-12.28,0.06-24.57,0.13-36.85,0.2
			c-2.23,0.01-4.43,0.19-6.64,0.63C1065.25,248.67,1059.48,252.67,1054.55,258.12z"/>
		<path class="st0" d="M1132.98,246.52c0.04-14.54,0.08-29.08,0.1-43.61c0.01-5.9-0.02-5.9,5.42-6.71
			c19.9-0.34,39.81-0.35,59.72-0.09c0.13,1.85-0.85,3.37-1.52,4.97c-6.62,15.89-13.63,31.63-18.88,48.07
			c-1.74-0.16-3.48-0.35-5.23-0.48C1159.41,247.74,1146.21,246.93,1132.98,246.52z"/>
		<path class="st0" d="M1177.83,249.15c5.24-16.43,12.25-32.17,18.88-48.07c0.67-1.6,1.65-3.12,1.52-4.97
			c1.3-1.09,1.62-2.72,2.24-4.17c7.28-16.86,14.47-33.76,22.79-50.14c5.79-11.42,12.54-22.26,19.83-32.77
			c2.44-3.52,4.96-7.09,9.86-8.83c0.32,3.27,0.27,6.27-0.43,9.36c-4.18,18.28-10.46,35.83-18.28,52.86
			c-4.6,10.01-9.07,20.08-13.59,30.13c-0.59,1.3-1.35,2.56-1.17,4.09c-3.49,4.98-5.31,10.78-7.87,16.21
			c-5.48,11.63-10.82,23.32-16.2,35c-0.4,0.86-0.7,1.76-1.04,2.65c-0.93,1.48-2.08,2.14-3.97,1.76c-3.59-0.72-7.23-1.19-10.86-1.75
			C1178.7,250.36,1177.99,250.11,1177.83,249.15z"/>
		<path class="st0" d="M1101.47,945.02c-0.38,0.09-0.6-0.07-0.56-0.46c0.01-0.12,0.16-0.23,0.25-0.34c0.14,0.23,0.28,0.45,0.42,0.68
			C1101.59,944.89,1101.47,945.02,1101.47,945.02z"/>
		<path class="st0" d="M987.34,983.83c0.24-9.39,2.15-18.17,7.42-25.98c11.26-16.67,33.36-18.89,47.73-4.86
			c6.88,6.72,10.66,15.02,12.57,24.27c2.26,10.95,1.39,21.57-3.54,31.73c-10.55,21.72-40.6,24.52-55.02,4.42
			C990.11,1004.52,987.64,994.47,987.34,983.83z"/>
		<path class="st0" d="M771.4,1015.76c6.36-18.65,12.53-36.7,18.84-55.2c6.93,18.2,13.71,36.01,20.68,54.32
			C797.63,1015.18,784.82,1015.46,771.4,1015.76z"/>
		<path class="st0" d="M418.05,940.21c1.78,1.77,1.42,4.01,1.86,5.92c3.53,15.39,6.94,30.81,10.37,46.23
			c0.83,3.71,0.77,3.9-2.93,3.47c-10.94-1.27-21.86-2.66-32.78-4.08c-2.33-0.3-2.53-0.77-1.25-3.27
			c4.94-9.67,9.97-19.29,14.93-28.95C411.52,953.16,414.73,946.76,418.05,940.21z"/>
		<path class="st0" d="M1170.85,346.01c-0.1,19.9-4.63,35.45-14.63,49.21c-6.48,8.91-14.76,15.53-25.64,18.21
			c-16.08,3.96-31.72-2.2-41.49-16.1c-6.33-9.01-9.5-19.21-10.25-30.01c-1.39-19.95,2.7-38.76,13.38-55.87
			c5.95-9.54,13.85-17.11,24.01-22.11c6.66-3.28,13.62-4.44,20.92-2.34c5.05,1.45,9.18,4.39,12.9,7.99
			c9.85,9.54,15.4,21.41,18.58,34.53C1170.15,335.89,1170.97,342.38,1170.85,346.01z"/>
	</g>
</g>
</svg>
