<?xml version="1.0" encoding="UTF-8"?> <!-- Generator: Adobe Illustrator 23.1.1, SVG Export Plug-In . SVG Version: 6.00 Build 0) --> <svg xmlns="http://www.w3.org/2000/svg" xmlns:xlink="http://www.w3.org/1999/xlink" version="1.1" id="Layer_1" x="0px" y="0px" viewBox="0 0 566.929 566.929" xml:space="preserve"> <rect fill="#FFFFFF" width="566.929" height="566.929"></rect> <g> <path d="M186.623,300.539c-2.317,0-4.131,1.622-4.131,3.986s1.824,3.976,4.131,3.976s4.131-1.622,4.131-3.976 C190.754,302.16,188.94,300.539,186.623,300.539z M186.623,307.363c-1.65,0-2.876-1.206-2.876-2.838 c0-1.632,1.216-2.848,2.876-2.848c1.641,0,2.876,1.236,2.876,2.848C189.499,306.127,188.254,307.363,186.623,307.363z"></path> <polygon points="226.818,286.597 206.709,286.597 208.995,251.645 195.936,286.597 177.263,286.597 206.891,207.596 226.761,207.596 224.467,243.027 237.773,207.596 256.446,207.596 "></polygon> <polygon points="229.243,286.597 258.871,207.596 277.545,207.596 247.917,286.597 "></polygon> <path d="M175.109,259.366c-26.095,30.643-50.709,71.417-28.967,90.194c21.067,18.195,47.401,7.422,65.356,0.24 s216.417-93.366,216.417-93.366c1.915-0.957,1.556-2.154-0.838-1.556c-0.966,0.241-216.058,58.533-216.058,58.533 C183.728,321.071,152.606,304.373,175.109,259.366z"></path> <path d="M187.328,304.805c0.579-0.029,1.033-0.328,1.033-1.129c0-1.033-0.676-1.293-1.805-1.293h-1.622v4.286h1.081v-1.824h0.183 l0.985,1.824h1.245L187.328,304.805z M186.632,304.11h-0.618v-0.994h0.521c0.319,0,0.685,0.039,0.685,0.454 C187.222,304.013,187.009,304.11,186.632,304.11z"></path> <path d="M374.335,207.355c-2.317,0-4.131,1.622-4.131,3.986c0,2.365,1.824,3.976,4.131,3.976c2.307,0,4.131-1.622,4.131-3.976 C378.466,208.976,376.652,207.355,374.335,207.355z M374.335,214.179c-1.651,0-2.876-1.206-2.876-2.838 c0-1.632,1.216-2.847,2.876-2.847c1.641,0,2.876,1.236,2.876,2.847C377.211,212.943,375.966,214.179,374.335,214.179z"></path> <path d="M375.04,211.621c0.579-0.029,1.033-0.328,1.033-1.129c0-1.033-0.676-1.293-1.805-1.293h-1.622v4.286h1.081v-1.824h0.184 l0.984,1.824h1.245L375.04,211.621z M374.344,210.926h-0.618v-0.994h0.521c0.319,0,0.685,0.039,0.685,0.454 C374.934,210.829,374.721,210.926,374.344,210.926z"></path> <path d="M362.031,220.762l5.018-13.167h-37.418h-0.168h-19.391l-19.565,23.701l9.032-23.701h-18.912l-29.389,79.002h18.673 l12.547-33.037l0.86,33.037l57.296-0.124l5.454-15.198h-21.785l7.157-19.152h17.955l5.524-14.723h-17.955l6.156-16.638H362.031 L362.031,220.762z M301.842,281.331l-1.197-41.177l28.233-30.998L301.842,281.331z"></path> </g> </svg> 