<?xml version="1.0" encoding="UTF-8"?> <!-- Generator: Adobe Illustrator 23.1.1, SVG Export Plug-In . SVG Version: 6.00 Build 0) --> <svg xmlns="http://www.w3.org/2000/svg" xmlns:xlink="http://www.w3.org/1999/xlink" version="1.1" id="Capa_1" x="0px" y="0px" viewBox="0 0 566.929 566.929" xml:space="preserve"> <rect fill="#FFFFFF" width="566.929" height="566.929"></rect> <g> <path d="M385.527,283.467c0,56.369-45.694,102.061-102.061,102.061c-56.368,0-102.064-45.693-102.064-102.061 c0-56.366,45.696-102.066,102.064-102.066C339.833,181.402,385.527,227.101,385.527,283.467"></path> <path fill="#FFFFFF" d="M277.953,307.863c-4.306,0-7.796-3.082-7.796-7.386v-45.305c0-4.299,3.491-7.384,7.796-7.384 c4.309,0,7.797,3.085,7.797,7.384v45.305C285.75,304.782,282.262,307.863,277.953,307.863"></path> <path fill="#FFFFFF" d="M234.388,247.788c-16.561,0-30.036,13.474-30.036,30.038c0,0.418,0.017,0.806,0.044,1.17 c-0.027,0.262-0.044,0.534-0.044,0.806v43.116c0,4.306,3.491,7.386,7.8,7.386c4.301,0,7.795-3.08,7.795-7.386v-21.141 c4.624,4.024,10.024,6.087,15.336,6.087c15.469,0,29.144-13.475,29.144-30.038C264.427,261.262,250.953,247.788,234.388,247.788 M234.388,292.56c-7.962,0-14.441-6.77-14.441-14.735c0-7.968,6.479-15.255,14.441-15.255c7.966,0,14.445,7.288,14.445,15.255 C248.833,285.79,242.354,292.56,234.388,292.56"></path> <path fill="#FFFFFF" d="M345.587,247.788c-5.98,0-11.123,3.024-14.939,7.377c-3.818-4.353-8.964-7.377-14.941-7.377 c-12.539,0-22.741,9.793-22.741,22.328v30.362c0,4.304,3.491,7.386,7.801,7.386c4.304,0,7.793-3.082,7.793-7.386v-31.17 c0-3.939,3.206-6.737,7.147-6.737c3.937,0,7.141,2.797,7.141,6.737v31.17c0,4.304,3.491,7.386,7.8,7.386 c4.303,0,7.793-3.082,7.793-7.386v-31.17c0-3.939,3.208-6.737,7.147-6.737c3.938,0,7.146,2.797,7.146,6.737v31.17 c0,4.304,3.489,7.386,7.795,7.386c4.307,0,7.798-3.082,7.798-7.386v-30.362C368.326,257.581,358.127,247.788,345.587,247.788"></path> <path fill="#FFFFFF" d="M277.935,222.902c-5.085,0-9.222,4.489-9.222,9.387c0,4.9,4.136,9.058,9.222,9.058s9.226-4.159,9.226-9.058 C287.161,227.391,283.021,222.902,277.935,222.902"></path> <path fill="#FFFFFF" d="M277.935,314.363c-5.085,0-9.222,4.482-9.222,9.382c0,4.903,4.136,9.067,9.222,9.067 s9.226-4.164,9.226-9.067C287.161,318.845,283.021,314.363,277.935,314.363"></path> </g> <g display="none"> <g display="inline"> <g> <path fill="#B9007C" d="M-159.984-119.111h-3.849c-1.014,0-1.846-0.832-1.846-1.846s0.832-1.846,1.846-1.846h11.7 c1.015,0,1.847,0.832,1.847,1.846s-0.832,1.846-1.847,1.846h-3.848v12.663c0,1.118-0.884,2.002-2.002,2.002 s-2.002-0.884-2.002-2.002v-12.663H-159.984z"></path> </g> </g> <path display="inline" fill="#B9007C" d="M-157.984-431.931c-7.063,0-12.808,6.235-12.808,13.038 c0,6.805,5.745,12.581,12.808,12.581s12.814-5.776,12.814-12.581C-145.171-425.695-150.921-431.931-157.984-431.931"></path> <path display="inline" fill="#B9007C" d="M-3.458-256.856c-7.063,0-12.809,6.235-12.809,13.038c0,6.805,5.745,12.581,12.809,12.581 c7.063,0,12.814-5.776,12.814-12.581C9.355-250.621,3.605-256.856-3.458-256.856"></path> <path display="inline" fill="#B9007C" d="M-312.479-256.856c-7.063,0-12.808,6.235-12.808,13.038 c0,6.805,5.745,12.581,12.808,12.581s12.814-5.776,12.814-12.581C-299.666-250.621-305.416-256.856-312.479-256.856"></path> <path display="inline" fill="#B9007C" d="M-157.984-85.833c-7.063,0-12.808,6.235-12.808,13.038 c0,6.805,5.745,12.581,12.808,12.581s12.814-5.776,12.814-12.581C-145.171-79.598-150.921-85.833-157.984-85.833"></path> <path display="inline" fill="#B9007C" d="M244.751-431.931c-7.063,0-12.808,6.235-12.808,13.038 c0,6.805,5.745,12.581,12.808,12.581s12.814-5.776,12.814-12.581C257.565-425.695,251.814-431.931,244.751-431.931"></path> <path display="inline" fill="#B9007C" d="M399.277-256.856c-7.063,0-12.808,6.235-12.808,13.038 c0,6.805,5.745,12.581,12.808,12.581c7.063,0,12.814-5.776,12.814-12.581C412.091-250.621,406.341-256.856,399.277-256.856"></path> <path display="inline" fill="#B9007C" d="M90.256-256.856c-7.063,0-12.808,6.235-12.808,13.038c0,6.805,5.745,12.581,12.808,12.581 c7.063,0,12.814-5.776,12.814-12.581C103.07-250.621,97.32-256.856,90.256-256.856"></path> <path display="inline" fill="#B9007C" d="M244.751-122.802c-7.063,0-12.808,6.235-12.808,13.038 c0,6.805,5.745,12.581,12.808,12.581s12.814-5.776,12.814-12.581C257.565-116.567,251.814-122.802,244.751-122.802"></path> <path display="inline" fill="#B9007C" d="M244.751,0.048c-7.063,0-12.808,6.235-12.808,13.038c0,6.805,5.745,12.581,12.808,12.581 s12.814-5.776,12.814-12.581C257.565,6.283,251.814,0.048,244.751,0.048"></path> <path display="inline" fill="#B9007C" d="M399.277,175.122c-7.063,0-12.808,6.235-12.808,13.038 c0,6.805,5.745,12.581,12.808,12.581c7.063,0,12.814-5.776,12.814-12.581C412.091,181.357,406.341,175.122,399.277,175.122"></path> <path display="inline" fill="#B9007C" d="M90.256,175.122c-7.063,0-12.808,6.235-12.808,13.038c0,6.805,5.745,12.581,12.808,12.581 c7.063,0,12.814-5.776,12.814-12.581C103.07,181.357,97.32,175.122,90.256,175.122"></path> <path display="inline" fill="#B9007C" d="M244.751,309.176c-7.063,0-12.808,6.235-12.808,13.038 c0,6.805,5.745,12.581,12.808,12.581s12.814-5.776,12.814-12.581C257.565,315.411,251.814,309.176,244.751,309.176"></path> <g display="inline"> <g> <path fill="#B9007C" d="M-159.984,312.868h-3.849c-1.014,0-1.846-0.832-1.846-1.846s0.832-1.846,1.846-1.846h11.7 c1.015,0,1.847,0.832,1.847,1.846s-0.832,1.846-1.847,1.846h-3.848v12.663c0,1.118-0.884,2.002-2.002,2.002 s-2.002-0.884-2.002-2.002v-12.663H-159.984z"></path> </g> </g> <path display="inline" fill="#B9007C" d="M-157.984,0.048c-7.063,0-12.808,6.235-12.808,13.038c0,6.805,5.745,12.581,12.808,12.581 s12.814-5.776,12.814-12.581C-145.171,6.283-150.921,0.048-157.984,0.048"></path> <path display="inline" fill="#B9007C" d="M-3.458,175.122c-7.063,0-12.809,6.235-12.809,13.038c0,6.805,5.745,12.581,12.809,12.581 c7.063,0,12.814-5.776,12.814-12.581C9.355,181.357,3.605,175.122-3.458,175.122"></path> <path display="inline" fill="#B9007C" d="M-312.479,175.122c-7.063,0-12.808,6.235-12.808,13.038 c0,6.805,5.745,12.581,12.808,12.581s12.814-5.776,12.814-12.581C-299.666,181.357-305.416,175.122-312.479,175.122"></path> <path display="inline" fill="#B9007C" d="M-157.984,346.146c-7.063,0-12.808,6.235-12.808,13.038 c0,6.805,5.745,12.581,12.808,12.581s12.814-5.776,12.814-12.581C-145.171,352.381-150.921,346.146-157.984,346.146"></path> </g> </svg> 