<?xml version="1.0" encoding="UTF-8"?> <!-- Generator: Adobe Illustrator 23.1.1, SVG Export Plug-In . SVG Version: 6.00 Build 0) --> <svg xmlns="http://www.w3.org/2000/svg" xmlns:xlink="http://www.w3.org/1999/xlink" version="1.1" id="Layer_1" x="0px" y="0px" viewBox="0 0 566.929 566.929" xml:space="preserve"> <rect fill="#FFFFFF" width="566.929" height="566.929"></rect> <g> <path fill="#231F20" d="M202.923,256.239c-0.438,1.53-0.835,3.017-1.185,4.435c-0.439,1.785-0.844,3.407-1.21,4.862 c-0.36,1.426-0.614,2.573-0.756,3.41c-0.291,1.486-1.263,2.424-2.816,2.729c-1.337,0.264-2.774,0.154-4.255-0.327 c-1.459-0.476-2.787-1.303-3.948-2.458c-1.218-1.212-1.836-2.738-1.836-4.533c0-1.461,0.366-3.771,1.119-7.061 c0.732-3.208,1.791-7.014,3.148-11.312c1.346-4.266,2.977-8.965,4.849-13.966c1.61-4.298,3.412-8.624,5.37-12.889 c0.641-1.397,1.965-2.359,3.493-2.536c3.458-0.402,6.458-0.303,8.998,0.297c1.53,0.361,2.354,2.026,1.712,3.461 c-1.639,3.663-3.151,7.316-4.501,10.873c-1.093,2.88-2.142,5.73-3.129,8.502c-0.097,0.272,0.181,0.528,0.445,0.407 c1.318-0.607,2.62-1.322,3.892-2.139c2.085-1.34,3.984-2.94,5.645-4.756c1.655-1.812,3.013-3.857,4.033-6.081 c1.01-2.199,1.522-4.592,1.522-7.112c0-3.24-0.897-5.633-2.666-7.111c-1.79-1.495-4.313-2.253-7.497-2.253 c-3.391,0-6.492,0.805-9.216,2.392c-2.793,1.625-5.209,3.627-7.183,5.95c-1.986,2.335-3.55,4.831-4.649,7.42 c-1.089,2.567-1.641,4.816-1.641,6.687c0,1.342-0.708,2.311-1.993,2.728c-1.127,0.367-2.368,0.314-3.643-0.163 c-1.227-0.458-2.363-1.358-3.378-2.678c-1.022-1.327-1.54-3.123-1.54-5.339c0-1.934,0.733-4.213,2.239-6.967 c1.47-2.684,3.64-5.296,6.451-7.765c2.807-2.465,6.351-4.604,10.535-6.357c4.21-1.763,9.076-2.656,14.461-2.656 c3.067,0,6.143,0.359,9.14,1.068c3.022,0.716,5.761,1.805,8.14,3.237c2.408,1.449,4.386,3.268,5.877,5.408 c1.519,2.177,2.288,4.73,2.288,7.588c0,3.079-0.676,5.966-2.009,8.58c-1.322,2.59-3.141,4.955-5.404,7.03 c-2.242,2.058-4.9,3.874-7.901,5.398c-2.474,1.255-5.106,2.325-7.837,3.187c-0.174,0.055-0.236,0.144-0.228,0.326 c0.059,1.362,0.157,2.705,0.291,4.002c0.154,1.487,0.36,2.938,0.61,4.313c0.246,1.352,0.541,2.669,0.877,3.915 c0.261,0.964,0.551,1.904,0.864,2.793c0.199,0.568,0.408,1.123,0.622,1.647c0.427,1.052,0.898,2.057,1.399,2.991 c0.491,0.915,1.024,1.784,1.584,2.584c0.544,0.778,1.129,1.511,1.74,2.178c0.593,0.649,1.221,1.247,1.867,1.78 c0.63,0.519,1.293,0.988,1.972,1.394c0.661,0.394,1.354,0.738,2.06,1.021c0.696,0.278,1.417,0.502,2.142,0.665 c0.724,0.163,1.475,0.27,2.23,0.318c0.756,0.048,1.541,0.037,2.326-0.033c0.797-0.07,1.611-0.202,2.423-0.393 c0.828-0.195,1.674-0.454,2.515-0.772c0.861-0.325,1.732-0.718,2.591-1.167c0.329-0.171,0.66-0.353,0.99-0.544 c1.072-0.619,2.439-0.324,3.16,0.682c0.721,1.007,0.56,2.396-0.371,3.211c-0.457,0.4-0.915,0.79-1.371,1.165 c-1.102,0.904-2.208,1.743-3.287,2.492c-1.028,0.714-2.071,1.374-3.099,1.962c-0.517,0.296-1.058,0.588-1.607,0.866 c-1.058,0.536-2.129,1.01-3.183,1.407c-1.052,0.395-2.108,0.721-3.138,0.97c-1.029,0.249-2.064,0.429-3.078,0.533 c-0.721,0.073-1.443,0.111-2.148,0.111c-0.285,0-0.57-0.006-0.855-0.018c-0.978-0.042-1.952-0.158-2.895-0.344 c-0.468-0.092-0.938-0.204-1.398-0.333c-0.445-0.123-0.901-0.27-1.358-0.436c-0.879-0.32-1.748-0.715-2.58-1.172 c-0.818-0.449-1.62-0.968-2.383-1.543c-0.616-0.465-1.22-0.975-1.795-1.518c-0.692-0.652-1.365-1.374-2.002-2.145 c-0.628-0.76-1.23-1.582-1.791-2.443c-0.56-0.86-1.091-1.777-1.579-2.724c-0.489-0.946-0.95-1.952-1.37-2.989 c-0.415-1.025-0.805-2.116-1.156-3.242c-0.345-1.106-0.662-2.278-0.942-3.484c-0.278-1.204-0.52-2.454-0.721-3.715 c-0.178-1.114-0.33-2.271-0.45-3.446C203.525,255.937,203.022,255.893,202.923,256.239"></path> <path fill="#231F20" d="M386.824,211.198c0,5.056-4.1,9.155-9.154,9.155c-5.056,0-9.155-4.098-9.155-9.155 c0-5.056,4.099-9.155,9.155-9.155C382.724,202.044,386.824,206.143,386.824,211.198"></path> <path fill="#231F20" d="M384.78,248.124c-0.446-0.692-1.305-1.14-2.189-1.14c-0.839,0-1.592,0.393-2.066,1.079 c-0.543,0.786-1.212,1.718-1.991,2.772c-0.854,1.156-1.776,2.265-2.74,3.294c-0.958,1.025-1.891,1.916-2.775,2.648 c-0.914,0.758-1.505,0.917-1.839,0.917c-0.234,0-0.67,0-0.769-1.152c-0.103-1.207,0.076-2.776,0.532-4.664 c0.465-1.94,1.14-4.094,2.005-6.401c0.881-2.348,1.766-4.591,2.627-6.666c0.896-2.156,1.667-3.949,2.353-5.481 c0.685-1.525,1.114-2.517,1.277-2.951c0.548-1.256,0.348-2.494-0.579-3.582c-0.851-0.997-1.989-1.695-3.381-2.077 c-1.361-0.373-2.844-0.394-4.39-0.064c-1.656,0.354-2.968,1.312-3.901,2.844c-0.822,1.345-1.892,3.459-3.179,6.282 c-1.292,2.829-2.54,5.971-3.709,9.337c-0.71,2.042-1.365,4.117-1.957,6.207c-0.986,3.475-3.015,6.564-5.812,8.85 c-1.001,0.818-2.055,1.59-3.151,2.306c-0.484,0.318-0.973,0.611-1.462,0.881c-0.155,0.085-0.316-0.102-0.209-0.242 c0.845-1.113,1.677-2.316,2.487-3.601c1.672-2.646,3.194-5.815,4.526-9.419c1.408-3.816,2.292-7.296,2.626-10.346 c0.337-3.087,0.22-5.78-0.35-8.006c-0.589-2.298-1.618-4.106-3.062-5.373c-1.494-1.31-3.342-1.974-5.489-1.974 c-2.532,0-4.86,0.67-6.917,1.991c-1.405,0.903-2.708,1.911-3.888,3.011c-0.098,0.091-0.179,0.081-0.25-0.032 c-0.262-0.418-0.615-0.811-1.059-1.179c-0.999-0.825-2.199-1.377-3.572-1.641c-1.377-0.261-2.777-0.167-4.141,0.281 c-1.459,0.479-2.548,1.47-3.236,2.946c-1.32,2.843-2.713,6.161-4.143,9.863c-1.426,3.696-2.816,7.559-4.134,11.483 c-0.146,0.435-0.291,0.871-0.436,1.306c-1.112,3.346-3.202,6.283-5.999,8.431c-0.737,0.566-1.5,1.108-2.284,1.621 c-0.484,0.318-0.973,0.612-1.463,0.881c-0.155,0.085-0.316-0.102-0.209-0.242c0.845-1.112,1.676-2.315,2.486-3.601 c1.671-2.645,3.194-5.813,4.528-9.42c1.408-3.816,2.291-7.297,2.626-10.345c0.337-3.088,0.22-5.782-0.35-8.006 c-0.588-2.297-1.618-4.105-3.062-5.373c-1.495-1.31-3.342-1.974-5.488-1.974c-2.534,0-4.861,0.67-6.918,1.991 c-1.406,0.903-2.709,1.912-3.888,3.011c-0.098,0.091-0.178,0.081-0.249-0.033c-0.262-0.417-0.616-0.81-1.061-1.177 c-0.997-0.825-2.198-1.377-3.573-1.642c-1.377-0.262-2.778-0.166-4.139,0.281c-1.458,0.478-2.547,1.469-3.238,2.946 c-1.32,2.848-2.714,6.166-4.141,9.862c-1.339,3.473-2.642,7.078-3.878,10.726c-0.932,2.754-2.328,4.966-4.412,6.992 c-0.538,0.523-1.062,0.997-1.569,1.416c-0.914,0.758-1.504,0.917-1.839,0.917c-0.234,0-0.671,0-0.768-1.153 c-0.103-1.204,0.075-2.772,0.531-4.663c0.465-1.939,1.139-4.093,2.004-6.401c0.871-2.324,1.756-4.567,2.628-6.666 c0.88-2.116,1.672-3.96,2.353-5.481c0.698-1.555,1.115-2.521,1.275-2.951c0.551-1.256,0.351-2.494-0.577-3.581 c-0.853-0.999-2.011-1.698-3.445-2.079c-1.399-0.371-2.879-0.391-4.388-0.061c-1.616,0.355-2.908,1.312-3.84,2.84 c-0.187,0.303-0.381,0.636-0.587,1.007c-0.073,0.132-0.271,0.103-0.303-0.045c-0.177-0.835-0.463-1.624-0.854-2.357 c-0.586-1.093-1.454-1.989-2.578-2.665c-1.142-0.686-2.593-1.034-4.31-1.034c-4.049,0-8.156,1.869-12.205,5.554 c-3.976,3.619-7.271,9.393-9.797,17.166c-1.185,3.748-1.881,7.212-2.067,10.297c-0.188,3.122,0.064,5.817,0.748,8.007 c0.704,2.259,1.829,4.042,3.345,5.299c1.562,1.299,3.44,1.958,5.58,1.958c1.584,0,3.094-0.273,4.491-0.813 c1.353-0.523,2.608-1.195,3.729-1.997c0.863-0.617,1.666-1.315,2.395-2.082c0.52-0.547,1.436-0.326,1.651,0.397 c0.24,0.811,0.574,1.532,1.002,2.16c1.058,1.549,2.732,2.334,4.975,2.334c2.485,0,4.997-0.932,7.464-2.77 c1.15-0.856,2.274-1.789,3.362-2.793c0.245-0.225,0.63,0.016,0.534,0.335c-0.636,2.114-1.206,4.073-1.72,5.91 c-0.867,3.089-1.571,5.75-2.095,7.909c-0.701,2.896-0.792,3.683-0.792,4.046c0,1.775,0.551,3.289,1.64,4.499 c1.051,1.164,2.27,1.999,3.625,2.483c0.892,0.316,1.762,0.477,2.586,0.477c0.456,0,0.905-0.049,1.337-0.147 c0.971-0.22,2.204-0.868,2.563-2.704l0.006-0.036c0.143-0.967,0.415-2.278,0.81-3.895c0.41-1.679,0.907-3.59,1.48-5.68 c0.565-2.079,1.212-4.395,1.974-7.08c0.352-1.241,0.73-2.541,1.132-3.892c0.082-0.275,0.453-0.318,0.597-0.07 c0.179,0.309,0.378,0.611,0.597,0.904c1.237,1.657,3.209,2.499,5.864,2.505c0.533,0.024,1.068,0.036,1.592,0.036h0.001 c3.904,0,7.57-0.67,10.897-1.991c3.179-1.261,6.091-2.802,8.685-4.585c0.254-0.175,0.587,0.068,0.498,0.364 c-0.745,2.453-1.417,4.75-2.007,6.858c-0.871,3.111-1.577,5.772-2.096,7.909c-0.7,2.901-0.791,3.686-0.791,4.046 c0,1.775,0.551,3.288,1.64,4.499c1.051,1.165,2.271,2,3.625,2.483c0.892,0.316,1.761,0.477,2.585,0.477 c0.455,0,0.906-0.049,1.339-0.147c0.971-0.22,2.203-0.868,2.563-2.704l0.006-0.036c0.142-0.97,0.415-2.281,0.81-3.895 c0.409-1.678,0.906-3.588,1.479-5.679c0.568-2.088,1.215-4.403,1.975-7.08c0.353-1.243,0.731-2.544,1.132-3.893 c0.082-0.275,0.453-0.319,0.597-0.071c0.178,0.309,0.378,0.611,0.598,0.905c1.235,1.657,3.208,2.5,5.864,2.505 c0.533,0.024,1.068,0.036,1.591,0.036h0c3.903,0,7.57-0.67,10.898-1.991c3.724-1.477,7.09-3.336,10.004-5.527 c0.495-0.373,0.978-0.75,1.448-1.131c0.216-0.174,0.537-0.018,0.532,0.259c-0.002,0.125-0.003,0.248-0.003,0.371 c0,2.33,0.49,4.23,1.456,5.648c1.058,1.549,2.732,2.334,4.975,2.334c2.481,0,5.009-0.93,7.513-2.766 c2.38-1.743,4.628-3.805,6.681-6.127c2.025-2.289,3.804-4.57,5.289-6.78c1.501-2.237,2.512-3.766,3.089-4.677 C385.204,249.611,385.217,248.804,384.78,248.124 M258.103,236.204c-0.177,1.632-0.523,3.499-1.026,5.549 c-0.504,2.042-1.196,4.194-2.056,6.396c-0.858,2.191-1.771,4.252-2.716,6.126c-0.927,1.83-1.863,3.391-2.785,4.64 c-0.899,1.215-1.743,2.12-2.51,2.692c-0.568,0.424-0.882,0.47-0.99,0.47c-0.05,0-0.092-0.009-0.138-0.03 c-0.104-0.046-0.459-0.285-0.644-1.402c-0.173-1.022-0.189-2.34-0.049-3.92c0.142-1.607,0.469-3.452,0.97-5.484 c0.501-2.035,1.193-4.186,2.057-6.395c0.869-2.22,1.783-4.281,2.718-6.128c0.922-1.828,1.86-3.409,2.789-4.696 c0.894-1.242,1.737-2.162,2.503-2.733c0.568-0.423,0.883-0.469,0.992-0.469c0.051,0,0.093,0.009,0.133,0.027 c0.108,0.049,0.48,0.298,0.707,1.429C258.262,233.28,258.277,234.602,258.103,236.204 M302.453,236.302 c-0.286,1.61-0.741,3.465-1.352,5.514c-0.616,2.056-1.402,4.213-2.325,6.391c-1.01,2.212-2.054,4.276-3.1,6.133 c-1.04,1.842-2.071,3.426-3.067,4.707c-0.968,1.249-1.866,2.173-2.672,2.747c-0.604,0.433-0.938,0.479-1.054,0.479 c-0.054,0-0.098-0.009-0.144-0.03c-0.1-0.045-0.437-0.276-0.586-1.377c-0.136-1.002-0.063-2.325,0.216-3.931 c0.285-1.646,0.741-3.517,1.353-5.561c0.607-2.036,1.392-4.193,2.333-6.411c0.934-2.205,1.953-4.259,3.029-6.104 c1.082-1.851,2.131-3.418,3.119-4.659c0.968-1.217,1.87-2.127,2.678-2.706c0.607-0.433,0.942-0.48,1.057-0.48 c0.054,0,0.099,0.009,0.14,0.028c0.101,0.045,0.439,0.278,0.588,1.378C302.803,233.428,302.73,234.733,302.453,236.302 M343.443,236.301c-0.286,1.609-0.742,3.465-1.353,5.514c-0.613,2.045-1.398,4.203-2.325,6.391 c-1.009,2.208-2.052,4.272-3.101,6.133c-1.037,1.841-2.07,3.425-3.064,4.707c-0.97,1.25-1.868,2.174-2.672,2.747 c-0.605,0.433-0.94,0.479-1.056,0.479c-0.053,0-0.097-0.009-0.143-0.03c-0.1-0.045-0.438-0.277-0.585-1.377 c-0.137-1.007-0.064-2.329,0.216-3.931c0.286-1.652,0.741-3.522,1.352-5.561c0.607-2.035,1.391-4.191,2.332-6.411 c0.932-2.2,1.952-4.254,3.032-6.104c1.077-1.848,2.127-3.415,3.119-4.659c0.964-1.214,1.864-2.124,2.677-2.705 c0.607-0.433,0.941-0.48,1.057-0.48c0.054,0,0.099,0.009,0.14,0.028c0.1,0.045,0.438,0.278,0.588,1.378 C343.792,233.431,343.72,234.736,343.443,236.301"></path> <path fill="#231F20" d="M384.833,320.228c-10.951,9.587-20.664,10.189-32.328,1.601c-5.364-3.944-10.168-8.643-15.545-12.566 c-4.161-3.035-8.559-6.049-13.308-7.923c-8.216-3.252-16.552-2.147-24.055,2.413c-5.098,3.098-9.741,6.958-14.468,10.636 c-0.665,0.51-1.161,0.79-1.665,0.769c-0.504,0.021-1-0.259-1.664-0.769c-4.727-3.678-9.37-7.538-14.468-10.636 c-7.496-4.559-15.839-5.664-24.055-2.413c-4.748,1.874-9.147,4.888-13.308,7.923c-5.378,3.923-10.181,8.622-15.545,12.566 c-11.664,8.587-21.377,7.986-32.328-1.601c-0.902-0.79-1.804-1.58-2.706-2.364c1.629,9.021,5.147,17.112,10.335,24.454 c6.622,9.37,15.307,16.083,26.209,19.769c25.482,8.615,57.67-3.392,67.53-26.056c9.86,22.664,42.048,34.671,67.53,26.056 c10.902-3.685,19.587-10.399,26.209-19.769c5.188-7.343,8.706-15.433,10.335-24.454 C386.637,318.648,385.735,319.438,384.833,320.228"></path> </g> </svg> 